{"glyphs":{"0":{"ha":772,"x_min":60,"x_max":713,"o":"m 650 838 q 699 665 685 761 q 713 486 713 569 q 698 304 713 400 q 649 133 683 208 q 549 7 613 58 q 386 -44 486 -44 q 219 8 283 -44 q 121 138 156 60 q 74 308 88 214 q 60 486 60 403 q 74 668 60 572 q 124 840 88 764 q 223 967 158 915 q 386 1019 288 1019 q 551 966 488 1019 q 650 838 614 913 m 536 211 q 561 349 556 278 q 567 486 567 421 q 560 613 567 542 q 536 753 554 683 q 481 866 515 821 q 386 911 447 911 q 295 867 331 911 q 239 757 260 824 q 212 617 218 689 q 206 486 206 546 q 210 349 206 421 q 235 211 215 278 q 291 103 256 144 q 386 63 326 63 q 482 103 447 63 q 536 211 517 144 z "},"1":{"ha":758,"x_min":135,"x_max":497,"o":"m 497 -22 l 357 -22 l 357 849 l 194 725 l 135 818 l 369 996 l 497 996 l 497 -22 z "},"2":{"ha":772,"x_min":68,"x_max":688,"o":"m 688 -22 l 71 -22 l 71 122 q 103 153 83 135 q 147 194 124 172 q 194 238 169 215 q 239 283 218 261 q 333 383 283 329 q 425 493 383 436 q 494 611 467 551 q 522 731 522 671 q 467 853 522 806 q 336 900 413 900 q 215 876 275 900 q 113 818 154 851 l 68 917 q 199 985 121 958 q 356 1011 276 1011 q 578 936 492 1011 q 665 724 665 861 q 639 600 665 663 q 574 478 613 538 q 487 364 533 418 q 399 267 440 310 q 351 219 378 246 q 300 168 325 193 q 251 122 274 143 q 215 88 228 100 l 688 88 l 688 -22 z "},"3":{"ha":772,"x_min":44,"x_max":694,"o":"m 467 518 q 556 486 514 510 q 628 428 597 463 q 676 349 658 393 q 694 256 694 304 q 661 123 694 179 q 574 29 628 67 q 447 -26 518 -8 q 299 -43 375 -44 q 163 -31 228 -44 q 44 17 99 -17 l 82 114 q 182 78 124 90 q 290 67 240 67 q 383 78 338 67 q 465 114 429 90 q 524 176 501 139 q 547 263 547 213 q 525 351 547 314 q 465 413 503 389 q 381 449 429 438 q 283 463 333 461 l 203 463 l 203 572 l 278 572 q 362 581 319 572 q 438 611 404 590 q 492 665 471 632 q 513 747 513 699 q 453 872 513 833 q 319 910 394 910 q 216 894 269 908 q 125 858 163 881 l 79 953 q 200 1001 132 983 q 335 1019 268 1019 q 456 1004 397 1019 q 558 957 514 989 q 631 876 604 925 q 658 760 658 828 q 603 607 658 668 q 467 518 549 546 z "},"4":{"ha":772,"x_min":28,"x_max":739,"o":"m 739 179 l 615 179 l 615 -22 l 476 -22 l 476 179 l 28 179 l 28 296 l 413 996 l 615 996 l 615 286 l 739 286 l 739 179 m 476 286 l 476 876 l 158 286 l 476 286 z "},"5":{"ha":772,"x_min":72,"x_max":690,"o":"m 382 617 q 497 596 442 617 q 596 535 553 575 q 664 439 638 496 q 690 310 690 382 q 663 167 690 232 q 585 56 635 103 q 468 -16 536 10 q 321 -42 400 -42 q 188 -25 254 -42 q 72 25 122 -8 l 111 122 q 208 83 153 97 q 313 69 263 69 q 397 85 356 69 q 471 129 438 100 q 523 200 503 158 q 543 293 543 242 q 476 458 543 403 q 314 513 410 513 q 211 501 261 513 q 124 475 161 489 l 133 996 l 664 996 l 664 889 l 264 889 l 258 603 q 314 613 279 608 q 382 617 349 617 z "},"6":{"ha":772,"x_min":74,"x_max":706,"o":"m 418 628 q 540 602 486 628 q 631 532 594 576 q 686 430 667 489 q 706 304 706 371 q 683 164 706 228 q 618 53 660 100 q 519 -19 576 7 q 393 -44 461 -44 q 232 -1 294 -44 q 135 115 169 43 q 86 278 99 188 q 74 460 74 368 q 91 659 74 560 q 154 836 108 758 q 274 965 199 915 q 465 1014 350 1014 q 575 1000 521 1014 q 672 963 629 986 l 635 865 q 558 894 597 885 q 474 904 519 904 q 352 872 403 904 q 268 785 301 839 q 220 661 236 731 q 204 517 204 592 q 301 599 244 569 q 418 628 358 628 m 390 63 q 465 83 433 63 q 518 138 497 104 q 549 212 539 171 q 560 294 560 253 q 549 372 560 332 q 519 444 539 413 q 468 499 499 478 q 396 521 438 521 q 319 501 351 521 q 264 450 286 482 q 232 378 243 418 q 221 294 221 338 q 231 215 221 256 q 261 140 240 174 q 314 84 282 106 q 390 63 346 63 z "},"7":{"ha":772,"x_min":93,"x_max":679,"o":"m 679 876 l 326 -22 l 174 -22 l 546 888 l 93 888 l 93 996 l 679 996 l 679 876 z "},"8":{"ha":772,"x_min":51,"x_max":721,"o":"m 519 515 q 670 402 619 476 q 721 244 721 328 q 698 131 721 183 q 632 39 675 78 q 526 -24 589 -1 q 385 -46 464 -46 q 243 -23 306 -46 q 139 40 181 0 q 74 132 96 79 q 51 244 51 185 q 99 400 51 326 q 249 515 146 474 q 126 615 165 553 q 86 750 86 676 q 108 860 86 810 q 171 946 131 910 q 265 1001 211 981 q 385 1021 319 1021 q 503 1001 449 1021 q 600 946 558 981 q 663 860 640 910 q 686 750 686 810 q 644 614 686 675 q 519 515 603 553 m 385 576 q 457 592 426 576 q 507 631 488 607 q 536 686 526 656 q 546 749 546 717 q 535 806 546 776 q 504 861 525 836 q 454 902 485 886 q 385 918 424 918 q 315 901 344 918 q 265 860 285 885 q 236 805 246 835 q 226 749 226 775 q 237 688 226 718 q 268 632 247 657 q 318 592 289 607 q 385 576 347 576 m 385 64 q 518 122 468 64 q 568 263 568 179 q 553 336 568 300 q 515 400 539 372 q 457 445 490 428 q 385 463 424 463 q 313 446 346 463 q 256 401 279 429 q 217 338 231 375 q 203 263 203 301 q 216 186 203 222 q 253 124 229 150 q 310 80 276 96 q 385 64 343 64 z "},"9":{"ha":772,"x_min":71,"x_max":699,"o":"m 376 1014 q 538 967 475 1014 q 636 847 601 921 q 685 686 672 775 q 699 514 699 597 q 676 306 697 406 q 608 128 656 206 q 487 5 563 51 q 303 -40 411 -42 q 197 -28 250 -42 q 103 14 144 -14 l 125 113 q 206 81 160 92 q 293 69 251 69 q 410 101 360 69 q 496 185 461 133 q 548 305 531 238 q 568 443 565 372 q 468 372 525 396 q 351 347 411 347 q 233 372 285 347 q 144 442 181 397 q 90 544 108 485 q 71 669 71 603 q 92 808 71 744 q 154 917 114 871 q 250 988 193 963 q 376 1014 307 1014 m 376 456 q 452 474 419 456 q 507 522 485 492 q 540 592 528 553 q 551 676 551 632 q 541 754 551 714 q 510 829 531 794 q 458 886 489 864 q 383 908 426 908 q 307 888 339 908 q 256 833 275 867 q 226 760 235 801 q 217 679 217 719 q 226 597 217 638 q 254 525 235 557 q 303 475 274 494 q 376 456 333 456 z "}," ":{"ha":417,"x_min":0,"x_max":0,"o":""},"!":{"ha":540,"x_min":190,"x_max":351,"o":"m 351 1026 l 328 285 l 213 285 l 190 1026 l 351 1026 m 347 -35 l 194 -35 l 194 126 l 347 126 l 347 -35 z "},"\"":{"ha":668,"x_min":142,"x_max":528,"o":"m 528 1067 l 513 754 l 392 754 l 376 1067 l 528 1067 m 293 1067 l 278 754 l 156 754 l 142 1067 l 293 1067 z "},"#":{"ha":772,"x_min":51,"x_max":718,"o":"m 283 358 l 450 358 l 493 671 l 325 671 l 283 358 m 671 257 l 557 257 l 519 -22 l 400 -22 l 438 257 l 269 257 l 233 -22 l 114 -22 l 150 257 l 51 257 l 51 358 l 164 358 l 206 671 l 99 671 l 99 772 l 219 772 l 249 996 l 368 996 l 339 772 l 507 772 l 536 996 l 656 996 l 626 772 l 718 772 l 718 671 l 613 671 l 569 358 l 671 358 l 671 257 z "},"$":{"ha":772,"x_min":79,"x_max":685,"o":"m 438 564 q 525 516 481 542 q 604 454 569 490 q 663 372 640 419 q 685 261 685 325 q 617 68 685 139 q 438 -28 549 -3 l 438 -124 l 349 -124 l 349 -39 q 338 -40 343 -39 q 328 -40 332 -40 q 317 -40 322 -40 q 308 -40 313 -40 q 188 -27 246 -40 q 79 6 129 -14 l 92 135 q 190 96 128 115 q 319 76 253 76 q 326 76 324 76 q 332 75 329 75 q 338 76 335 75 q 349 78 342 76 l 349 443 q 260 488 304 464 q 181 546 215 513 q 123 624 144 579 q 101 731 101 668 q 172 918 101 847 q 349 1008 242 989 l 349 1107 l 438 1107 l 438 1014 q 549 1001 488 1010 q 646 981 610 992 l 633 857 q 542 888 586 878 q 438 899 499 897 l 438 564 m 349 885 q 276 833 303 865 q 249 744 249 800 q 274 669 249 700 q 349 610 299 639 l 349 885 m 438 106 q 509 166 483 131 q 535 251 535 201 q 510 334 535 301 q 438 399 485 367 l 438 106 z "},"%":{"ha":1278,"x_min":51,"x_max":1221,"o":"m 968 499 q 1084 477 1036 499 q 1163 418 1132 456 q 1207 332 1193 382 q 1221 226 1221 282 q 1207 120 1221 169 q 1163 36 1193 71 q 1084 -20 1132 0 q 968 -40 1036 -40 q 778 38 839 -40 q 717 232 717 117 q 778 422 717 346 q 968 499 839 499 m 968 44 q 1024 64 1003 44 q 1057 111 1046 83 q 1072 173 1068 140 q 1075 232 1075 206 q 1072 289 1075 257 q 1057 349 1068 321 q 1024 395 1046 376 q 968 414 1003 414 q 913 395 933 414 q 881 349 892 376 q 865 287 868 319 q 861 226 861 254 q 865 165 861 197 q 881 106 868 132 q 913 62 892 79 q 968 44 933 44 m 983 1014 l 417 -40 l 296 -40 l 864 1014 l 983 1014 m 304 1014 q 420 992 372 1014 q 499 933 468 971 q 542 847 528 897 q 556 742 556 797 q 542 635 556 683 q 499 550 528 586 q 420 494 468 514 q 304 474 372 474 q 192 494 239 474 q 113 553 144 515 q 67 639 82 589 q 51 747 51 689 q 113 937 51 860 q 304 1014 175 1014 m 304 558 q 360 578 339 558 q 393 625 382 597 q 408 687 404 654 q 411 747 411 719 q 408 803 411 772 q 393 863 404 835 q 360 910 382 890 q 304 929 339 929 q 249 910 269 929 q 217 864 228 892 q 201 803 204 836 q 197 742 197 771 q 201 680 197 713 q 217 621 204 647 q 249 576 228 593 q 304 558 269 558 z "},"&":{"ha":1003,"x_min":92,"x_max":949,"o":"m 949 -22 l 774 -22 l 692 75 q 565 -13 638 14 q 408 -40 492 -40 q 178 37 265 -40 q 92 243 92 114 q 147 419 92 347 q 314 539 203 492 q 272 592 293 565 q 235 650 251 619 q 208 712 218 679 q 197 781 197 744 q 218 881 197 838 q 275 954 239 925 q 358 999 311 983 q 457 1014 404 1014 q 548 999 504 1014 q 626 957 592 985 q 681 886 660 929 q 701 788 701 843 q 683 700 701 740 q 635 625 664 660 q 565 564 604 592 q 486 517 526 536 l 696 261 q 749 374 732 310 q 772 518 767 439 l 899 518 q 858 322 890 415 q 782 168 826 229 l 949 -22 m 422 592 q 474 623 447 604 q 522 667 501 642 q 559 718 544 690 q 574 779 574 746 q 538 882 574 849 q 453 915 503 915 q 367 878 403 915 q 332 775 332 842 q 340 725 332 750 q 363 676 349 700 q 392 631 376 653 q 422 592 407 610 m 619 158 l 378 458 q 275 372 314 417 q 236 253 236 326 q 251 174 236 210 q 294 114 267 139 q 356 75 321 89 q 428 61 390 61 q 540 91 494 61 q 619 158 585 121 z "},"'":{"ha":386,"x_min":117,"x_max":269,"o":"m 269 1060 l 254 747 l 132 747 l 117 1060 l 269 1060 z "},"(":{"ha":463,"x_min":86,"x_max":433,"o":"m 433 -201 l 310 -201 q 140 99 194 -54 q 86 431 86 251 q 140 763 86 615 q 310 1061 193 911 l 433 1061 q 279 764 331 911 q 228 431 228 617 q 278 97 228 247 q 433 -201 329 -54 z "},")":{"ha":463,"x_min":29,"x_max":376,"o":"m 29 -201 q 183 97 132 -54 q 235 431 235 247 q 183 764 235 617 q 29 1061 131 911 l 153 1061 q 322 763 268 911 q 376 431 376 615 q 322 99 376 251 q 153 -201 267 -54 l 29 -201 z "},"*":{"ha":694,"x_min":42,"x_max":656,"o":"m 656 746 l 415 696 l 581 501 l 472 425 l 349 642 l 222 425 l 114 501 l 285 696 l 42 746 l 79 872 l 311 776 l 288 1022 l 417 1022 l 393 778 l 619 872 l 656 746 z "},"+":{"ha":833,"x_min":71,"x_max":763,"o":"m 763 450 l 478 450 l 478 149 l 356 149 l 356 450 l 71 450 l 71 563 l 356 563 l 356 861 l 478 861 l 478 563 l 763 563 l 763 450 z "},",":{"ha":386,"x_min":53,"x_max":290,"o":"m 290 113 l 175 -224 l 53 -224 l 136 113 l 290 113 z "},"-":{"ha":625,"x_min":74,"x_max":551,"o":"m 551 447 l 74 447 l 74 563 l 551 563 l 551 447 z "},".":{"ha":386,"x_min":117,"x_max":269,"o":"m 269 -64 l 117 -64 l 117 103 l 269 103 l 269 -64 z "},"/":{"ha":625,"x_min":78,"x_max":547,"o":"m 547 1029 l 207 -97 l 78 -97 l 418 1029 l 547 1029 z "},":":{"ha":386,"x_min":117,"x_max":269,"o":"m 269 643 l 117 643 l 117 811 l 269 811 l 269 643 m 269 -3 l 117 -3 l 117 165 l 269 165 l 269 -3 z "},";":{"ha":386,"x_min":50,"x_max":288,"o":"m 269 646 l 118 646 l 118 813 l 269 813 l 269 646 m 288 172 l 174 -164 l 50 -164 l 135 172 l 288 172 z "},"<":{"ha":750,"x_min":81,"x_max":660,"o":"m 660 36 l 81 456 l 81 558 l 660 976 l 660 828 l 201 507 l 660 185 l 660 36 z "},"=":{"ha":750,"x_min":88,"x_max":663,"o":"m 663 610 l 88 610 l 88 724 l 663 724 l 663 610 m 663 290 l 88 290 l 88 407 l 663 407 l 663 290 z "},">":{"ha":750,"x_min":76,"x_max":656,"o":"m 656 456 l 76 36 l 76 185 l 535 507 l 76 828 l 76 976 l 656 558 l 656 456 z "},"?":{"ha":694,"x_min":74,"x_max":636,"o":"m 336 1015 q 446 999 392 1015 q 542 951 500 983 q 610 872 585 919 q 636 763 636 825 q 622 679 636 717 q 586 607 608 642 q 536 541 564 574 q 481 474 508 508 q 428 394 446 431 q 410 311 410 357 l 410 250 l 281 250 l 281 314 q 308 434 281 381 q 369 532 335 488 q 408 578 388 554 q 447 628 429 601 q 476 683 464 653 q 488 749 488 713 q 433 864 488 828 q 314 900 379 900 q 201 876 254 900 q 111 819 147 853 l 74 924 q 189 990 121 964 q 336 1015 257 1015 m 422 -69 l 269 -69 l 269 99 l 422 99 l 422 -69 z "},"@":{"ha":1111,"x_min":68,"x_max":1043,"o":"m 581 1014 q 753 985 669 1014 q 901 901 836 956 q 1004 769 965 847 q 1043 594 1043 692 q 1007 417 1043 492 q 921 296 971 343 q 813 225 869 247 q 713 203 756 203 q 666 223 683 203 q 647 285 649 243 q 572 226 621 247 q 481 206 522 206 q 401 222 438 206 q 336 268 364 239 q 293 339 308 299 q 278 426 278 379 q 299 556 278 493 q 357 667 319 618 q 449 744 396 714 q 567 774 501 774 q 664 745 617 774 q 733 672 711 717 l 753 756 l 849 756 l 760 404 q 752 332 750 365 q 779 299 754 299 q 841 319 810 299 q 899 376 872 339 q 940 465 924 414 q 957 578 957 517 q 926 731 957 665 q 842 838 894 796 q 722 902 790 881 q 579 924 653 924 q 415 890 489 924 q 288 799 340 856 q 204 665 233 742 q 175 500 175 588 q 206 320 175 399 q 290 189 236 242 q 419 107 344 135 q 581 79 493 79 q 749 108 672 79 q 885 197 825 138 l 985 197 q 813 45 922 101 q 576 -11 704 -11 q 381 22 474 -11 q 219 121 289 56 q 108 281 149 186 q 68 501 68 376 q 108 708 68 614 q 217 871 147 803 q 379 976 286 939 q 581 1014 472 1014 m 513 307 q 584 328 551 307 q 642 385 617 350 q 679 460 665 418 q 693 542 693 501 q 660 633 693 596 q 578 671 626 671 q 502 650 536 671 q 443 596 468 629 q 406 524 419 564 q 393 446 393 483 q 424 346 393 385 q 513 307 456 307 z "},"A":{"ha":1003,"x_min":25,"x_max":978,"o":"m 978 -22 l 821 -22 l 721 253 l 274 253 l 171 -22 l 25 -22 l 425 996 l 581 996 l 978 -22 m 682 361 l 499 872 l 313 361 l 682 361 z "},"B":{"ha":849,"x_min":131,"x_max":794,"o":"m 558 513 q 728 425 663 490 q 794 258 794 360 q 764 124 794 178 q 683 38 733 71 q 568 -8 633 6 q 432 -22 503 -22 l 131 -22 l 131 996 l 411 996 q 537 981 478 996 q 640 936 596 967 q 709 856 683 904 q 736 739 735 807 q 690 597 736 651 q 558 513 643 542 m 369 563 q 447 568 407 563 q 521 590 488 574 q 576 640 554 608 q 597 725 597 672 q 579 802 597 771 q 533 853 561 833 q 470 879 504 871 q 404 888 436 888 l 271 888 l 271 563 l 369 563 m 410 86 q 499 94 456 86 q 574 125 542 103 q 627 181 607 146 q 647 268 647 215 q 624 365 647 328 q 565 421 601 401 q 484 449 529 442 q 394 456 439 456 l 271 456 l 271 86 l 410 86 z "},"C":{"ha":849,"x_min":78,"x_max":828,"o":"m 797 118 l 828 8 q 721 -27 782 -14 q 593 -40 660 -40 q 382 -3 476 -40 q 219 101 288 33 q 115 267 151 169 q 78 486 78 365 q 115 700 78 603 q 221 867 153 797 q 383 975 289 936 q 593 1014 478 1014 q 715 999 657 1014 q 817 960 774 985 l 779 853 q 697 887 742 875 q 597 899 651 899 q 444 866 513 899 q 326 776 375 833 q 252 646 278 721 q 226 486 226 571 q 254 322 226 397 q 332 193 282 247 q 449 107 382 138 q 593 76 515 76 q 704 86 653 76 q 797 118 756 96 z "},"D":{"ha":1003,"x_min":129,"x_max":921,"o":"m 406 996 q 613 963 518 996 q 775 867 707 931 q 883 710 844 804 q 921 493 921 615 q 884 265 921 361 q 781 104 847 168 q 617 9 713 40 q 406 -22 522 -22 l 129 -22 l 129 996 l 406 996 m 415 93 q 676 197 579 93 q 772 489 772 301 q 745 650 772 578 q 672 774 718 722 q 562 852 625 824 q 426 881 499 881 l 269 881 l 269 93 l 415 93 z "},"E":{"ha":772,"x_min":131,"x_max":674,"o":"m 674 -22 l 131 -22 l 131 996 l 674 996 l 674 881 l 271 881 l 271 564 l 642 564 l 642 446 l 271 446 l 271 93 l 674 93 l 674 -22 z "},"F":{"ha":694,"x_min":131,"x_max":643,"o":"m 643 881 l 271 881 l 271 564 l 626 564 l 626 446 l 271 446 l 271 -22 l 131 -22 l 131 996 l 643 996 l 643 881 z "},"G":{"ha":1003,"x_min":81,"x_max":892,"o":"m 892 539 l 892 3 q 769 -27 842 -14 q 596 -40 696 -40 q 384 -4 479 -40 q 221 100 289 32 q 117 264 154 167 q 81 482 81 361 q 118 697 81 599 q 224 865 156 794 q 387 974 292 935 q 597 1014 482 1014 q 764 997 693 1014 q 892 951 835 981 l 850 844 q 740 884 801 869 q 607 899 679 899 q 450 865 519 899 q 331 775 381 832 q 256 642 282 718 q 229 482 229 567 q 257 319 229 394 q 333 190 285 244 q 450 106 383 136 q 596 75 517 75 q 653 76 629 75 q 696 81 678 78 q 726 87 713 83 q 754 93 740 90 l 754 422 l 535 422 l 535 539 l 892 539 z "},"H":{"ha":1003,"x_min":129,"x_max":874,"o":"m 874 -22 l 733 -22 l 733 446 l 269 446 l 269 -22 l 129 -22 l 129 996 l 269 996 l 269 564 l 733 564 l 733 996 l 874 996 l 874 -22 z "},"I":{"ha":419,"x_min":140,"x_max":279,"o":"m 279 -22 l 140 -22 l 140 996 l 279 996 l 279 -22 z "},"J":{"ha":540,"x_min":36,"x_max":415,"o":"m 415 996 l 415 222 q 344 28 415 96 q 150 -40 274 -40 q 87 -35 121 -40 q 36 -24 53 -29 l 36 96 q 72 85 53 89 q 117 81 92 81 q 239 128 203 81 q 275 283 275 175 l 275 996 l 415 996 z "},"K":{"ha":926,"x_min":129,"x_max":888,"o":"m 888 -22 l 703 -22 l 369 449 l 269 338 l 269 -22 l 129 -22 l 129 996 l 269 996 l 269 529 l 676 996 l 854 996 l 461 551 l 888 -22 z "},"L":{"ha":694,"x_min":131,"x_max":674,"o":"m 674 -22 l 131 -22 l 131 996 l 271 996 l 271 93 l 674 93 l 674 -22 z "},"M":{"ha":1256,"x_min":124,"x_max":1133,"o":"m 1133 -22 l 994 -22 l 994 879 l 699 -22 l 558 -22 l 263 894 l 263 -22 l 124 -22 l 124 996 l 353 996 l 632 129 l 906 996 l 1133 996 l 1133 -22 z "},"N":{"ha":1022,"x_min":129,"x_max":893,"o":"m 893 -22 l 693 -22 l 265 850 l 265 -22 l 129 -22 l 129 996 l 331 996 l 756 124 l 756 996 l 893 996 l 893 -22 z "},"O":{"ha":1081,"x_min":76,"x_max":1004,"o":"m 540 1014 q 737 973 650 1014 q 882 861 824 932 q 973 694 942 790 q 1004 488 1004 597 q 973 278 1004 375 q 883 111 942 182 q 738 0 824 40 q 540 -40 651 -40 q 341 -1 428 -40 q 196 110 254 39 q 106 277 136 181 q 76 488 76 374 q 107 694 76 599 q 196 861 138 790 q 342 973 256 932 q 540 1014 428 1014 m 540 75 q 683 111 624 75 q 782 206 743 147 q 838 338 819 264 q 856 488 856 411 q 836 638 856 564 q 778 769 817 711 q 680 863 739 826 q 540 899 621 899 q 399 863 458 899 q 301 769 340 826 q 244 638 263 711 q 225 488 225 564 q 242 338 225 411 q 297 206 260 264 q 396 111 336 147 q 540 75 456 75 z "},"P":{"ha":844,"x_min":131,"x_max":799,"o":"m 426 996 q 567 981 500 996 q 686 931 635 965 q 768 841 738 897 q 799 703 799 785 q 769 565 799 621 q 693 472 740 508 q 581 422 644 438 q 449 406 518 406 l 271 406 l 271 -22 l 131 -22 l 131 996 l 426 996 m 447 519 q 521 528 485 519 q 585 558 557 538 q 631 614 614 579 q 649 701 649 649 q 585 840 649 800 q 433 881 522 881 l 271 881 l 271 519 l 447 519 z "},"Q":{"ha":1081,"x_min":76,"x_max":1004,"o":"m 782 26 l 939 -183 l 771 -183 l 658 -26 q 602 -37 632 -35 q 540 -40 572 -40 q 341 -1 428 -40 q 196 110 254 39 q 106 277 136 181 q 76 488 76 374 q 107 694 76 599 q 196 861 138 790 q 342 973 256 932 q 540 1014 428 1014 q 737 973 650 1014 q 882 861 824 932 q 973 694 942 790 q 1004 488 1004 597 q 947 212 1004 333 q 782 26 890 90 m 706 128 q 820 282 785 182 q 856 488 856 382 q 836 638 856 564 q 778 769 817 711 q 680 863 739 826 q 540 899 621 899 q 399 863 458 899 q 301 769 340 826 q 244 638 263 711 q 225 488 225 564 q 242 338 225 411 q 297 206 260 264 q 396 111 336 147 q 540 75 456 75 q 563 76 551 75 q 583 79 574 76 l 404 329 l 556 329 l 706 128 z "},"R":{"ha":849,"x_min":131,"x_max":818,"o":"m 818 -22 l 658 -22 l 521 317 q 467 394 500 368 q 388 421 433 421 l 271 421 l 271 -22 l 131 -22 l 131 996 l 369 996 q 519 985 449 996 q 642 944 589 974 q 726 863 694 915 q 757 726 757 810 q 697 565 757 635 q 540 475 636 494 q 611 422 582 458 q 657 347 640 385 l 818 -22 m 367 538 q 540 580 471 538 q 608 713 608 622 q 552 838 608 796 q 397 881 496 881 l 271 881 l 271 538 l 367 538 z "},"S":{"ha":772,"x_min":78,"x_max":685,"o":"m 469 546 q 549 501 510 525 q 617 443 588 476 q 666 364 647 408 q 685 261 685 319 q 656 125 685 182 q 578 31 628 68 q 460 -23 528 -6 q 315 -40 393 -40 q 185 -16 250 -40 q 78 46 119 8 l 119 147 q 213 95 158 114 q 321 76 267 76 q 390 86 353 76 q 460 118 428 96 q 513 172 492 139 q 535 251 535 206 q 515 326 535 294 q 465 382 496 357 q 394 425 433 406 q 314 464 354 444 q 235 505 274 482 q 167 558 197 528 q 119 632 138 590 q 101 731 101 674 q 128 852 101 799 q 200 940 154 906 q 304 995 244 976 q 429 1014 364 1014 q 550 1001 489 1014 q 657 963 611 988 l 625 857 q 538 889 583 878 q 436 900 492 900 q 373 892 406 900 q 313 864 340 883 q 267 816 285 846 q 250 743 250 786 q 269 676 250 704 q 318 625 288 647 q 389 584 350 603 q 469 546 428 565 z "},"T":{"ha":772,"x_min":22,"x_max":750,"o":"m 750 882 l 456 882 l 456 -22 l 317 -22 l 317 882 l 22 882 l 22 996 l 750 996 l 750 882 z "},"U":{"ha":1003,"x_min":124,"x_max":879,"o":"m 879 996 l 879 372 q 781 63 879 165 q 501 -40 682 -40 q 222 63 319 -40 q 124 372 124 165 l 124 996 l 264 996 l 264 401 q 276 268 264 328 q 315 165 288 208 q 389 100 343 124 q 501 76 435 76 q 613 100 568 76 q 686 165 658 124 q 726 268 714 208 q 739 401 739 328 l 739 996 l 879 996 z "},"V":{"ha":926,"x_min":31,"x_max":894,"o":"m 750 996 l 894 996 q 808 738 850 865 q 722 486 765 611 q 638 233 681 360 q 554 -22 596 107 l 369 -22 q 201 485 283 236 q 31 996 118 735 l 186 996 q 254 773 219 885 q 324 549 289 661 q 394 324 358 436 q 467 100 429 211 q 537 322 501 210 q 608 547 572 435 q 678 772 643 660 q 750 996 714 885 z "},"W":{"ha":1306,"x_min":31,"x_max":1275,"o":"m 1275 996 l 1035 -22 l 844 -22 l 654 899 l 458 -22 l 267 -22 l 31 996 l 182 996 l 367 88 l 551 996 l 758 996 l 947 86 l 1131 996 l 1275 996 z "},"X":{"ha":926,"x_min":33,"x_max":893,"o":"m 461 389 l 199 -22 l 33 -22 l 386 504 l 64 996 l 236 996 l 468 624 l 704 996 l 863 996 l 543 513 l 893 -22 l 719 -22 l 461 389 z "},"Y":{"ha":926,"x_min":39,"x_max":890,"o":"m 890 996 l 538 415 l 538 -22 l 394 -22 l 394 415 l 39 996 l 204 996 l 468 544 l 732 996 l 890 996 z "},"Z":{"ha":772,"x_min":60,"x_max":713,"o":"m 713 -22 l 60 -22 l 60 104 l 540 881 l 78 881 l 78 996 l 690 996 l 690 869 l 210 93 l 713 93 l 713 -22 z "},"[":{"ha":463,"x_min":125,"x_max":397,"o":"m 397 -206 l 125 -206 l 125 1064 l 397 1064 l 397 964 l 258 964 l 258 -106 l 397 -106 l 397 -206 z "},"\\":{"ha":625,"x_min":78,"x_max":546,"o":"m 546 -110 l 418 -110 l 78 1017 l 207 1017 l 546 -110 z "},"]":{"ha":463,"x_min":65,"x_max":338,"o":"m 338 -206 l 65 -206 l 65 -106 l 204 -106 l 204 964 l 65 964 l 65 1064 l 338 1064 l 338 -206 z "},"^":{"ha":694,"x_min":60,"x_max":635,"o":"m 635 672 l 488 672 l 349 933 l 207 672 l 60 672 l 290 1038 l 404 1038 l 635 672 z "},"_":{"ha":625,"x_min":4,"x_max":621,"o":"m 621 -269 l 4 -269 l 4 -171 l 621 -171 l 621 -269 z "},"`":{"ha":386,"x_min":60,"x_max":340,"o":"m 340 825 l 231 825 l 60 1043 l 222 1043 l 340 825 z "},"a":{"ha":772,"x_min":64,"x_max":678,"o":"m 678 -26 l 550 -26 q 547 -3 549 -15 q 546 19 546 8 q 544 41 544 31 q 543 63 543 51 q 451 -13 510 18 q 317 -44 392 -44 q 131 12 199 -44 q 64 186 64 68 q 92 300 64 253 q 167 376 119 347 q 273 419 213 406 q 397 433 333 433 q 465 433 432 433 q 532 432 497 432 q 492 580 532 528 q 354 632 453 632 q 244 611 296 632 q 156 557 193 590 q 135 613 144 582 q 121 669 126 644 q 240 726 169 706 q 376 746 310 746 q 597 663 529 746 q 665 428 665 581 l 665 146 q 669 49 665 100 q 678 -26 674 -3 m 535 333 l 446 333 q 376 328 418 333 q 296 310 335 324 q 230 266 257 294 q 203 190 203 238 q 245 97 203 128 q 336 65 288 65 q 488 137 442 65 q 535 333 535 208 z "},"b":{"ha":849,"x_min":108,"x_max":788,"o":"m 482 746 q 617 713 560 746 q 713 626 675 681 q 769 504 750 574 q 788 361 788 435 q 770 213 788 286 q 715 82 753 139 q 622 -10 679 25 q 483 -46 564 -46 q 336 -12 397 -46 q 239 76 275 22 l 239 -26 l 108 -26 l 108 1025 l 246 1025 l 246 628 q 342 713 285 679 q 482 746 399 746 m 449 69 q 538 97 501 69 q 597 168 574 125 q 630 260 619 211 q 640 354 640 310 q 631 449 640 400 q 599 539 621 499 q 540 606 576 579 q 450 632 503 632 q 359 606 397 632 q 296 539 321 581 q 259 449 271 499 q 247 350 247 399 q 258 255 247 304 q 293 164 268 206 q 355 96 317 122 q 449 69 393 69 z "},"c":{"ha":617,"x_min":61,"x_max":600,"o":"m 572 99 l 600 -8 q 517 -36 567 -25 q 414 -47 468 -47 q 262 -16 328 -47 q 151 69 196 15 q 84 196 107 124 q 61 350 61 268 q 85 504 61 432 q 156 629 110 576 q 265 713 200 682 q 413 744 331 744 q 505 733 458 744 q 585 704 551 721 l 551 601 q 494 622 526 614 q 426 631 461 631 q 332 606 372 631 q 264 542 292 582 q 222 452 236 503 q 208 350 208 401 q 220 249 208 299 q 258 158 232 199 q 328 93 286 118 q 433 68 371 68 q 510 76 475 68 q 572 99 546 85 z "},"d":{"ha":849,"x_min":61,"x_max":740,"o":"m 740 -25 l 610 -25 l 610 69 q 513 -12 572 19 q 367 -44 453 -44 q 226 -9 285 -44 q 132 83 168 26 q 78 215 94 142 q 61 363 61 288 q 80 506 61 436 q 136 628 99 575 q 233 715 175 682 q 368 747 290 747 q 507 716 453 747 q 603 633 561 685 l 603 1026 l 740 1026 l 740 -25 m 400 71 q 492 97 454 71 q 554 165 531 124 q 590 256 579 207 q 601 351 601 306 q 589 450 601 400 q 551 540 576 500 q 488 608 526 582 q 399 633 450 633 q 308 607 344 633 q 249 540 271 581 q 217 451 226 500 q 208 356 208 401 q 218 262 208 311 q 250 169 228 213 q 310 99 274 126 q 400 71 346 71 z "},"e":{"ha":772,"x_min":61,"x_max":713,"o":"m 711 310 l 204 310 q 223 210 204 256 q 272 133 242 165 q 346 84 304 101 q 435 67 388 67 q 547 85 493 67 q 639 132 601 103 l 681 26 q 569 -26 635 -7 q 429 -46 503 -46 q 153 64 244 -46 q 61 358 61 174 q 84 510 61 439 q 150 633 107 581 q 254 715 193 685 q 392 746 315 746 q 536 713 475 746 q 636 624 597 681 q 694 485 675 565 q 711 310 713 406 m 203 421 l 568 421 q 522 569 567 504 q 393 633 476 633 q 312 614 346 633 q 256 564 278 594 q 219 497 232 535 q 203 421 207 458 z "},"f":{"ha":540,"x_min":36,"x_max":515,"o":"m 515 1058 l 506 940 q 476 951 492 947 q 435 954 460 954 q 335 911 356 954 q 315 794 315 868 l 315 711 l 501 711 l 501 596 l 315 596 l 315 -25 l 176 -25 l 176 596 l 36 596 l 36 711 l 176 711 l 176 789 q 226 996 176 922 q 410 1069 275 1069 q 473 1065 439 1069 q 515 1058 507 1060 z "},"g":{"ha":849,"x_min":61,"x_max":740,"o":"m 740 729 l 740 50 q 658 -197 740 -110 q 379 -283 575 -283 q 249 -270 321 -283 q 107 -231 178 -257 l 117 -103 q 249 -151 181 -132 q 385 -171 317 -171 q 547 -112 497 -171 q 601 56 597 -53 l 603 114 q 498 28 560 56 q 365 0 436 0 q 232 29 289 0 q 136 108 175 58 q 80 224 99 158 q 61 363 61 290 q 80 499 61 431 q 138 622 99 568 q 234 712 175 678 q 374 746 293 746 q 515 715 456 746 q 613 625 574 685 l 613 729 l 740 729 m 401 114 q 485 133 447 114 q 549 186 522 153 q 589 265 575 219 q 603 361 603 310 q 590 465 603 415 q 553 551 578 514 q 490 611 528 589 q 403 633 453 633 q 315 609 351 633 q 254 546 278 585 q 219 460 231 508 q 208 367 208 413 q 221 272 208 318 q 257 192 233 226 q 318 135 282 156 q 401 114 354 114 z "},"h":{"ha":849,"x_min":108,"x_max":740,"o":"m 740 -25 l 603 -25 l 603 382 q 574 565 603 497 q 454 633 544 632 q 358 610 397 633 q 293 547 318 588 q 257 456 268 508 q 246 344 246 403 l 246 -25 l 108 -25 l 108 1025 l 246 1025 l 246 629 q 348 717 288 688 q 482 746 408 746 q 678 664 615 746 q 740 442 740 582 l 740 -25 z "},"i":{"ha":386,"x_min":118,"x_max":268,"o":"m 268 876 l 118 876 l 118 1039 l 268 1039 l 268 876 m 261 -25 l 124 -25 l 124 729 l 261 729 l 261 -25 z "},"j":{"ha":386,"x_min":0,"x_max":268,"o":"m 268 878 l 118 878 l 118 1039 l 268 1039 l 268 878 m 263 731 l 263 0 q 258 -106 263 -54 q 236 -196 253 -157 q 181 -258 218 -235 q 81 -282 144 -282 q 60 -281 74 -282 q 33 -279 47 -279 q 10 -277 19 -278 q 0 -276 0 -276 l 4 -158 q 26 -161 11 -160 q 53 -160 40 -162 q 108 -117 92 -156 q 124 -7 124 -78 l 124 731 l 263 731 z "},"k":{"ha":772,"x_min":108,"x_max":738,"o":"m 738 -25 l 561 -25 l 331 319 l 246 225 l 246 -25 l 108 -25 l 108 1025 l 246 1025 l 246 401 l 524 729 l 706 729 l 422 421 l 738 -25 z "},"l":{"ha":386,"x_min":124,"x_max":261,"o":"m 261 -25 l 124 -25 l 124 1025 l 261 1025 l 261 -25 z "},"m":{"ha":1235,"x_min":104,"x_max":1132,"o":"m 1132 -26 l 994 -26 l 994 435 q 990 500 994 465 q 972 564 986 535 q 934 613 958 593 q 868 632 910 632 q 783 608 818 632 q 726 546 749 583 q 695 459 704 507 q 686 364 686 411 l 686 -26 l 550 -26 l 550 435 q 545 500 550 465 q 528 564 540 535 q 489 613 514 593 q 422 632 464 632 q 336 608 371 632 q 281 546 301 583 q 251 459 260 507 q 242 364 242 411 l 242 -26 l 104 -26 l 104 728 l 232 728 l 232 626 q 338 719 281 693 q 464 744 394 744 q 581 710 526 744 q 664 601 635 675 q 771 712 703 679 q 893 744 839 744 q 1005 723 960 744 q 1079 664 1050 701 q 1119 576 1107 626 q 1132 467 1132 525 l 1132 -26 z "},"n":{"ha":849,"x_min":108,"x_max":740,"o":"m 740 -26 l 603 -26 l 603 381 q 574 564 603 496 q 454 632 544 632 q 363 609 401 632 q 297 546 324 586 q 258 454 271 507 q 246 343 246 401 l 246 -26 l 108 -26 l 108 728 l 240 728 l 240 621 q 346 714 283 683 q 482 744 408 744 q 678 663 615 744 q 740 440 740 581 l 740 -26 z "},"o":{"ha":849,"x_min":60,"x_max":789,"o":"m 424 746 q 571 715 504 746 q 686 632 638 685 q 762 507 735 579 q 789 350 789 435 q 763 199 789 271 q 689 72 736 128 q 573 -14 640 18 q 424 -46 506 -46 q 273 -14 340 -46 q 158 72 206 18 q 85 199 110 128 q 60 350 60 271 q 86 507 60 435 q 161 632 113 579 q 276 715 210 685 q 424 746 343 746 m 424 69 q 521 94 479 69 q 589 157 563 118 q 628 247 615 197 q 642 350 642 297 q 627 453 642 403 q 585 543 613 504 q 516 608 557 583 q 424 632 475 632 q 331 607 371 632 q 263 543 290 582 q 221 452 235 503 q 207 350 207 401 q 219 247 207 297 q 258 157 232 197 q 326 94 286 118 q 424 69 367 69 z "},"p":{"ha":849,"x_min":108,"x_max":788,"o":"m 483 746 q 619 713 561 746 q 714 628 676 681 q 769 505 751 574 q 788 363 788 436 q 770 214 788 288 q 717 83 753 140 q 622 -9 679 26 q 485 -44 565 -44 q 344 -17 401 -44 q 246 65 288 11 l 246 -283 l 108 -283 l 108 729 l 239 729 l 239 628 q 333 710 274 674 q 483 746 392 746 m 449 71 q 538 99 501 71 q 597 169 574 126 q 630 262 619 213 q 640 356 640 311 q 631 451 640 401 q 599 540 621 500 q 540 607 576 581 q 450 633 503 633 q 363 608 401 633 q 300 543 325 583 q 260 452 274 503 q 247 351 247 401 q 258 256 247 306 q 293 165 268 207 q 355 97 317 124 q 449 71 393 71 z "},"q":{"ha":849,"x_min":61,"x_max":740,"o":"m 740 -283 l 603 -283 l 603 64 q 497 -18 560 8 q 364 -44 435 -44 q 225 -9 282 -44 q 131 83 168 26 q 78 215 94 142 q 61 363 61 288 q 78 505 61 436 q 133 628 96 574 q 228 713 171 681 q 365 746 286 746 q 513 710 454 746 q 610 628 572 674 l 610 729 l 740 729 l 740 -283 m 400 71 q 492 97 454 71 q 554 165 531 124 q 590 256 579 207 q 601 351 601 306 q 589 450 601 400 q 551 540 576 500 q 488 608 526 582 q 399 633 450 633 q 308 607 344 633 q 249 540 271 581 q 217 451 226 500 q 208 356 208 401 q 218 262 208 311 q 250 169 228 213 q 310 99 274 126 q 400 71 346 71 z "},"r":{"ha":540,"x_min":110,"x_max":514,"o":"m 514 738 l 514 604 q 477 613 499 611 q 435 615 456 615 q 349 591 385 615 q 292 526 314 567 q 258 430 268 485 q 247 313 247 375 l 247 -26 l 110 -26 l 110 728 l 235 728 l 235 604 q 317 703 264 661 q 432 744 369 744 q 481 742 457 744 q 514 738 506 739 z "},"s":{"ha":617,"x_min":40,"x_max":557,"o":"m 389 406 q 451 370 421 389 q 506 326 482 351 q 542 268 528 301 q 557 192 557 235 q 533 86 557 131 q 471 13 510 42 q 378 -31 431 -17 q 268 -46 326 -46 q 141 -28 200 -46 q 40 22 82 -11 l 75 124 q 154 82 108 97 q 246 67 200 67 q 301 73 272 67 q 354 93 331 79 q 395 127 379 106 q 411 178 411 149 q 396 223 411 203 q 357 260 381 243 q 302 292 333 276 q 240 322 271 307 q 176 356 207 338 q 122 399 146 375 q 85 453 99 422 q 71 524 71 483 q 92 624 71 582 q 153 693 114 665 q 240 733 190 719 q 347 746 290 746 q 451 733 400 746 q 543 700 503 721 l 506 597 q 439 624 475 614 q 363 633 403 633 q 258 614 300 633 q 215 544 215 594 q 231 497 215 517 q 274 461 247 476 q 329 431 299 444 q 389 406 360 418 z "},"t":{"ha":540,"x_min":42,"x_max":510,"o":"m 507 82 l 510 -29 q 453 -42 488 -37 q 385 -46 418 -46 q 223 8 281 -46 q 165 171 165 61 l 165 610 l 42 610 l 42 722 l 165 722 l 165 882 l 304 925 l 304 722 l 492 722 l 492 610 l 304 610 l 304 201 q 333 104 304 139 q 413 69 361 69 q 467 72 443 69 q 507 82 490 75 z "},"u":{"ha":849,"x_min":108,"x_max":740,"o":"m 740 -26 l 607 -26 l 607 79 q 503 -14 567 17 q 367 -44 439 -44 q 170 37 232 -44 q 108 260 108 118 l 108 728 l 246 728 l 246 319 q 274 138 246 204 q 394 69 303 71 q 490 90 450 68 q 554 153 529 113 q 591 244 579 192 q 603 357 603 297 l 603 728 l 740 728 l 740 -26 z "},"v":{"ha":772,"x_min":31,"x_max":743,"o":"m 743 728 l 471 -26 l 306 -26 l 31 728 l 181 728 l 396 106 l 607 728 l 743 728 z "},"w":{"ha":1207,"x_min":25,"x_max":1185,"o":"m 1185 729 l 951 -25 l 789 -25 l 606 613 l 424 -25 l 261 -25 l 25 729 l 175 729 l 344 96 l 525 729 l 693 729 l 874 100 l 1050 729 l 1185 729 z "},"x":{"ha":772,"x_min":31,"x_max":740,"o":"m 382 261 l 189 -26 l 31 -26 l 311 367 l 61 728 l 232 728 l 392 476 l 558 728 l 711 728 l 463 378 l 740 -26 l 571 -26 l 382 261 z "},"y":{"ha":772,"x_min":32,"x_max":744,"o":"m 744 729 l 461 11 q 418 -94 440 -42 q 364 -189 396 -147 q 288 -258 333 -232 q 179 -283 243 -283 q 114 -276 151 -283 q 57 -261 76 -269 l 65 -150 q 109 -167 88 -162 q 160 -172 131 -172 q 221 -158 194 -172 q 267 -118 247 -143 q 299 -61 286 -93 q 321 4 313 -29 l 293 78 l 32 729 l 183 729 l 394 153 l 606 729 l 744 729 z "},"z":{"ha":694,"x_min":58,"x_max":639,"o":"m 639 0 l 58 0 l 58 118 l 451 613 l 76 613 l 76 726 l 621 726 l 621 613 l 231 113 l 639 113 l 639 0 z "},"{":{"ha":463,"x_min":42,"x_max":433,"o":"m 433 -174 l 333 -174 q 274 -162 304 -174 q 218 -129 243 -151 q 177 -74 193 -107 q 161 3 161 -42 l 161 240 q 131 360 161 322 q 42 399 100 399 l 42 488 q 131 525 100 488 q 161 640 161 563 l 161 883 q 177 960 161 926 q 219 1015 193 993 q 275 1049 244 1038 q 333 1060 306 1060 l 433 1060 l 433 967 l 371 967 q 306 931 319 967 q 293 847 293 896 l 293 618 q 260 501 293 540 q 178 444 228 463 q 260 388 228 426 q 293 261 293 349 l 293 38 q 306 -47 293 -12 q 371 -81 319 -81 l 433 -81 l 433 -174 z "},"|":{"ha":417,"x_min":143,"x_max":276,"o":"m 276 -174 l 143 -174 l 143 1058 l 276 1058 l 276 -174 z "},"}":{"ha":463,"x_min":29,"x_max":421,"o":"m 29 -174 l 29 -81 l 92 -81 q 156 -47 142 -81 q 169 38 169 -12 l 169 261 q 201 388 169 349 q 285 444 233 426 q 202 501 235 463 q 169 618 169 540 l 169 847 q 156 931 169 896 q 92 967 142 967 l 29 967 l 29 1060 l 129 1060 q 186 1049 156 1060 q 242 1015 217 1038 q 285 960 268 993 q 301 883 301 926 l 301 640 q 332 525 301 563 q 421 488 363 488 l 421 399 q 332 360 363 399 q 301 240 301 322 l 301 3 q 285 -74 301 -42 q 243 -129 268 -107 q 188 -162 218 -151 q 129 -174 157 -174 l 29 -174 z "},"~":{"ha":772,"x_min":36,"x_max":738,"o":"m 688 593 l 738 508 q 711 461 728 486 q 671 415 694 436 q 618 381 647 394 q 554 367 589 367 q 470 380 514 367 q 385 413 426 393 q 342 431 364 421 q 300 447 321 440 q 259 461 279 456 q 221 467 239 467 q 139 438 168 467 q 86 367 110 408 l 36 447 q 65 497 49 472 q 104 543 82 522 q 156 577 126 564 q 222 590 185 590 q 304 576 260 590 q 390 546 349 563 q 432 526 411 536 q 474 508 453 517 q 515 495 494 500 q 554 490 535 490 q 633 521 600 490 q 688 593 667 551 z "},"가":{"ha":1250,"x_min":54,"x_max":1254,"o":"m 1064 640 l 1254 640 l 1254 522 l 1064 522 l 1064 -171 l 921 -171 l 921 1069 l 1064 1069 l 1064 640 m 146 107 l 54 203 q 242 319 156 249 q 394 478 329 390 q 499 668 460 567 q 546 876 539 769 l 139 876 l 139 997 l 710 997 q 669 711 708 846 q 557 463 629 576 q 379 258 483 349 q 146 107 275 168 z "},"각":{"ha":1250,"x_min":36,"x_max":1253,"o":"m 1064 776 l 1253 776 l 1253 656 l 1064 656 l 1064 311 l 919 311 l 919 1071 l 1064 1071 l 1064 776 m 126 339 l 36 435 q 201 507 113 460 q 360 618 289 554 q 468 744 426 675 q 514 892 510 813 l 106 892 l 106 1008 l 681 1008 q 640 781 681 883 q 529 597 600 679 q 352 451 454 514 q 126 339 250 388 m 317 122 l 317 238 l 1064 238 l 1064 -225 l 918 -225 l 918 122 l 317 122 z "},"간":{"ha":1250,"x_min":42,"x_max":1253,"o":"m 1061 711 l 1253 711 l 1253 589 l 1061 589 l 1061 129 l 918 129 l 918 1072 l 1061 1072 l 1061 711 m 336 185 l 482 185 l 482 -93 l 1082 -93 l 1082 -211 l 336 -211 l 336 185 m 135 306 l 42 401 q 201 474 117 426 q 357 585 285 521 q 474 727 428 647 q 522 885 519 807 l 117 885 l 117 1001 l 692 1001 q 660 799 692 894 q 571 619 629 703 q 391 444 500 524 q 135 306 282 364 z "},"갇":{"ha":1250,"x_min":36,"x_max":1253,"o":"m 1064 776 l 1253 776 l 1253 656 l 1064 656 l 1064 311 l 919 311 l 919 1071 l 1064 1071 l 1064 776 m 126 339 l 36 435 q 201 507 113 460 q 360 618 289 554 q 468 744 426 675 q 514 892 510 813 l 106 892 l 106 1008 l 681 1008 q 640 781 681 883 q 529 597 600 679 q 352 451 454 514 q 126 339 250 388 m 336 247 l 1061 247 l 1061 128 l 479 128 l 479 -97 l 1082 -97 l 1082 -210 l 336 -210 l 336 247 z "},"갈":{"ha":1250,"x_min":43,"x_max":1253,"o":"m 1064 808 l 1253 808 l 1253 686 l 1064 686 l 1064 397 l 919 397 l 919 1071 l 1064 1071 l 1064 808 m 132 411 l 43 508 q 199 568 118 529 q 349 664 281 607 q 451 769 407 710 q 508 899 494 829 l 106 899 l 106 1018 l 678 1018 q 637 816 678 908 q 528 651 596 724 q 345 506 449 567 q 132 411 242 446 m 335 121 l 904 121 l 904 226 l 335 226 l 335 335 l 1060 335 l 1060 15 l 492 15 l 492 -100 l 1090 -100 l 1090 -212 l 335 -212 l 335 121 z "},"갉":{"ha":1250,"x_min":43,"x_max":1253,"o":"m 1064 808 l 1253 808 l 1253 686 l 1064 686 l 1064 397 l 919 397 l 919 1071 l 1064 1071 l 1064 808 m 132 411 l 43 508 q 199 568 118 529 q 349 664 281 607 q 451 769 407 710 q 508 899 494 829 l 106 899 l 106 1018 l 678 1018 q 637 816 678 908 q 528 651 596 724 q 345 506 449 567 q 132 411 242 446 m 721 225 l 721 333 l 1061 333 l 1061 -225 l 926 -225 l 926 225 l 721 225 m 267 119 l 521 119 l 521 226 l 267 226 l 267 335 l 658 335 l 658 13 l 408 13 l 408 -100 l 485 -100 q 601 -95 533 -100 q 728 -82 668 -90 l 728 -192 q 568 -207 657 -201 q 406 -212 479 -212 l 267 -212 l 267 119 z "},"갊":{"ha":1250,"x_min":43,"x_max":1253,"o":"m 1064 808 l 1253 808 l 1253 686 l 1064 686 l 1064 397 l 919 397 l 919 1071 l 1064 1071 l 1064 808 m 246 117 l 485 117 l 485 219 l 246 219 l 246 328 l 619 328 l 619 10 l 379 10 l 379 -100 l 444 -100 q 539 -97 482 -100 q 649 -87 596 -94 l 649 -197 q 512 -208 586 -204 q 378 -212 438 -212 l 246 -212 l 246 117 m 132 411 l 43 508 q 199 568 118 529 q 349 664 281 607 q 451 769 407 710 q 508 899 494 829 l 106 899 l 106 1018 l 678 1018 q 637 816 678 908 q 528 651 596 724 q 345 506 449 567 q 132 411 242 446 m 704 -212 l 704 328 l 1067 328 l 1067 -212 l 704 -212 m 833 226 l 833 -108 l 936 -108 l 936 226 l 833 226 z "},"감":{"ha":1250,"x_min":36,"x_max":1253,"o":"m 1064 776 l 1253 776 l 1253 656 l 1064 656 l 1064 311 l 919 311 l 919 1071 l 1064 1071 l 1064 776 m 126 339 l 36 435 q 201 507 113 460 q 360 618 289 554 q 468 744 426 675 q 514 892 510 813 l 106 892 l 106 1008 l 681 1008 q 640 781 681 883 q 529 597 600 679 q 352 451 454 514 q 126 339 250 388 m 338 -211 l 338 240 l 1060 240 l 1060 -211 l 338 -211 m 483 125 l 483 -97 l 915 -97 l 915 125 l 483 125 z "},"갑":{"ha":1250,"x_min":43,"x_max":1253,"o":"m 1064 797 l 1253 797 l 1253 675 l 1064 675 l 1064 371 l 919 371 l 919 1071 l 1064 1071 l 1064 797 m 133 383 l 43 482 q 197 548 117 506 q 343 649 276 590 q 449 764 404 700 q 508 899 494 828 l 106 899 l 106 1018 l 678 1018 q 637 815 678 908 q 528 644 596 721 q 347 490 450 556 q 133 383 244 424 m 335 304 l 481 304 l 481 165 l 914 165 l 914 304 l 1058 304 l 1058 -211 l 335 -211 l 335 304 m 914 51 l 481 51 l 481 -97 l 914 -97 l 914 51 z "},"값":{"ha":1250,"x_min":43,"x_max":1253,"o":"m 1064 797 l 1253 797 l 1253 675 l 1064 675 l 1064 371 l 919 371 l 919 1071 l 1064 1071 l 1064 797 m 133 383 l 43 482 q 197 548 117 506 q 343 649 276 590 q 449 764 404 700 q 508 899 494 828 l 106 899 l 106 1018 l 678 1018 q 637 815 678 908 q 528 644 596 721 q 347 490 450 556 q 133 383 244 424 m 243 315 l 371 315 l 371 153 l 540 153 l 540 315 l 671 315 l 671 -214 l 243 -214 l 243 315 m 371 40 l 371 -100 l 540 -100 l 540 40 l 371 40 m 756 -232 l 676 -150 q 778 -68 738 -111 q 842 21 818 -25 q 869 100 860 60 q 878 185 878 140 l 878 321 l 1011 321 l 1011 192 q 1021 97 1011 142 q 1051 8 1031 51 q 1111 -74 1072 -33 q 1208 -151 1150 -114 l 1136 -232 q 1078 -190 1107 -211 q 1026 -144 1050 -168 q 980 -91 1000 -119 q 946 -35 960 -62 q 913 -85 932 -60 q 874 -135 894 -111 q 816 -187 847 -162 q 756 -232 785 -211 z "},"갓":{"ha":1250,"x_min":42,"x_max":1253,"o":"m 1061 738 l 1253 738 l 1253 615 l 1061 615 l 1061 235 l 918 235 l 918 1072 l 1061 1072 l 1061 738 m 592 268 l 751 268 l 751 190 q 781 73 751 128 q 857 -25 810 18 q 967 -106 906 -74 q 1092 -156 1028 -139 l 1019 -249 q 914 -208 968 -236 q 811 -144 860 -181 q 728 -74 765 -111 q 674 0 692 -37 q 616 -74 653 -36 q 532 -143 579 -111 q 428 -208 482 -179 q 324 -249 374 -236 l 249 -156 q 374 -100 311 -135 q 486 -18 436 -65 q 562 76 532 24 q 592 190 592 129 l 592 268 m 135 306 l 42 401 q 201 474 117 426 q 357 585 285 521 q 474 727 428 647 q 522 885 519 807 l 117 885 l 117 1001 l 692 1001 q 660 799 692 894 q 571 619 629 703 q 391 444 500 524 q 135 306 282 364 z "},"갔":{"ha":1250,"x_min":36,"x_max":1253,"o":"m 1064 776 l 1253 776 l 1253 656 l 1064 656 l 1064 311 l 919 311 l 919 1071 l 1064 1071 l 1064 776 m 126 339 l 36 435 q 201 507 113 460 q 360 618 289 554 q 468 744 426 675 q 514 892 510 813 l 106 892 l 106 1008 l 681 1008 q 640 781 681 883 q 529 597 600 679 q 352 451 454 514 q 126 339 250 388 m 696 -240 q 624 -194 657 -219 q 564 -143 590 -168 q 519 -95 539 -119 q 489 -46 500 -71 q 455 -96 475 -71 q 410 -144 435 -121 q 347 -195 381 -171 q 274 -240 314 -219 l 194 -153 q 297 -81 253 -121 q 368 4 340 -42 q 403 91 392 43 q 415 193 415 139 l 415 257 l 558 257 l 558 197 q 572 92 558 143 q 611 -3 585 40 q 647 -52 626 -29 q 693 -96 668 -75 q 744 -48 722 -75 q 783 8 767 -21 q 819 99 807 50 q 831 197 831 147 l 831 257 l 975 257 l 975 193 q 987 90 975 139 q 1024 -1 999 40 q 1092 -84 1049 -46 q 1197 -151 1135 -122 l 1121 -240 q 1047 -197 1081 -219 q 985 -149 1013 -174 q 936 -97 957 -124 q 903 -44 915 -69 q 874 -90 893 -65 q 833 -137 856 -115 q 769 -192 804 -165 q 696 -240 733 -219 z "},"강":{"ha":1250,"x_min":42,"x_max":1253,"o":"m 1064 765 l 1253 765 l 1253 646 l 1064 646 l 1064 289 l 919 289 l 919 1071 l 1064 1071 l 1064 765 m 135 306 l 42 401 q 201 474 117 426 q 357 585 285 521 q 474 727 428 647 q 522 885 519 807 l 117 885 l 117 1001 l 692 1001 q 660 799 692 894 q 571 619 629 703 q 391 444 500 524 q 135 306 282 364 m 714 -283 q 590 -261 647 -283 q 488 -199 532 -239 q 419 -107 444 -160 q 394 7 394 -54 q 419 120 394 67 q 488 213 444 174 q 590 276 532 253 q 714 299 647 299 q 838 276 781 299 q 940 213 896 253 q 1008 120 983 174 q 1033 7 1033 67 q 1008 -107 1033 -54 q 940 -199 983 -160 q 838 -261 896 -239 q 714 -283 781 -283 m 714 179 q 587 128 639 179 q 535 7 535 78 q 584 -113 535 -64 q 708 -162 633 -162 q 837 -113 783 -162 q 890 7 890 -64 q 840 128 890 78 q 714 179 789 179 z "},"갖":{"ha":1250,"x_min":36,"x_max":1253,"o":"m 1064 788 l 1253 788 l 1253 665 l 1064 665 l 1064 347 l 919 347 l 919 1071 l 1064 1071 l 1064 788 m 126 339 l 36 435 q 201 507 113 460 q 360 618 289 554 q 468 744 426 675 q 514 892 510 813 l 106 892 l 106 1008 l 681 1008 q 640 781 681 883 q 529 597 600 679 q 352 451 454 514 q 126 339 250 388 m 621 161 l 318 161 l 318 276 l 1075 276 l 1075 161 l 772 161 q 810 51 776 101 q 894 -39 843 0 q 1008 -110 946 -81 q 1126 -156 1069 -139 l 1051 -246 q 950 -210 1001 -233 q 853 -156 899 -186 q 764 -87 804 -125 q 699 -10 724 -50 q 635 -83 674 -49 q 551 -147 596 -118 q 445 -205 500 -181 q 340 -246 390 -229 l 260 -156 q 386 -107 319 -139 q 508 -29 453 -75 q 587 56 556 8 q 621 161 618 104 z "},"갗":{"ha":1250,"x_min":36,"x_max":1253,"o":"m 1064 797 l 1253 797 l 1253 675 l 1064 675 l 1064 371 l 919 371 l 919 1071 l 1064 1071 l 1064 797 m 126 339 l 36 435 q 201 507 113 460 q 360 618 289 554 q 468 744 426 675 q 514 892 510 813 l 106 892 l 106 1008 l 681 1008 q 640 781 681 883 q 529 597 600 679 q 352 451 454 514 q 126 339 250 388 m 603 246 l 603 415 l 747 415 l 747 246 l 1058 246 l 1058 128 l 758 128 q 883 -51 789 28 q 1101 -162 976 -131 l 1039 -256 q 931 -218 985 -243 q 829 -160 878 -193 q 743 -88 782 -128 q 679 -6 704 -49 q 611 -88 651 -49 q 522 -160 571 -128 q 422 -218 474 -193 q 321 -256 369 -243 l 247 -162 q 465 -53 369 -131 q 593 128 560 24 l 301 128 l 301 246 l 603 246 z "},"같":{"ha":1250,"x_min":43,"x_max":1253,"o":"m 1064 808 l 1253 808 l 1253 686 l 1064 686 l 1064 397 l 919 397 l 919 1071 l 1064 1071 l 1064 808 m 132 411 l 43 508 q 199 568 118 529 q 349 664 281 607 q 451 769 407 710 q 508 899 494 829 l 106 899 l 106 1018 l 678 1018 q 637 816 678 908 q 528 651 596 724 q 345 506 449 567 q 132 411 242 446 m 338 335 l 1064 335 l 1064 226 l 493 226 l 493 121 l 1058 121 l 1058 15 l 494 15 l 494 -100 l 1093 -100 l 1093 -212 l 338 -212 l 338 335 z "},"갚":{"ha":1250,"x_min":36,"x_max":1253,"o":"m 1064 776 l 1253 776 l 1253 656 l 1064 656 l 1064 311 l 919 311 l 919 1071 l 1064 1071 l 1064 776 m 126 339 l 36 435 q 201 507 113 460 q 360 618 289 554 q 468 744 426 675 q 514 892 510 813 l 106 892 l 106 1008 l 681 1008 q 640 781 681 883 q 529 597 600 679 q 352 451 454 514 q 126 339 250 388 m 931 144 l 929 -97 l 1088 -97 l 1088 -211 l 286 -211 l 286 -97 l 444 -97 l 442 144 l 303 144 l 303 261 l 1069 261 l 1069 144 l 931 144 m 799 144 l 575 144 l 579 -97 l 797 -97 l 799 144 z "},"갛":{"ha":1250,"x_min":36,"x_max":1253,"o":"m 1064 797 l 1253 797 l 1253 675 l 1064 675 l 1064 371 l 919 371 l 919 1071 l 1064 1071 l 1064 797 m 126 339 l 36 435 q 201 507 113 460 q 360 618 289 554 q 468 744 426 675 q 514 892 510 813 l 106 892 l 106 1008 l 681 1008 q 640 781 681 883 q 529 597 600 679 q 352 451 454 514 q 126 339 250 388 m 899 160 q 965 81 939 133 q 992 -17 992 29 q 968 -117 992 -71 q 903 -197 944 -162 q 805 -250 861 -231 q 685 -269 749 -269 q 563 -250 619 -269 q 467 -197 507 -231 q 402 -117 425 -162 q 379 -17 379 -71 q 405 81 379 29 q 469 160 431 133 l 265 160 l 265 271 l 613 271 l 613 425 l 758 425 l 758 271 l 1094 271 l 1094 160 l 899 160 m 685 146 q 569 100 614 144 q 525 -7 525 56 q 571 -117 525 -74 q 685 -160 617 -161 q 799 -118 751 -161 q 846 -7 846 -75 q 799 100 846 56 q 685 146 751 144 z "},"개":{"ha":1250,"x_min":42,"x_max":1136,"o":"m 996 664 l 996 1069 l 1136 1069 l 1136 -171 l 996 -171 l 996 531 l 843 531 l 843 -124 l 707 -124 l 707 1050 l 843 1050 l 843 664 l 996 664 m 136 111 l 42 192 q 200 326 129 249 q 322 494 271 404 q 403 683 374 585 q 440 882 433 782 l 107 882 l 107 1000 l 589 1000 q 558 728 589 858 q 468 485 526 597 q 326 276 410 371 q 136 111 242 182 z "},"객":{"ha":1250,"x_min":33,"x_max":1136,"o":"m 992 761 l 992 1069 l 1136 1069 l 1136 299 l 992 299 l 992 636 l 836 636 l 836 299 l 701 299 l 701 1056 l 836 1056 l 836 761 l 992 761 m 122 319 l 33 408 q 187 505 113 447 q 314 638 261 563 q 376 758 351 692 q 403 897 401 824 l 100 897 l 100 1015 l 558 1015 q 540 827 558 917 q 481 658 522 738 q 344 478 432 563 q 122 319 257 394 m 368 113 l 368 228 l 1129 228 l 1129 -225 l 983 -225 l 983 113 l 368 113 z "},"갠":{"ha":1250,"x_min":33,"x_max":1150,"o":"m 996 746 l 996 1069 l 1136 1069 l 1136 165 l 996 165 l 996 619 l 839 619 l 839 197 l 703 197 l 703 1054 l 839 1054 l 839 746 l 996 746 m 129 304 l 33 385 q 184 488 113 426 q 310 624 256 550 q 376 748 350 678 q 403 892 401 818 l 100 892 l 100 1010 l 558 1010 q 538 822 558 914 q 475 646 518 729 q 339 464 424 550 q 129 304 254 378 m 390 199 l 535 199 l 535 -93 l 1150 -93 l 1150 -211 l 390 -211 l 390 199 z "},"갤":{"ha":1250,"x_min":33,"x_max":1154,"o":"m 992 800 l 992 1069 l 1136 1069 l 1136 394 l 992 394 l 992 674 l 836 674 l 836 394 l 701 394 l 701 1056 l 836 1056 l 836 800 l 992 800 m 126 361 l 33 442 q 185 544 115 488 q 303 665 254 601 q 374 784 349 724 q 403 897 400 844 l 100 897 l 100 1015 l 558 1015 q 528 815 558 907 q 444 646 497 724 q 304 487 386 558 q 126 361 222 415 m 386 121 l 971 121 l 971 226 l 386 226 l 386 335 l 1126 335 l 1126 15 l 543 15 l 543 -100 l 1154 -100 l 1154 -212 l 386 -212 l 386 121 z "},"갬":{"ha":1250,"x_min":33,"x_max":1136,"o":"m 992 761 l 992 1069 l 1136 1069 l 1136 299 l 992 299 l 992 636 l 836 636 l 836 299 l 701 299 l 701 1056 l 836 1056 l 836 761 l 992 761 m 122 319 l 33 408 q 187 505 113 447 q 314 638 261 563 q 376 758 351 692 q 403 897 401 824 l 100 897 l 100 1015 l 558 1015 q 540 827 558 917 q 481 658 522 738 q 344 478 432 563 q 122 319 257 394 m 386 239 l 1124 239 l 1124 -211 l 386 -211 l 386 239 m 532 124 l 532 -97 l 978 -97 l 978 124 l 532 124 z "},"갭":{"ha":1250,"x_min":33,"x_max":1136,"o":"m 992 800 l 992 1069 l 1136 1069 l 1136 368 l 992 368 l 992 674 l 836 674 l 836 368 l 701 368 l 701 1056 l 836 1056 l 836 800 l 992 800 m 125 357 l 33 436 q 185 541 115 482 q 303 664 254 600 q 374 783 349 722 q 403 897 400 844 l 100 897 l 100 1015 l 558 1015 q 534 836 558 922 q 464 671 510 750 q 323 499 408 579 q 125 357 238 419 m 404 304 l 550 304 l 550 165 l 982 165 l 982 304 l 1128 304 l 1128 -211 l 404 -211 l 404 304 m 982 51 l 550 51 l 550 -97 l 982 -97 l 982 51 z "},"갯":{"ha":1250,"x_min":33,"x_max":1140,"o":"m 996 760 l 996 1069 l 1136 1069 l 1136 293 l 996 293 l 996 635 l 839 635 l 839 326 l 703 326 l 703 1054 l 839 1054 l 839 760 l 996 760 m 129 304 l 33 385 q 184 488 113 426 q 310 624 256 550 q 376 748 350 678 q 403 892 401 818 l 100 892 l 100 1010 l 558 1010 q 538 822 558 914 q 475 646 518 729 q 339 464 424 550 q 129 304 254 378 m 636 268 l 797 268 l 797 181 q 831 68 797 122 q 918 -29 864 14 q 1026 -107 967 -75 q 1140 -154 1085 -139 l 1061 -249 q 961 -209 1014 -236 q 860 -147 908 -182 q 777 -76 814 -114 q 719 0 740 -37 q 663 -74 700 -36 q 578 -144 625 -111 q 474 -208 528 -181 q 372 -249 421 -236 l 293 -154 q 419 -99 353 -136 q 536 -11 485 -61 q 609 80 582 31 q 636 181 636 129 l 636 268 z "},"갰":{"ha":1250,"x_min":33,"x_max":1211,"o":"m 992 761 l 992 1069 l 1136 1069 l 1136 299 l 992 299 l 992 636 l 836 636 l 836 299 l 701 299 l 701 1056 l 836 1056 l 836 761 l 992 761 m 122 319 l 33 408 q 187 505 113 447 q 314 638 261 563 q 376 758 351 692 q 403 897 401 824 l 100 897 l 100 1015 l 558 1015 q 540 827 558 917 q 481 658 522 738 q 344 478 432 563 q 122 319 257 394 m 710 -240 q 638 -194 671 -219 q 578 -143 606 -168 q 534 -95 553 -119 q 503 -46 515 -71 q 469 -96 489 -71 q 425 -144 450 -121 q 363 -195 397 -171 q 289 -240 329 -219 l 208 -153 q 310 -83 267 -121 q 381 0 353 -46 q 417 89 406 40 q 429 193 429 138 l 429 249 l 574 249 l 574 197 q 588 92 574 143 q 626 -3 601 40 q 663 -52 642 -29 q 708 -94 683 -75 q 758 -48 736 -74 q 797 7 781 -22 q 833 97 821 49 q 846 197 846 146 l 846 249 l 990 249 l 990 193 q 1002 84 990 135 q 1043 -8 1014 33 q 1110 -87 1068 -51 q 1211 -151 1153 -122 l 1135 -240 q 1059 -197 1093 -219 q 997 -147 1025 -174 q 949 -96 969 -122 q 918 -44 929 -69 q 888 -92 906 -67 q 846 -140 869 -117 q 782 -194 817 -168 q 710 -240 747 -219 z "},"갱":{"ha":1250,"x_min":33,"x_max":1136,"o":"m 996 776 l 996 1069 l 1136 1069 l 1136 319 l 996 319 l 996 651 l 839 651 l 839 361 l 703 361 l 703 1054 l 839 1054 l 839 776 l 996 776 m 129 304 l 33 385 q 184 488 113 426 q 310 624 256 550 q 376 748 350 678 q 403 892 401 818 l 100 892 l 100 1010 l 558 1010 q 538 822 558 914 q 475 646 518 729 q 339 464 424 550 q 129 304 254 378 m 771 -283 q 647 -261 704 -283 q 544 -199 589 -239 q 476 -107 501 -160 q 451 7 451 -54 q 476 120 451 67 q 544 213 501 174 q 647 276 589 253 q 771 299 704 299 q 896 276 838 299 q 997 213 954 253 q 1066 120 1040 174 q 1092 7 1092 67 q 1066 -107 1092 -54 q 997 -199 1040 -160 q 896 -261 954 -239 q 771 -283 838 -283 m 771 179 q 644 128 696 179 q 593 7 593 78 q 642 -113 593 -64 q 767 -162 692 -162 q 894 -113 840 -162 q 947 7 947 -64 q 896 128 947 78 q 771 179 844 179 z "},"갸":{"ha":1250,"x_min":54,"x_max":1254,"o":"m 1064 814 l 1254 814 l 1254 701 l 1064 701 l 1064 469 l 1254 469 l 1254 357 l 1064 357 l 1064 -171 l 921 -171 l 921 1069 l 1064 1069 l 1064 814 m 146 107 l 54 203 q 242 319 156 249 q 394 478 329 390 q 499 668 460 567 q 546 876 539 769 l 139 876 l 139 997 l 710 997 q 669 711 708 846 q 557 463 629 576 q 379 258 483 349 q 146 107 275 168 z "},"갹":{"ha":1250,"x_min":36,"x_max":1256,"o":"m 1064 893 l 1253 893 l 1253 781 l 1064 781 l 1064 635 l 1256 635 l 1256 522 l 1064 522 l 1064 310 l 919 310 l 919 1071 l 1064 1071 l 1064 893 m 126 339 l 36 435 q 201 507 113 460 q 360 618 289 554 q 468 744 426 675 q 514 892 510 813 l 106 892 l 106 1008 l 681 1008 q 640 781 681 883 q 529 597 600 679 q 352 451 454 514 q 126 339 250 388 m 317 122 l 317 238 l 1064 238 l 1064 -225 l 918 -225 l 918 122 l 317 122 z "},"갼":{"ha":1250,"x_min":42,"x_max":1256,"o":"m 1061 888 l 1253 888 l 1253 775 l 1061 775 l 1061 582 l 1256 582 l 1256 469 l 1061 469 l 1061 129 l 918 129 l 918 1072 l 1061 1072 l 1061 888 m 135 306 l 42 401 q 201 474 117 426 q 357 585 285 521 q 474 727 428 647 q 522 885 519 807 l 117 885 l 117 1001 l 692 1001 q 660 799 692 894 q 571 619 629 703 q 391 444 500 524 q 135 306 282 364 m 336 185 l 482 185 l 482 -93 l 1082 -93 l 1082 -211 l 336 -211 l 336 185 z "},"걀":{"ha":1250,"x_min":43,"x_max":1256,"o":"m 1064 928 l 1253 928 l 1253 815 l 1064 815 l 1064 674 l 1256 674 l 1256 561 l 1064 561 l 1064 401 l 919 401 l 919 1071 l 1064 1071 l 1064 928 m 132 411 l 43 508 q 199 568 118 529 q 349 664 281 607 q 451 769 407 710 q 508 899 494 829 l 106 899 l 106 1018 l 678 1018 q 637 816 678 908 q 528 651 596 724 q 345 506 449 567 q 132 411 242 446 m 335 121 l 904 121 l 904 226 l 335 226 l 335 335 l 1060 335 l 1060 15 l 492 15 l 492 -100 l 1090 -100 l 1090 -212 l 335 -212 l 335 121 z "},"걋":{"ha":1250,"x_min":42,"x_max":1256,"o":"m 1061 888 l 1253 888 l 1253 775 l 1061 775 l 1061 583 l 1256 583 l 1256 471 l 1061 471 l 1061 235 l 918 235 l 918 1072 l 1061 1072 l 1061 888 m 135 306 l 42 401 q 201 474 117 426 q 357 585 285 521 q 474 727 428 647 q 522 885 519 807 l 117 885 l 117 1001 l 692 1001 q 660 799 692 894 q 571 619 629 703 q 391 444 500 524 q 135 306 282 364 m 592 268 l 751 268 l 751 190 q 781 73 751 128 q 857 -25 810 18 q 967 -106 906 -74 q 1092 -156 1028 -139 l 1019 -249 q 914 -208 968 -236 q 811 -144 860 -181 q 728 -74 765 -111 q 674 0 692 -37 q 616 -74 653 -36 q 532 -143 579 -111 q 428 -208 482 -179 q 324 -249 374 -236 l 249 -156 q 374 -100 311 -135 q 486 -18 436 -65 q 562 76 532 24 q 592 190 592 129 l 592 268 z "},"걍":{"ha":1250,"x_min":42,"x_max":1256,"o":"m 1064 888 l 1253 888 l 1253 775 l 1064 775 l 1064 629 l 1256 629 l 1256 517 l 1064 517 l 1064 289 l 919 289 l 919 1071 l 1064 1071 l 1064 888 m 135 306 l 42 401 q 201 474 117 426 q 357 585 285 521 q 474 727 428 647 q 522 885 519 807 l 117 885 l 117 1001 l 692 1001 q 660 799 692 894 q 571 619 629 703 q 391 444 500 524 q 135 306 282 364 m 714 -283 q 590 -261 647 -283 q 488 -199 532 -239 q 419 -107 444 -160 q 394 7 394 -54 q 419 120 394 67 q 488 213 444 174 q 590 276 532 253 q 714 299 647 299 q 838 276 781 299 q 940 213 896 253 q 1008 120 983 174 q 1033 7 1033 67 q 1008 -107 1033 -54 q 940 -199 983 -160 q 838 -261 896 -239 q 714 -283 781 -283 m 714 179 q 587 128 639 179 q 535 7 535 78 q 584 -113 535 -64 q 708 -162 633 -162 q 837 -113 783 -162 q 890 7 890 -64 q 840 128 890 78 q 714 179 789 179 z "},"걔":{"ha":1250,"x_min":42,"x_max":1136,"o":"m 996 824 l 996 1069 l 1136 1069 l 1136 -171 l 996 -171 l 996 381 l 840 381 l 840 -124 l 704 -124 l 704 1050 l 840 1050 l 840 824 l 996 824 m 996 708 l 840 708 l 840 496 l 996 496 l 996 708 m 136 111 l 42 192 q 200 326 129 249 q 322 494 271 404 q 403 683 374 585 q 440 882 433 782 l 107 882 l 107 1000 l 589 1000 q 558 728 589 858 q 468 485 526 597 q 326 276 410 371 q 136 111 242 182 z "},"걘":{"ha":1250,"x_min":33,"x_max":1150,"o":"m 996 883 l 996 1069 l 1136 1069 l 1136 165 l 996 165 l 996 492 l 839 492 l 839 197 l 703 197 l 703 1054 l 839 1054 l 839 883 l 996 883 m 996 765 l 839 765 l 839 608 l 996 608 l 996 765 m 129 304 l 33 385 q 184 488 113 426 q 310 624 256 550 q 376 748 350 678 q 403 892 401 818 l 100 892 l 100 1010 l 558 1010 q 538 822 558 914 q 475 646 518 729 q 339 464 424 550 q 129 304 254 378 m 390 199 l 535 199 l 535 -93 l 1150 -93 l 1150 -211 l 390 -211 l 390 199 z "},"걜":{"ha":1250,"x_min":33,"x_max":1154,"o":"m 992 914 l 992 1069 l 1136 1069 l 1136 403 l 992 403 l 992 531 l 836 531 l 836 403 l 701 403 l 701 1056 l 836 1056 l 836 914 l 992 914 m 992 797 l 836 797 l 836 649 l 992 649 l 992 797 m 126 361 l 33 442 q 185 544 115 488 q 303 665 254 601 q 374 784 349 724 q 403 897 400 844 l 100 897 l 100 1015 l 558 1015 q 528 815 558 907 q 444 646 497 724 q 304 487 386 558 q 126 361 222 415 m 386 121 l 971 121 l 971 226 l 386 226 l 386 335 l 1126 335 l 1126 15 l 543 15 l 543 -100 l 1154 -100 l 1154 -212 l 386 -212 l 386 121 z "},"거":{"ha":1250,"x_min":68,"x_max":1108,"o":"m 964 646 l 964 1071 l 1108 1071 l 1108 -171 l 964 -171 l 964 522 l 719 522 l 719 646 l 964 646 m 160 107 l 68 203 q 256 319 169 249 q 408 478 343 390 q 513 668 474 567 q 560 876 553 769 l 153 876 l 153 997 l 724 997 q 683 711 722 846 q 571 463 643 576 q 393 258 497 349 q 160 107 289 168 z "},"걱":{"ha":1250,"x_min":51,"x_max":1107,"o":"m 964 764 l 964 1072 l 1107 1072 l 1107 311 l 964 311 l 964 646 l 711 646 l 711 764 l 964 764 m 142 339 l 51 435 q 215 507 126 460 q 375 618 303 554 q 483 744 442 675 q 529 892 525 813 l 121 892 l 121 1008 l 696 1008 q 656 781 696 883 q 544 597 615 679 q 367 451 469 514 q 142 339 265 388 m 353 122 l 353 238 l 1100 238 l 1100 -225 l 954 -225 l 954 122 l 353 122 z "},"건":{"ha":1250,"x_min":53,"x_max":1139,"o":"m 964 738 l 964 1072 l 1107 1072 l 1107 129 l 964 129 l 964 617 l 710 617 l 710 738 l 964 738 m 147 306 l 53 401 q 212 474 128 426 q 369 585 296 522 q 481 724 436 642 q 536 885 526 806 l 128 885 l 128 1001 l 703 1001 q 673 799 703 894 q 582 619 643 703 q 403 444 513 524 q 147 306 294 364 m 378 199 l 524 199 l 524 -93 l 1139 -93 l 1139 -211 l 378 -211 l 378 199 z "},"걷":{"ha":1250,"x_min":51,"x_max":1122,"o":"m 964 764 l 964 1072 l 1107 1072 l 1107 311 l 964 311 l 964 646 l 711 646 l 711 764 l 964 764 m 142 339 l 51 435 q 215 507 126 460 q 375 618 303 554 q 483 744 442 675 q 529 892 525 813 l 121 892 l 121 1008 l 696 1008 q 656 781 696 883 q 544 597 615 679 q 367 451 469 514 q 142 339 265 388 m 376 247 l 1101 247 l 1101 128 l 518 128 l 518 -97 l 1122 -97 l 1122 -210 l 376 -210 l 376 247 z "},"걸":{"ha":1250,"x_min":58,"x_max":1119,"o":"m 964 782 l 964 1072 l 1107 1072 l 1107 407 l 964 407 l 964 663 l 696 663 l 696 782 l 964 782 m 149 411 l 58 508 q 215 568 133 529 q 365 664 297 607 q 467 769 424 710 q 526 899 510 829 l 122 899 l 122 1018 l 694 1018 q 653 816 694 908 q 544 651 611 724 q 362 506 465 567 q 149 411 258 446 m 365 121 l 933 121 l 933 226 l 365 226 l 365 335 l 1092 335 l 1092 15 l 522 15 l 522 -100 l 1119 -100 l 1119 -212 l 365 -212 l 365 121 z "},"걺":{"ha":1250,"x_min":58,"x_max":1107,"o":"m 964 782 l 964 1072 l 1107 1072 l 1107 407 l 964 407 l 964 663 l 696 663 l 696 782 l 964 782 m 279 117 l 521 117 l 521 219 l 279 219 l 279 328 l 653 328 l 653 10 l 414 10 l 414 -101 l 479 -101 q 574 -99 517 -101 q 683 -89 632 -96 l 683 -199 q 547 -210 621 -206 q 411 -214 472 -214 l 279 -214 l 279 117 m 149 411 l 58 508 q 215 568 133 529 q 365 664 297 607 q 467 769 424 710 q 526 899 510 829 l 122 899 l 122 1018 l 694 1018 q 653 816 694 908 q 544 651 611 724 q 362 506 465 567 q 149 411 258 446 m 740 -212 l 740 328 l 1101 328 l 1101 -212 l 740 -212 m 868 226 l 868 -108 l 972 -108 l 972 226 l 868 226 z "},"검":{"ha":1250,"x_min":51,"x_max":1107,"o":"m 964 764 l 964 1072 l 1107 1072 l 1107 311 l 964 311 l 964 646 l 711 646 l 711 764 l 964 764 m 142 339 l 51 435 q 215 507 126 460 q 375 618 303 554 q 483 744 442 675 q 529 892 525 813 l 121 892 l 121 1008 l 696 1008 q 656 781 696 883 q 544 597 615 679 q 367 451 469 514 q 142 339 265 388 m 381 -211 l 381 239 l 1103 239 l 1103 -211 l 381 -211 m 526 124 l 526 -97 l 957 -97 l 957 124 l 526 124 z "},"겁":{"ha":1250,"x_min":57,"x_max":1107,"o":"m 964 768 l 964 1072 l 1107 1072 l 1107 374 l 964 374 l 964 649 l 694 649 l 694 768 l 964 768 m 149 383 l 57 482 q 210 548 131 506 q 357 649 290 590 q 464 764 419 700 q 525 899 508 828 l 121 899 l 121 1018 l 693 1018 q 651 815 693 908 q 543 644 610 721 q 363 490 465 556 q 149 383 260 424 m 369 304 l 515 304 l 515 165 l 949 165 l 949 304 l 1094 304 l 1094 -211 l 369 -211 l 369 304 m 949 51 l 515 51 l 515 -97 l 949 -97 l 949 51 z "},"것":{"ha":1250,"x_min":53,"x_max":1140,"o":"m 964 746 l 964 1072 l 1107 1072 l 1107 236 l 964 236 l 964 625 l 714 625 l 714 746 l 964 746 m 147 306 l 53 401 q 213 474 128 426 q 369 585 297 521 q 485 727 440 647 q 533 885 531 807 l 128 885 l 128 1001 l 703 1001 q 673 799 703 894 q 582 619 643 703 q 403 444 513 524 q 147 306 294 364 m 636 268 l 797 268 l 797 181 q 831 68 797 122 q 918 -29 864 14 q 1026 -107 967 -75 q 1140 -154 1085 -139 l 1061 -249 q 961 -209 1014 -236 q 860 -147 908 -182 q 777 -76 814 -114 q 719 0 740 -37 q 663 -74 700 -36 q 578 -144 625 -111 q 474 -208 528 -181 q 372 -249 421 -236 l 293 -154 q 419 -99 353 -136 q 536 -11 485 -61 q 609 80 582 31 q 636 181 636 129 l 636 268 z "},"겄":{"ha":1250,"x_min":51,"x_max":1218,"o":"m 964 764 l 964 1072 l 1107 1072 l 1107 311 l 964 311 l 964 646 l 711 646 l 711 764 l 964 764 m 142 339 l 51 435 q 215 507 126 460 q 375 618 303 554 q 483 744 442 675 q 529 892 525 813 l 121 892 l 121 1008 l 696 1008 q 656 781 696 883 q 544 597 615 679 q 367 451 469 514 q 142 339 265 388 m 717 -240 q 644 -194 678 -219 q 582 -142 610 -168 q 539 -94 557 -118 q 508 -46 521 -69 q 478 -95 496 -71 q 435 -142 460 -119 q 372 -193 407 -168 q 294 -240 336 -218 l 215 -153 q 317 -82 274 -121 q 389 3 360 -43 q 424 91 413 43 q 435 193 435 139 l 435 263 l 579 263 l 579 197 q 592 92 579 143 q 631 -1 606 40 q 669 -51 647 -28 q 717 -96 690 -75 q 769 -47 746 -74 q 808 11 792 -19 q 841 100 831 53 q 851 197 851 147 l 851 263 l 996 263 l 996 193 q 1007 86 996 136 q 1047 -6 1018 36 q 1115 -85 1072 -49 q 1218 -151 1158 -122 l 1142 -240 q 1066 -197 1100 -219 q 1003 -147 1032 -174 q 956 -96 976 -122 q 924 -44 936 -69 q 894 -91 913 -67 q 853 -139 876 -115 q 790 -193 825 -167 q 717 -240 754 -219 z "},"겅":{"ha":1250,"x_min":53,"x_max":1107,"o":"m 964 749 l 964 1072 l 1107 1072 l 1107 283 l 964 283 l 964 629 l 718 629 l 718 749 l 964 749 m 147 306 l 53 401 q 213 474 128 426 q 369 585 297 521 q 485 727 440 647 q 533 885 531 807 l 128 885 l 128 1001 l 703 1001 q 673 799 703 894 q 582 619 643 703 q 403 444 513 524 q 147 306 294 364 m 757 -283 q 632 -261 690 -283 q 531 -199 574 -239 q 463 -107 488 -160 q 438 7 438 -54 q 463 120 438 67 q 531 213 488 174 q 632 276 574 253 q 757 299 690 299 q 881 276 822 299 q 982 213 939 253 q 1051 120 1025 174 q 1076 7 1076 67 q 1051 -107 1076 -54 q 982 -199 1025 -160 q 881 -261 939 -239 q 757 -283 822 -283 m 932 7 q 881 128 932 78 q 757 179 831 179 q 630 128 682 179 q 578 7 578 78 q 628 -113 578 -64 q 753 -162 678 -162 q 879 -113 826 -162 q 932 7 932 -64 z "},"겆":{"ha":1250,"x_min":51,"x_max":1150,"o":"m 964 769 l 964 1072 l 1107 1072 l 1107 358 l 964 358 l 964 650 l 704 650 l 704 769 l 964 769 m 140 342 l 51 435 q 215 507 126 460 q 375 618 303 554 q 483 744 442 675 q 529 892 525 813 l 121 892 l 121 1008 l 696 1008 q 651 781 692 882 q 536 597 610 681 q 359 447 461 513 q 140 342 257 382 m 644 161 l 342 161 l 342 276 l 1100 276 l 1100 161 l 796 161 q 831 53 799 103 q 910 -35 863 4 q 1027 -109 963 -79 q 1150 -156 1092 -139 l 1075 -246 q 978 -211 1026 -233 q 883 -160 929 -189 q 791 -90 833 -129 q 722 -10 749 -51 q 655 -86 694 -50 q 569 -151 615 -122 q 467 -206 519 -182 q 364 -246 414 -231 l 283 -156 q 410 -108 343 -139 q 532 -31 476 -76 q 610 55 579 7 q 644 161 642 103 z "},"겉":{"ha":1250,"x_min":58,"x_max":1126,"o":"m 964 782 l 964 1072 l 1107 1072 l 1107 407 l 964 407 l 964 663 l 696 663 l 696 782 l 964 782 m 149 411 l 58 508 q 215 568 133 529 q 365 664 297 607 q 467 769 424 710 q 526 899 510 829 l 122 899 l 122 1018 l 694 1018 q 653 816 694 908 q 544 651 611 724 q 362 506 465 567 q 149 411 258 446 m 372 335 l 1099 335 l 1099 226 l 529 226 l 529 121 l 1094 121 l 1094 15 l 531 15 l 531 -100 l 1126 -100 l 1126 -212 l 372 -212 l 372 335 z "},"겊":{"ha":1250,"x_min":51,"x_max":1117,"o":"m 964 764 l 964 1072 l 1107 1072 l 1107 311 l 964 311 l 964 646 l 711 646 l 711 764 l 964 764 m 142 339 l 51 435 q 215 507 126 460 q 375 618 303 554 q 483 744 442 675 q 529 892 525 813 l 121 892 l 121 1008 l 696 1008 q 656 781 696 883 q 544 597 615 679 q 367 451 469 514 q 142 339 265 388 m 960 140 l 958 -97 l 1117 -97 l 1117 -211 l 315 -211 l 315 -97 l 474 -97 l 469 140 l 331 140 l 331 257 l 1099 257 l 1099 140 l 960 140 m 828 140 l 604 140 l 607 -97 l 826 -97 l 828 140 z "},"겋":{"ha":1250,"x_min":60,"x_max":1133,"o":"m 964 769 l 964 1072 l 1107 1072 l 1107 358 l 964 358 l 964 650 l 704 650 l 704 769 l 964 769 m 149 342 l 60 435 q 224 507 136 460 q 385 618 313 554 q 492 744 450 675 q 539 892 535 813 l 129 892 l 129 1008 l 704 1008 q 660 781 700 882 q 546 597 619 681 q 368 447 471 513 q 149 342 265 382 m 938 160 q 1004 81 978 133 q 1031 -17 1031 29 q 1007 -117 1031 -71 q 942 -197 983 -162 q 844 -250 900 -231 q 724 -269 788 -269 q 602 -250 658 -269 q 506 -197 546 -231 q 441 -117 464 -162 q 418 -17 418 -71 q 444 81 418 29 q 508 160 469 133 l 304 160 l 304 271 l 651 271 l 651 425 l 797 425 l 797 271 l 1133 271 l 1133 160 l 938 160 m 724 146 q 608 100 653 144 q 564 -7 564 56 q 610 -117 564 -74 q 724 -160 656 -161 q 838 -118 790 -161 q 885 -7 885 -75 q 838 100 885 56 q 724 146 790 144 z "},"게":{"ha":1250,"x_min":42,"x_max":1136,"o":"m 996 -171 l 996 1069 l 1136 1069 l 1136 -171 l 996 -171 m 526 660 l 721 660 l 721 1050 l 856 1050 l 856 -124 l 721 -124 l 721 543 l 483 543 q 339 303 426 413 q 139 111 251 194 l 42 192 q 195 328 126 250 q 313 494 264 406 q 391 683 363 585 q 426 882 419 781 l 107 882 l 107 1000 l 575 1000 q 563 824 575 908 q 526 660 550 739 z "},"겐":{"ha":1250,"x_min":33,"x_max":1150,"o":"m 718 646 l 526 646 l 526 761 l 718 761 l 718 1054 l 853 1054 l 853 197 l 718 197 l 718 646 m 129 304 l 33 385 q 184 488 113 426 q 310 624 256 550 q 376 748 350 678 q 403 892 401 818 l 100 892 l 100 1010 l 558 1010 q 538 822 558 914 q 475 646 518 729 q 339 464 424 550 q 129 304 254 378 m 996 165 l 996 1069 l 1136 1069 l 1136 165 l 996 165 m 390 199 l 535 199 l 535 -93 l 1150 -93 l 1150 -211 l 390 -211 l 390 199 z "},"겔":{"ha":1250,"x_min":33,"x_max":1154,"o":"m 718 685 l 528 685 l 528 800 l 718 800 l 718 1054 l 853 1054 l 853 404 l 718 404 l 718 685 m 126 361 l 33 442 q 185 544 115 488 q 303 665 254 601 q 374 784 349 724 q 403 897 400 844 l 100 897 l 100 1015 l 558 1015 q 528 815 558 907 q 444 646 497 724 q 304 487 386 558 q 126 361 222 415 m 996 403 l 996 1069 l 1136 1069 l 1136 403 l 996 403 m 386 121 l 971 121 l 971 226 l 386 226 l 386 335 l 1126 335 l 1126 15 l 543 15 l 543 -100 l 1154 -100 l 1154 -212 l 386 -212 l 386 121 z "},"겜":{"ha":1250,"x_min":33,"x_max":1136,"o":"m 718 656 l 526 656 l 526 772 l 718 772 l 718 1054 l 853 1054 l 853 301 l 718 301 l 718 656 m 996 300 l 996 1069 l 1136 1069 l 1136 300 l 996 300 m 122 319 l 33 408 q 187 505 113 447 q 314 638 261 563 q 376 758 351 692 q 403 897 401 824 l 100 897 l 100 1015 l 558 1015 q 540 827 558 917 q 481 658 522 738 q 344 478 432 563 q 122 319 257 394 m 386 239 l 1124 239 l 1124 -211 l 386 -211 l 386 239 m 532 124 l 532 -97 l 978 -97 l 978 124 l 532 124 z "},"겝":{"ha":1250,"x_min":33,"x_max":1136,"o":"m 718 674 l 522 674 l 522 792 l 718 792 l 718 1054 l 853 1054 l 853 372 l 718 372 l 718 674 m 996 371 l 996 1069 l 1136 1069 l 1136 371 l 996 371 m 125 357 l 33 436 q 185 541 115 482 q 303 664 254 600 q 374 783 349 722 q 403 897 400 844 l 100 897 l 100 1015 l 558 1015 q 534 836 558 922 q 464 671 510 750 q 323 499 408 579 q 125 357 238 419 m 404 304 l 550 304 l 550 165 l 982 165 l 982 304 l 1128 304 l 1128 -211 l 404 -211 l 404 304 m 982 51 l 550 51 l 550 -97 l 982 -97 l 982 51 z "},"겟":{"ha":1250,"x_min":33,"x_max":1140,"o":"m 718 658 l 526 658 l 526 775 l 718 775 l 718 1054 l 853 1054 l 853 317 l 718 317 l 718 658 m 129 304 l 33 385 q 184 488 113 426 q 310 624 256 550 q 376 748 350 678 q 403 892 401 818 l 100 892 l 100 1010 l 558 1010 q 538 822 558 914 q 475 646 518 729 q 339 464 424 550 q 129 304 254 378 m 996 268 l 996 1069 l 1136 1069 l 1136 268 l 996 268 m 636 268 l 797 268 l 797 181 q 831 68 797 122 q 918 -29 864 14 q 1026 -107 967 -75 q 1140 -154 1085 -139 l 1061 -249 q 961 -209 1014 -236 q 860 -147 908 -182 q 777 -76 814 -114 q 719 0 740 -37 q 663 -74 700 -36 q 578 -144 625 -111 q 474 -208 528 -181 q 372 -249 421 -236 l 293 -154 q 419 -99 353 -136 q 536 -11 485 -61 q 609 80 582 31 q 636 181 636 129 l 636 268 z "},"겠":{"ha":1250,"x_min":33,"x_max":1211,"o":"m 718 649 l 539 649 l 539 765 l 718 765 l 718 1054 l 853 1054 l 853 301 l 718 301 l 718 649 m 122 319 l 33 408 q 187 505 113 447 q 314 638 261 563 q 376 758 351 692 q 403 897 401 824 l 100 897 l 100 1015 l 558 1015 q 540 827 558 917 q 481 658 522 738 q 344 478 432 563 q 122 319 257 394 m 996 300 l 996 1069 l 1136 1069 l 1136 300 l 996 300 m 710 -240 q 638 -194 671 -219 q 578 -143 606 -168 q 534 -95 553 -119 q 503 -46 515 -71 q 469 -96 489 -71 q 425 -144 450 -121 q 363 -195 397 -171 q 289 -240 329 -219 l 208 -153 q 310 -83 267 -121 q 381 0 353 -46 q 417 89 406 40 q 429 193 429 138 l 429 249 l 574 249 l 574 197 q 588 92 574 143 q 626 -3 601 40 q 663 -52 642 -29 q 708 -94 683 -75 q 758 -48 736 -74 q 797 7 781 -22 q 833 97 821 49 q 846 197 846 146 l 846 249 l 990 249 l 990 193 q 1002 84 990 135 q 1043 -8 1014 33 q 1110 -87 1068 -51 q 1211 -151 1153 -122 l 1135 -240 q 1059 -197 1093 -219 q 997 -147 1025 -174 q 949 -96 969 -122 q 918 -44 929 -69 q 888 -92 906 -67 q 846 -140 869 -117 q 782 -194 817 -168 q 710 -240 747 -219 z "},"겡":{"ha":1250,"x_min":33,"x_max":1136,"o":"m 718 658 l 528 658 l 528 775 l 718 775 l 718 1054 l 853 1054 l 853 358 l 718 358 l 718 658 m 129 304 l 33 385 q 184 488 113 426 q 310 624 256 550 q 376 748 350 678 q 403 892 401 818 l 100 892 l 100 1010 l 558 1010 q 538 822 558 914 q 475 646 518 729 q 339 464 424 550 q 129 304 254 378 m 996 317 l 996 1069 l 1136 1069 l 1136 317 l 996 317 m 771 -283 q 647 -261 704 -283 q 544 -199 589 -239 q 476 -107 501 -160 q 451 7 451 -54 q 476 120 451 67 q 544 213 501 174 q 647 276 589 253 q 771 299 704 299 q 896 276 838 299 q 997 213 954 253 q 1066 120 1040 174 q 1092 7 1092 67 q 1066 -107 1092 -54 q 997 -199 1040 -160 q 896 -261 954 -239 q 771 -283 838 -283 m 771 179 q 644 128 696 179 q 593 7 593 78 q 642 -113 593 -64 q 767 -162 692 -162 q 894 -113 840 -162 q 947 7 947 -64 q 896 128 947 78 q 771 179 844 179 z "},"겨":{"ha":1250,"x_min":68,"x_max":1108,"o":"m 964 822 l 964 1071 l 1108 1071 l 1108 -171 l 964 -171 l 964 371 l 726 371 l 726 483 l 964 483 l 964 708 l 757 708 l 757 822 l 964 822 m 160 107 l 68 203 q 256 319 169 249 q 408 478 343 390 q 513 668 474 567 q 560 876 553 769 l 153 876 l 153 997 l 724 997 q 683 711 722 846 q 571 463 643 576 q 393 258 497 349 q 160 107 289 168 z "},"격":{"ha":1250,"x_min":51,"x_max":1107,"o":"m 964 886 l 964 1072 l 1107 1072 l 1107 322 l 964 322 l 964 499 l 724 499 l 724 608 l 964 608 l 964 775 l 742 775 l 742 886 l 964 886 m 142 339 l 51 435 q 215 507 126 460 q 375 618 303 554 q 483 744 442 675 q 529 892 525 813 l 121 892 l 121 1008 l 696 1008 q 656 781 696 883 q 544 597 615 679 q 367 451 469 514 q 142 339 265 388 m 353 122 l 353 238 l 1100 238 l 1100 -225 l 954 -225 l 954 122 l 353 122 z "},"겪":{"ha":1250,"x_min":51,"x_max":1107,"o":"m 964 886 l 964 1072 l 1107 1072 l 1107 322 l 964 322 l 964 499 l 724 499 l 724 608 l 964 608 l 964 775 l 742 775 l 742 886 l 964 886 m 142 339 l 51 435 q 215 507 126 460 q 375 618 303 554 q 483 744 442 675 q 529 892 525 813 l 121 892 l 121 1008 l 696 1008 q 656 781 696 883 q 544 597 615 679 q 367 451 469 514 q 142 339 265 388 m 739 139 l 739 249 l 1101 249 l 1101 -225 l 958 -225 l 958 139 l 739 139 m 278 139 l 278 249 l 675 249 l 675 -225 l 532 -225 l 532 139 l 278 139 z "},"견":{"ha":1250,"x_min":53,"x_max":1139,"o":"m 964 867 l 964 1072 l 1107 1072 l 1107 129 l 964 129 l 964 463 l 722 463 l 722 579 l 964 579 l 964 750 l 740 750 l 740 867 l 964 867 m 147 306 l 53 401 q 213 474 128 426 q 369 585 297 521 q 485 727 440 647 q 533 885 531 807 l 128 885 l 128 1001 l 703 1001 q 673 799 703 894 q 582 619 643 703 q 403 444 513 524 q 147 306 294 364 m 378 199 l 524 199 l 524 -93 l 1139 -93 l 1139 -211 l 378 -211 l 378 199 z "},"겯":{"ha":1250,"x_min":51,"x_max":1122,"o":"m 964 886 l 964 1072 l 1107 1072 l 1107 322 l 964 322 l 964 499 l 724 499 l 724 608 l 964 608 l 964 775 l 742 775 l 742 886 l 964 886 m 142 339 l 51 435 q 215 507 126 460 q 375 618 303 554 q 483 744 442 675 q 529 892 525 813 l 121 892 l 121 1008 l 696 1008 q 656 781 696 883 q 544 597 615 679 q 367 451 469 514 q 142 339 265 388 m 376 247 l 1101 247 l 1101 128 l 518 128 l 518 -97 l 1122 -97 l 1122 -210 l 376 -210 l 376 247 z "},"결":{"ha":1250,"x_min":58,"x_max":1119,"o":"m 964 925 l 964 1072 l 1107 1072 l 1107 407 l 964 407 l 964 557 l 721 557 l 721 667 l 964 667 l 964 814 l 738 814 l 738 925 l 964 925 m 149 411 l 58 508 q 215 568 133 529 q 365 664 297 607 q 467 769 424 710 q 526 899 510 829 l 122 899 l 122 1018 l 694 1018 q 653 816 694 908 q 544 651 611 724 q 362 506 465 567 q 149 411 258 446 m 365 121 l 933 121 l 933 226 l 365 226 l 365 335 l 1092 335 l 1092 15 l 522 15 l 522 -100 l 1119 -100 l 1119 -212 l 365 -212 l 365 121 z "},"겸":{"ha":1250,"x_min":51,"x_max":1107,"o":"m 964 886 l 964 1072 l 1107 1072 l 1107 322 l 964 322 l 964 499 l 724 499 l 724 608 l 964 608 l 964 775 l 742 775 l 742 886 l 964 886 m 142 339 l 51 435 q 215 507 126 460 q 375 618 303 554 q 483 744 442 675 q 529 892 525 813 l 121 892 l 121 1008 l 696 1008 q 656 781 696 883 q 544 597 615 679 q 367 451 469 514 q 142 339 265 388 m 381 -211 l 381 239 l 1103 239 l 1103 -211 l 381 -211 m 526 124 l 526 -97 l 957 -97 l 957 124 l 526 124 z "},"겹":{"ha":1250,"x_min":57,"x_max":1107,"o":"m 964 908 l 964 1072 l 1107 1072 l 1107 385 l 964 385 l 964 538 l 721 538 l 721 649 l 964 649 l 964 799 l 739 799 l 739 908 l 964 908 m 149 383 l 57 482 q 210 548 131 506 q 357 649 290 590 q 464 764 419 700 q 525 899 508 828 l 121 899 l 121 1018 l 693 1018 q 651 815 693 908 q 543 644 610 721 q 363 490 465 556 q 149 383 260 424 m 369 304 l 515 304 l 515 165 l 949 165 l 949 304 l 1094 304 l 1094 -211 l 369 -211 l 369 304 m 949 51 l 515 51 l 515 -97 l 949 -97 l 949 51 z "},"겻":{"ha":1250,"x_min":53,"x_max":1140,"o":"m 964 889 l 964 1072 l 1107 1072 l 1107 240 l 964 240 l 964 497 l 726 497 l 726 606 l 964 606 l 964 779 l 744 779 l 744 889 l 964 889 m 147 306 l 53 401 q 213 474 128 426 q 369 585 297 521 q 485 727 440 647 q 533 885 531 807 l 128 885 l 128 1001 l 703 1001 q 673 799 703 894 q 582 619 643 703 q 403 444 513 524 q 147 306 294 364 m 636 268 l 797 268 l 797 181 q 831 68 797 122 q 918 -29 864 14 q 1026 -107 967 -75 q 1140 -154 1085 -139 l 1061 -249 q 961 -209 1014 -236 q 860 -147 908 -182 q 777 -76 814 -114 q 719 0 740 -37 q 663 -74 700 -36 q 578 -144 625 -111 q 474 -208 528 -181 q 372 -249 421 -236 l 293 -154 q 419 -99 353 -136 q 536 -11 485 -61 q 609 80 582 31 q 636 181 636 129 l 636 268 z "},"겼":{"ha":1250,"x_min":51,"x_max":1218,"o":"m 964 886 l 964 1072 l 1107 1072 l 1107 322 l 964 322 l 964 499 l 724 499 l 724 608 l 964 608 l 964 775 l 742 775 l 742 886 l 964 886 m 142 339 l 51 435 q 215 507 126 460 q 375 618 303 554 q 483 744 442 675 q 529 892 525 813 l 121 892 l 121 1008 l 696 1008 q 656 781 696 883 q 544 597 615 679 q 367 451 469 514 q 142 339 265 388 m 717 -240 q 644 -194 678 -219 q 582 -142 610 -168 q 539 -94 557 -118 q 508 -46 521 -69 q 478 -95 496 -71 q 435 -142 460 -119 q 372 -193 407 -168 q 294 -240 336 -218 l 215 -153 q 317 -82 274 -121 q 389 3 360 -43 q 424 91 413 43 q 435 193 435 139 l 435 263 l 579 263 l 579 197 q 592 92 579 143 q 631 -1 606 40 q 669 -51 647 -28 q 717 -96 690 -75 q 769 -47 746 -74 q 808 11 792 -19 q 841 100 831 53 q 851 197 851 147 l 851 263 l 996 263 l 996 193 q 1007 86 996 136 q 1047 -6 1018 36 q 1115 -85 1072 -49 q 1218 -151 1158 -122 l 1142 -240 q 1066 -197 1100 -219 q 1003 -147 1032 -174 q 956 -96 976 -122 q 924 -44 936 -69 q 894 -91 913 -67 q 853 -139 876 -115 q 790 -193 825 -167 q 717 -240 754 -219 z "},"경":{"ha":1250,"x_min":53,"x_max":1107,"o":"m 964 883 l 964 1072 l 1107 1072 l 1107 286 l 964 286 l 964 494 l 722 494 l 722 606 l 964 606 l 964 772 l 740 772 l 740 883 l 964 883 m 147 306 l 53 401 q 213 474 128 426 q 369 585 297 521 q 485 727 440 647 q 533 885 531 807 l 128 885 l 128 1001 l 703 1001 q 673 799 703 894 q 582 619 643 703 q 403 444 513 524 q 147 306 294 364 m 757 -283 q 632 -261 690 -283 q 531 -199 574 -239 q 463 -107 488 -160 q 438 7 438 -54 q 463 120 438 67 q 531 213 488 174 q 632 276 574 253 q 757 299 690 299 q 881 276 822 299 q 982 213 939 253 q 1051 120 1025 174 q 1076 7 1076 67 q 1051 -107 1076 -54 q 982 -199 1025 -160 q 881 -261 939 -239 q 757 -283 822 -283 m 932 7 q 881 128 932 78 q 757 179 831 179 q 630 128 682 179 q 578 7 578 78 q 628 -113 578 -64 q 753 -162 678 -162 q 879 -113 826 -162 q 932 7 932 -64 z "},"곁":{"ha":1250,"x_min":58,"x_max":1126,"o":"m 964 925 l 964 1072 l 1107 1072 l 1107 407 l 964 407 l 964 557 l 721 557 l 721 667 l 964 667 l 964 814 l 738 814 l 738 925 l 964 925 m 149 411 l 58 508 q 215 568 133 529 q 365 664 297 607 q 467 769 424 710 q 526 899 510 829 l 122 899 l 122 1018 l 694 1018 q 653 816 694 908 q 544 651 611 724 q 362 506 465 567 q 149 411 258 446 m 372 335 l 1099 335 l 1099 226 l 529 226 l 529 121 l 1094 121 l 1094 15 l 531 15 l 531 -100 l 1126 -100 l 1126 -212 l 372 -212 l 372 335 z "},"계":{"ha":1250,"x_min":42,"x_max":1136,"o":"m 996 -171 l 996 1069 l 1136 1069 l 1136 -171 l 996 -171 m 563 824 l 725 824 l 725 1050 l 860 1050 l 860 -124 l 725 -124 l 725 385 l 519 385 l 519 501 l 725 501 l 725 707 l 540 707 q 390 371 493 522 q 139 111 286 219 l 42 192 q 195 328 126 250 q 313 494 264 406 q 391 683 363 585 q 426 882 419 781 l 107 882 l 107 1000 l 575 1000 q 572 910 575 954 q 563 824 568 865 z "},"곈":{"ha":1250,"x_min":33,"x_max":1150,"o":"m 553 908 l 725 908 l 725 1054 l 860 1054 l 860 197 l 725 197 l 725 494 l 514 494 l 514 611 l 725 611 l 725 792 l 531 792 q 507 717 521 754 q 475 646 493 681 q 339 464 424 550 q 129 304 254 378 l 33 385 q 184 488 113 426 q 310 624 256 550 q 376 748 350 678 q 403 892 401 818 l 100 892 l 100 1010 l 558 1010 q 557 959 558 985 q 553 908 556 933 m 996 165 l 996 1069 l 1136 1069 l 1136 165 l 996 165 m 390 199 l 535 199 l 535 -93 l 1150 -93 l 1150 -211 l 390 -211 l 390 199 z "},"곌":{"ha":1250,"x_min":33,"x_max":1154,"o":"m 551 925 l 721 925 l 721 1054 l 856 1054 l 856 404 l 721 404 l 721 553 l 503 553 l 503 668 l 721 668 l 721 810 l 526 810 q 490 724 511 765 q 444 646 469 683 q 304 487 386 558 q 126 361 222 415 l 33 442 q 185 544 115 488 q 303 665 254 601 q 374 784 349 724 q 403 897 400 844 l 100 897 l 100 1015 l 558 1015 q 557 969 558 992 q 551 925 556 946 m 996 403 l 996 1069 l 1136 1069 l 1136 403 l 996 403 m 386 121 l 971 121 l 971 226 l 386 226 l 386 335 l 1126 335 l 1126 15 l 543 15 l 543 -100 l 1154 -100 l 1154 -212 l 386 -212 l 386 121 z "},"곕":{"ha":1250,"x_min":33,"x_max":1136,"o":"m 551 922 l 718 922 l 718 1054 l 853 1054 l 853 382 l 718 382 l 718 546 l 503 546 l 503 661 l 718 661 l 718 807 l 524 807 q 497 738 513 771 q 464 671 482 704 q 323 499 408 579 q 125 357 238 419 l 33 436 q 185 541 115 482 q 303 664 254 600 q 374 783 349 722 q 403 897 400 844 l 100 897 l 100 1015 l 558 1015 q 556 967 558 990 q 551 922 554 944 m 996 381 l 996 1069 l 1136 1069 l 1136 381 l 996 381 m 404 304 l 550 304 l 550 165 l 982 165 l 982 304 l 1128 304 l 1128 -211 l 404 -211 l 404 304 m 982 51 l 550 51 l 550 -97 l 982 -97 l 982 51 z "},"곗":{"ha":1250,"x_min":33,"x_max":1140,"o":"m 551 899 l 725 899 l 725 1054 l 860 1054 l 860 317 l 725 317 l 725 497 l 503 497 l 503 611 l 725 611 l 725 783 l 528 783 q 505 713 518 747 q 475 646 492 679 q 339 464 424 550 q 129 304 254 378 l 33 385 q 184 488 113 426 q 310 624 256 550 q 376 748 350 678 q 403 892 401 818 l 100 892 l 100 1010 l 558 1010 q 556 953 558 981 q 551 899 554 926 m 996 268 l 996 1069 l 1136 1069 l 1136 268 l 996 268 m 636 268 l 797 268 l 797 181 q 831 68 797 122 q 918 -29 864 14 q 1026 -107 967 -75 q 1140 -154 1085 -139 l 1061 -249 q 961 -209 1014 -236 q 860 -147 908 -182 q 777 -76 814 -114 q 719 0 740 -37 q 663 -74 700 -36 q 578 -144 625 -111 q 474 -208 528 -181 q 372 -249 421 -236 l 293 -154 q 419 -99 353 -136 q 536 -11 485 -61 q 609 80 582 31 q 636 181 636 129 l 636 268 z "},"고":{"ha":1250,"x_min":33,"x_max":1214,"o":"m 467 78 l 467 568 l 611 568 l 611 78 l 1214 78 l 1214 -43 l 33 -43 l 33 78 l 467 78 m 957 299 l 815 299 q 853 583 836 426 q 874 885 869 739 l 242 885 l 242 1004 l 1025 1004 q 1004 622 1025 807 q 957 299 983 436 z "},"곡":{"ha":1250,"x_min":31,"x_max":1221,"o":"m 478 468 l 478 725 l 622 725 l 622 468 l 1221 468 l 1221 354 l 31 354 l 31 468 l 478 468 m 224 93 l 224 208 l 1011 208 l 1011 -235 l 865 -235 l 865 93 l 224 93 m 967 554 l 819 554 q 838 632 828 585 q 856 729 847 679 q 866 828 863 781 q 868 910 869 876 l 231 910 l 231 1031 l 1021 1031 q 1018 914 1022 979 q 1006 781 1014 849 q 989 659 999 718 q 967 554 979 600 z "},"곤":{"ha":1250,"x_min":29,"x_max":1221,"o":"m 482 433 l 482 704 l 626 704 l 626 433 l 1221 433 l 1221 318 l 29 318 l 29 433 l 482 433 m 242 186 l 393 186 l 393 -92 l 1035 -92 l 1035 -208 l 242 -208 l 242 186 m 967 538 l 819 538 q 838 617 828 568 q 856 721 847 667 q 866 825 863 775 q 868 908 869 875 l 228 908 l 228 1029 l 1021 1029 q 1018 910 1022 978 q 1006 774 1014 842 q 989 648 999 711 q 967 538 979 585 z "},"곧":{"ha":1250,"x_min":31,"x_max":1221,"o":"m 478 468 l 478 725 l 622 725 l 622 468 l 1221 468 l 1221 354 l 31 354 l 31 468 l 478 468 m 238 214 l 1011 214 l 1011 97 l 379 97 l 379 -99 l 1022 -99 l 1022 -210 l 238 -210 l 238 214 m 967 554 l 819 554 q 838 632 828 585 q 856 729 847 679 q 866 828 863 781 q 868 910 869 876 l 231 910 l 231 1031 l 1021 1031 q 1018 914 1022 979 q 1006 781 1014 849 q 989 659 999 718 q 967 554 979 600 z "},"골":{"ha":1250,"x_min":29,"x_max":1219,"o":"m 468 517 l 468 742 l 613 742 l 613 517 l 1219 517 l 1219 401 l 29 401 l 29 517 l 468 517 m 238 96 l 856 96 l 856 189 l 238 189 l 238 299 l 1010 299 l 1010 -7 l 393 -7 l 393 -103 l 1036 -103 l 1036 -212 l 238 -212 l 238 96 m 967 583 l 819 583 q 838 657 828 614 q 854 744 847 700 q 865 833 861 790 q 867 910 868 876 l 229 910 l 229 1031 l 1021 1031 q 1020 922 1022 981 q 1010 803 1018 863 q 992 685 1003 742 q 967 583 981 629 z "},"곪":{"ha":1250,"x_min":29,"x_max":1219,"o":"m 468 517 l 468 742 l 613 742 l 613 517 l 1219 517 l 1219 401 l 29 401 l 29 517 l 468 517 m 681 -212 l 681 299 l 1043 299 l 1043 -212 l 681 -212 m 810 196 l 810 -108 l 914 -108 l 914 196 l 810 196 m 967 583 l 819 583 q 838 657 828 614 q 854 744 847 700 q 865 833 861 790 q 867 910 868 876 l 229 910 l 229 1031 l 1021 1031 q 1020 922 1022 981 q 1010 803 1018 863 q 992 685 1003 742 q 967 583 981 629 m 222 100 l 464 100 l 464 189 l 222 189 l 222 299 l 597 299 l 597 -6 l 356 -6 l 356 -101 l 422 -101 q 517 -99 460 -101 q 626 -89 574 -96 l 626 -199 q 489 -210 564 -206 q 354 -214 414 -214 l 222 -214 l 222 100 z "},"곬":{"ha":1250,"x_min":29,"x_max":1219,"o":"m 468 517 l 468 742 l 613 742 l 613 517 l 1219 517 l 1219 401 l 29 401 l 29 517 l 468 517 m 639 -169 l 639 -199 q 502 -210 576 -206 q 367 -214 428 -214 l 222 -214 l 222 97 l 481 97 l 481 190 l 222 190 l 222 300 l 615 300 l 615 -8 l 356 -8 l 356 -101 l 433 -101 q 528 -99 471 -101 q 639 -89 586 -96 l 639 -144 q 727 -72 692 -110 q 785 6 763 -35 q 817 89 808 44 q 826 179 826 133 l 826 311 l 961 311 l 961 183 q 970 88 961 133 q 1000 0 979 42 q 1060 -82 1022 -42 q 1158 -160 1099 -122 l 1086 -237 q 1027 -196 1056 -217 q 975 -150 999 -175 q 928 -97 949 -125 q 894 -40 908 -69 q 863 -91 882 -65 q 822 -140 843 -117 q 765 -192 794 -168 q 704 -237 735 -217 l 639 -169 m 967 583 l 819 583 q 838 657 828 614 q 854 744 847 700 q 865 833 861 790 q 867 910 868 876 l 229 910 l 229 1031 l 1021 1031 q 1020 922 1022 981 q 1010 803 1018 863 q 992 685 1003 742 q 967 583 981 629 z "},"곯":{"ha":1250,"x_min":29,"x_max":1219,"o":"m 468 517 l 468 742 l 613 742 l 613 517 l 1219 517 l 1219 401 l 29 401 l 29 517 l 468 517 m 967 583 l 819 583 q 838 657 828 614 q 854 744 847 700 q 865 833 861 790 q 867 910 868 876 l 229 910 l 229 1031 l 1021 1031 q 1020 922 1022 981 q 1010 803 1018 863 q 992 685 1003 742 q 967 583 981 629 m 221 90 l 469 90 l 469 183 l 221 183 l 221 292 l 603 292 l 603 -12 l 357 -12 l 357 -103 l 426 -103 q 521 -100 464 -103 q 631 -90 578 -97 l 631 -199 q 494 -210 568 -206 q 358 -214 419 -214 l 221 -214 l 221 90 m 1050 82 q 1094 24 1076 58 q 1111 -49 1111 -11 q 1048 -195 1111 -137 q 893 -253 985 -253 q 808 -237 847 -253 q 739 -194 768 -222 q 692 -130 708 -167 q 675 -49 675 -93 q 692 24 675 -12 q 735 82 710 61 l 647 82 l 647 190 l 824 190 l 824 332 l 963 332 l 963 190 l 1139 190 l 1139 82 l 1050 82 m 893 71 q 826 38 851 71 q 800 -40 800 4 q 828 -118 800 -86 q 893 -150 856 -150 q 959 -117 931 -150 q 988 -40 988 -85 q 960 37 988 3 q 893 71 933 71 z "},"곰":{"ha":1250,"x_min":31,"x_max":1221,"o":"m 478 468 l 478 725 l 622 725 l 622 468 l 1221 468 l 1221 354 l 31 354 l 31 468 l 478 468 m 238 215 l 1015 215 l 1015 -214 l 238 -214 l 238 215 m 383 100 l 383 -100 l 865 -100 l 865 100 l 383 100 m 967 554 l 819 554 q 838 632 828 585 q 856 729 847 679 q 866 828 863 781 q 868 910 869 876 l 231 910 l 231 1031 l 1021 1031 q 1018 914 1022 979 q 1006 781 1014 849 q 989 659 999 718 q 967 554 979 600 z "},"곱":{"ha":1250,"x_min":29,"x_max":1221,"o":"m 474 497 l 474 726 l 618 726 l 618 497 l 1221 497 l 1221 381 l 29 381 l 29 497 l 474 497 m 238 286 l 383 286 l 383 151 l 868 151 l 868 286 l 1014 286 l 1014 -211 l 238 -211 l 238 286 m 868 39 l 383 39 l 383 -97 l 868 -97 l 868 39 m 967 583 l 819 583 q 838 657 828 614 q 854 744 847 700 q 865 833 861 790 q 867 910 868 876 l 229 910 l 229 1031 l 1021 1031 q 1020 922 1022 981 q 1010 803 1018 863 q 992 685 1003 742 q 967 583 981 629 z "},"곳":{"ha":1250,"x_min":31,"x_max":1221,"o":"m 475 461 l 475 715 l 619 715 l 619 461 l 1221 461 l 1221 344 l 31 344 l 31 461 l 475 461 m 543 247 l 708 247 l 708 156 q 744 51 708 99 q 833 -36 779 3 q 950 -101 886 -74 q 1078 -144 1014 -128 l 992 -242 q 888 -208 942 -229 q 783 -157 833 -186 q 692 -94 733 -129 q 628 -19 650 -58 q 566 -89 606 -56 q 478 -150 526 -122 q 369 -203 426 -179 q 260 -239 311 -226 l 174 -144 q 305 -99 239 -128 q 425 -28 371 -69 q 509 55 475 8 q 543 156 543 101 l 543 247 m 967 538 l 819 538 q 838 617 828 568 q 856 721 847 667 q 866 825 863 775 q 868 908 869 875 l 228 908 l 228 1029 l 1021 1029 q 1018 910 1022 978 q 1006 774 1014 842 q 989 648 999 711 q 967 538 979 585 z "},"공":{"ha":1250,"x_min":31,"x_max":1221,"o":"m 478 468 l 478 725 l 622 725 l 622 468 l 1221 468 l 1221 354 l 31 354 l 31 468 l 478 468 m 958 -7 q 933 -115 958 -64 q 863 -203 907 -165 q 759 -262 818 -240 q 632 -283 700 -283 q 505 -262 564 -283 q 401 -203 446 -240 q 332 -115 357 -165 q 307 -7 307 -64 q 332 101 307 50 q 401 189 357 151 q 505 249 446 226 q 632 271 564 271 q 759 249 700 271 q 863 189 818 226 q 933 101 907 151 q 958 -7 958 50 m 811 -7 q 760 108 811 61 q 632 156 708 156 q 503 108 557 156 q 450 -7 450 61 q 501 -122 450 -75 q 628 -168 553 -168 q 757 -122 703 -168 q 811 -7 811 -75 m 967 554 l 819 554 q 838 632 828 585 q 856 729 847 679 q 866 828 863 781 q 868 910 869 876 l 231 910 l 231 1031 l 1021 1031 q 1018 914 1022 979 q 1006 781 1014 849 q 989 659 999 718 q 967 554 979 600 z "},"곶":{"ha":1250,"x_min":29,"x_max":1221,"o":"m 474 497 l 474 726 l 618 726 l 618 497 l 1221 497 l 1221 381 l 29 381 l 29 497 l 474 497 m 551 142 l 239 142 l 239 258 l 1011 258 l 1011 142 l 699 142 q 736 38 700 86 q 825 -49 772 -11 q 942 -117 879 -89 q 1063 -160 1004 -144 l 986 -249 q 883 -212 936 -236 q 781 -160 829 -189 q 692 -96 732 -131 q 626 -24 653 -61 q 561 -94 601 -61 q 475 -156 521 -128 q 368 -210 424 -186 q 261 -249 313 -235 l 181 -160 q 310 -112 242 -143 q 436 -37 379 -82 q 516 43 483 -3 q 551 142 549 89 m 967 583 l 819 583 q 838 657 828 614 q 854 744 847 700 q 865 833 861 790 q 867 910 868 876 l 229 910 l 229 1031 l 1021 1031 q 1020 922 1022 981 q 1010 803 1018 863 q 992 685 1003 742 q 967 583 981 629 z "},"과":{"ha":1250,"x_min":36,"x_max":1253,"o":"m 1064 599 l 1253 599 l 1253 479 l 1064 479 l 1064 -171 l 921 -171 l 921 1069 l 1064 1069 l 1064 599 m 679 382 l 536 382 q 556 501 547 438 q 572 632 565 565 q 583 762 579 697 q 588 883 588 826 l 146 883 l 146 1004 l 739 1004 q 734 838 739 922 q 721 671 729 753 q 703 515 714 589 q 679 382 692 440 m 288 168 l 288 582 l 429 582 l 429 169 q 659 179 542 171 q 860 200 776 188 l 860 88 q 610 60 764 71 q 278 51 457 50 l 36 50 l 36 168 l 288 168 z "},"곽":{"ha":1250,"x_min":29,"x_max":1250,"o":"m 265 465 l 265 728 l 408 728 l 408 469 q 655 482 533 474 q 854 500 776 490 l 854 388 q 744 376 813 382 q 594 367 675 371 q 429 358 514 361 q 272 354 344 354 l 29 353 l 29 465 l 265 465 m 293 100 l 293 217 l 1056 217 l 1056 -225 l 910 -225 l 910 100 l 293 100 m 667 560 l 519 560 q 539 644 529 593 q 554 750 549 696 q 563 839 558 796 q 567 914 567 882 l 121 914 l 121 1035 l 717 1035 q 713 931 717 989 q 704 811 708 872 q 688 673 697 740 q 667 560 678 606 m 1064 585 l 1064 279 l 919 279 l 919 1071 l 1064 1071 l 1064 703 l 1250 703 l 1250 585 l 1064 585 z "},"관":{"ha":1250,"x_min":29,"x_max":1250,"o":"m 258 422 l 258 713 l 401 713 l 401 425 q 651 438 528 429 q 854 456 775 446 l 854 343 q 740 331 810 336 q 592 321 671 325 q 428 313 511 315 q 272 310 344 310 l 29 308 l 29 422 l 258 422 m 324 167 l 469 167 l 469 -93 l 1082 -93 l 1082 -211 l 324 -211 l 324 167 m 667 540 l 522 540 q 551 731 542 631 q 564 914 561 831 l 121 914 l 121 1035 l 717 1035 q 713 909 717 974 q 703 779 708 844 q 687 653 696 715 q 667 540 678 592 m 1064 538 l 1064 135 l 919 135 l 919 1071 l 1064 1071 l 1064 656 l 1250 656 l 1250 538 l 1064 538 z "},"괄":{"ha":1250,"x_min":29,"x_max":1250,"o":"m 261 519 l 261 747 l 404 747 l 404 522 q 653 535 529 526 q 854 553 776 543 l 854 440 q 740 428 810 433 q 592 418 671 422 q 428 410 511 413 q 272 407 344 407 l 29 406 l 29 519 l 261 519 m 321 97 l 906 97 l 906 185 l 321 185 l 321 294 l 1061 294 l 1061 -8 l 479 -8 l 479 -100 l 1092 -100 l 1092 -212 l 321 -212 l 321 97 m 667 606 l 519 606 q 540 678 531 635 q 554 771 549 722 q 561 847 558 810 q 564 914 564 885 l 121 914 l 121 1035 l 717 1035 q 713 924 717 983 q 701 806 708 864 q 687 698 696 749 q 667 606 678 647 m 1064 622 l 1064 363 l 919 363 l 919 1071 l 1064 1071 l 1064 740 l 1250 740 l 1250 622 l 1064 622 z "},"괆":{"ha":1250,"x_min":29,"x_max":1250,"o":"m 261 519 l 261 747 l 404 747 l 404 522 q 653 535 529 526 q 854 553 776 543 l 854 440 q 740 428 810 433 q 592 418 671 422 q 428 410 511 413 q 272 407 344 407 l 29 406 l 29 519 l 261 519 m 700 -212 l 700 300 l 1061 300 l 1061 -212 l 700 -212 m 829 197 l 829 -108 l 932 -108 l 932 197 l 829 197 m 667 606 l 519 606 q 540 678 531 635 q 554 771 549 722 q 561 847 558 810 q 564 914 564 885 l 121 914 l 121 1035 l 717 1035 q 713 924 717 983 q 701 806 708 864 q 687 698 696 749 q 667 606 678 647 m 243 101 l 482 101 l 482 192 l 243 192 l 243 301 l 617 301 l 617 -4 l 375 -4 l 375 -101 l 442 -101 q 536 -99 479 -101 q 646 -89 593 -96 l 646 -199 q 509 -210 583 -206 q 374 -214 435 -214 l 243 -214 l 243 101 m 1064 622 l 1064 363 l 919 363 l 919 1071 l 1064 1071 l 1064 740 l 1250 740 l 1250 622 l 1064 622 z "},"괌":{"ha":1250,"x_min":29,"x_max":1250,"o":"m 265 465 l 265 728 l 408 728 l 408 469 q 655 482 533 474 q 854 500 776 490 l 854 388 q 744 376 813 382 q 594 367 675 371 q 429 358 514 361 q 272 354 344 354 l 29 353 l 29 465 l 265 465 m 325 -211 l 325 221 l 1060 221 l 1060 -211 l 325 -211 m 469 104 l 469 -97 l 915 -97 l 915 104 l 469 104 m 667 560 l 519 560 q 539 644 529 593 q 554 750 549 696 q 563 839 558 796 q 567 914 567 882 l 121 914 l 121 1035 l 717 1035 q 713 931 717 989 q 704 811 708 872 q 688 673 697 740 q 667 560 678 606 m 1064 585 l 1064 279 l 919 279 l 919 1071 l 1064 1071 l 1064 703 l 1250 703 l 1250 585 l 1064 585 z "},"괍":{"ha":1250,"x_min":29,"x_max":1250,"o":"m 261 511 l 261 735 l 404 735 l 404 514 q 653 526 529 518 q 854 543 776 535 l 854 432 q 742 419 811 425 q 593 408 674 414 q 428 401 513 404 q 272 397 344 397 l 29 396 l 29 511 l 261 511 m 328 286 l 472 286 l 472 151 l 918 151 l 918 286 l 1064 286 l 1064 -211 l 328 -211 l 328 286 m 918 39 l 472 39 l 472 -97 l 918 -97 l 918 39 m 667 593 l 519 593 q 536 663 528 617 q 551 758 544 710 q 560 849 556 806 q 564 914 564 892 l 121 914 l 121 1035 l 717 1035 q 715 936 718 999 q 703 807 711 874 q 685 682 694 740 q 667 593 675 624 m 1064 628 l 1064 360 l 919 356 l 919 1071 l 1064 1071 l 1064 744 l 1250 744 l 1250 628 l 1064 628 z "},"괏":{"ha":1250,"x_min":29,"x_max":1250,"o":"m 263 458 l 263 728 l 406 728 l 406 463 q 653 474 531 467 q 854 492 776 482 l 854 381 q 745 368 814 374 q 596 357 676 363 q 430 348 515 351 q 272 344 344 344 l 29 343 l 29 458 l 263 458 m 571 243 l 739 243 l 739 156 q 769 55 739 103 q 849 -31 799 7 q 958 -101 899 -72 q 1076 -147 1018 -131 l 997 -240 q 901 -204 950 -228 q 806 -151 851 -181 q 717 -85 757 -121 q 656 -11 676 -49 q 600 -79 636 -44 q 519 -143 564 -114 q 415 -202 469 -176 q 311 -240 361 -228 l 231 -147 q 355 -99 290 -131 q 471 -22 419 -67 q 543 60 515 15 q 571 156 571 106 l 571 243 m 667 560 l 519 560 q 539 644 529 593 q 554 750 549 696 q 563 839 558 796 q 567 914 567 882 l 121 914 l 121 1035 l 717 1035 q 713 931 717 989 q 704 811 708 872 q 688 673 697 740 q 667 560 678 606 m 1064 560 l 1064 194 l 919 194 l 919 1071 l 1064 1071 l 1064 676 l 1250 676 l 1250 560 l 1064 560 z "},"광":{"ha":1250,"x_min":29,"x_max":1250,"o":"m 265 465 l 265 728 l 408 728 l 408 469 q 655 482 533 474 q 854 500 776 490 l 854 388 q 744 376 813 382 q 594 367 675 371 q 429 358 514 361 q 272 354 344 354 l 29 353 l 29 465 l 265 465 m 1026 1 q 1001 -106 1026 -56 q 931 -193 975 -156 q 826 -252 886 -231 q 700 -274 767 -274 q 573 -252 632 -274 q 469 -193 514 -231 q 399 -106 425 -156 q 374 1 374 -56 q 399 109 374 58 q 469 197 425 160 q 573 257 514 235 q 700 279 632 279 q 826 257 767 279 q 931 197 886 235 q 1001 109 975 160 q 1026 1 1026 58 m 879 1 q 828 117 879 69 q 700 165 776 165 q 571 117 625 165 q 517 1 517 69 q 569 -113 517 -67 q 696 -160 621 -160 q 825 -113 771 -160 q 879 1 879 -67 m 667 560 l 519 560 q 539 644 529 593 q 554 750 549 696 q 563 839 558 796 q 567 914 567 882 l 121 914 l 121 1035 l 717 1035 q 713 931 717 989 q 704 811 708 872 q 688 673 697 740 q 667 560 678 606 m 1064 585 l 1064 279 l 919 279 l 919 1071 l 1064 1071 l 1064 703 l 1250 703 l 1250 585 l 1064 585 z "},"괘":{"ha":1250,"x_min":43,"x_max":1168,"o":"m 1031 457 l 900 457 l 900 -124 l 769 -124 l 769 1050 l 900 1050 l 900 576 l 1031 576 l 1031 1069 l 1168 1069 l 1168 -171 l 1031 -171 l 1031 457 m 594 393 l 450 393 q 467 511 458 449 q 482 638 476 574 q 493 765 489 703 q 497 883 497 828 l 126 883 l 126 1004 l 646 1004 q 631 672 644 831 q 594 393 617 514 m 232 183 l 232 604 l 369 604 l 369 188 q 549 199 451 192 q 719 215 646 206 l 719 103 q 599 88 669 94 q 451 76 529 82 q 290 69 372 72 q 136 67 208 67 l 43 67 l 43 181 l 126 181 q 180 181 151 181 q 232 183 208 181 z "},"괜":{"ha":1250,"x_min":21,"x_max":1171,"o":"m 219 411 l 219 717 l 358 717 l 358 417 q 547 427 454 421 q 717 442 639 433 l 717 331 q 591 318 660 324 q 449 308 522 313 q 300 300 375 303 q 158 297 225 297 l 21 296 l 21 411 l 219 411 m 1031 567 l 900 567 l 900 147 l 768 147 l 768 1056 l 900 1056 l 900 688 l 1031 688 l 1031 1069 l 1168 1069 l 1168 122 l 1031 122 l 1031 567 m 593 535 l 446 535 q 472 637 463 582 q 490 743 482 692 q 496 831 494 790 q 496 897 497 871 l 97 897 l 97 1018 l 644 1018 q 642 910 644 975 q 632 776 639 846 q 616 646 626 710 q 593 535 606 582 m 408 156 l 554 156 l 554 -93 l 1171 -93 l 1171 -211 l 408 -211 l 408 156 z "},"괠":{"ha":1250,"x_min":21,"x_max":1179,"o":"m 219 494 l 219 746 l 358 746 l 358 500 q 547 510 454 504 q 717 525 639 517 l 717 414 q 591 401 660 407 q 449 392 522 396 q 300 383 375 386 q 158 381 225 381 l 21 379 l 21 494 l 219 494 m 1031 600 l 900 600 l 900 339 l 768 339 l 768 1056 l 900 1056 l 900 721 l 1031 721 l 1031 1069 l 1168 1069 l 1168 335 l 1031 335 l 1031 600 m 593 589 l 446 589 q 470 678 460 631 q 489 771 481 725 q 495 839 493 806 q 496 897 497 872 l 97 897 l 97 1018 l 644 1018 q 641 920 644 976 q 632 807 638 864 q 615 688 625 744 q 593 589 606 632 m 411 89 l 994 89 l 994 168 l 411 168 l 411 278 l 1150 278 l 1150 -17 l 568 -17 l 568 -100 l 1179 -100 l 1179 -212 l 411 -212 l 411 89 z "},"괩":{"ha":1250,"x_min":21,"x_max":1168,"o":"m 219 486 l 219 744 l 358 744 l 358 492 q 547 502 454 496 q 717 517 639 508 l 717 406 q 591 393 660 399 q 449 383 522 388 q 300 375 375 378 q 158 372 225 372 l 21 371 l 21 486 l 219 486 m 1031 593 l 900 593 l 900 331 l 768 331 l 768 1056 l 900 1056 l 900 714 l 1031 714 l 1031 1069 l 1168 1069 l 1168 326 l 1031 326 l 1031 593 m 593 589 l 446 589 q 470 678 460 631 q 489 771 481 725 q 495 839 493 806 q 496 897 497 872 l 97 897 l 97 1018 l 644 1018 q 641 920 644 976 q 632 807 638 864 q 615 688 625 744 q 593 589 606 632 m 436 269 l 582 269 l 582 139 l 1015 139 l 1015 269 l 1160 269 l 1160 -211 l 436 -211 l 436 269 m 1015 26 l 582 26 l 582 -97 l 1015 -97 l 1015 26 z "},"괬":{"ha":1250,"x_min":21,"x_max":1222,"o":"m 219 444 l 219 728 l 358 728 l 358 450 q 547 460 454 454 q 717 475 639 467 l 717 364 q 591 351 660 357 q 449 342 522 346 q 300 333 375 336 q 158 331 225 331 l 21 329 l 21 444 l 219 444 m 1031 586 l 900 586 l 900 274 l 768 274 l 768 1056 l 900 1056 l 900 707 l 1031 707 l 1031 1069 l 1168 1069 l 1168 269 l 1031 269 l 1031 586 m 593 556 l 446 556 q 471 649 461 600 q 486 744 481 699 q 494 830 492 790 q 496 897 496 869 l 97 897 l 97 1018 l 644 1018 q 642 919 644 976 q 633 799 639 861 q 617 668 626 732 q 593 556 608 604 m 722 -242 q 651 -201 685 -224 q 593 -153 618 -178 q 547 -108 565 -131 q 515 -61 528 -85 q 482 -108 501 -86 q 438 -151 463 -131 q 372 -199 408 -176 q 296 -242 336 -221 l 219 -153 q 321 -89 278 -124 q 393 -14 364 -54 q 429 66 417 22 q 442 164 442 110 l 442 210 l 585 210 l 585 167 q 598 68 585 115 q 636 -18 611 21 q 674 -64 653 -43 q 719 -101 694 -85 q 769 -60 747 -83 q 808 -12 792 -37 q 845 71 833 25 q 857 167 857 117 l 857 210 l 1001 210 l 1001 164 q 1013 69 1001 113 q 1050 -12 1025 25 q 1118 -90 1075 -54 q 1222 -153 1161 -125 l 1151 -242 q 1076 -203 1113 -225 q 1011 -156 1040 -181 q 963 -109 983 -133 q 929 -60 942 -85 q 899 -106 918 -83 q 856 -150 881 -129 q 794 -200 828 -176 q 722 -242 760 -224 z "},"괭":{"ha":1250,"x_min":21,"x_max":1168,"o":"m 219 458 l 219 733 l 358 733 l 358 464 q 547 474 454 468 q 717 489 639 481 l 717 378 q 591 365 660 371 q 449 356 522 360 q 300 347 375 350 q 158 344 225 344 l 21 343 l 21 458 l 219 458 m 1031 592 l 900 592 l 900 325 l 768 325 l 768 1056 l 900 1056 l 900 713 l 1031 713 l 1031 1069 l 1168 1069 l 1168 275 l 1031 275 l 1031 592 m 593 556 l 446 556 q 471 649 461 600 q 486 744 481 699 q 494 830 492 790 q 496 897 496 869 l 97 897 l 97 1018 l 644 1018 q 642 919 644 976 q 633 799 639 861 q 617 668 626 732 q 593 556 608 604 m 1083 1 q 1058 -106 1083 -56 q 988 -193 1032 -156 q 885 -252 944 -231 q 758 -274 825 -274 q 631 -252 690 -274 q 526 -193 571 -231 q 457 -106 482 -156 q 432 1 432 -56 q 457 109 432 58 q 526 197 482 160 q 631 257 571 235 q 758 279 690 279 q 885 257 825 279 q 988 197 944 235 q 1058 109 1032 160 q 1083 1 1083 58 m 936 1 q 885 117 936 69 q 758 165 833 165 q 628 117 682 165 q 575 1 575 69 q 626 -113 575 -67 q 754 -160 678 -160 q 883 -113 829 -160 q 936 1 936 -67 z "},"괴":{"ha":1250,"x_min":50,"x_max":1108,"o":"m 292 169 l 292 596 l 435 596 l 435 172 q 565 177 499 174 q 692 185 631 181 q 806 192 753 188 q 899 201 858 197 l 899 92 q 785 79 854 85 q 635 68 715 74 q 472 59 556 63 q 317 56 389 56 l 50 54 l 50 169 l 292 169 m 967 -171 l 967 1069 l 1108 1069 l 1108 -171 l 967 -171 m 697 382 l 553 382 q 570 497 563 433 q 585 626 578 560 q 594 759 590 693 q 599 883 597 825 l 158 883 l 158 1004 l 751 1004 q 735 664 750 829 q 697 382 719 499 z "},"괵":{"ha":1250,"x_min":29,"x_max":1108,"o":"m 269 465 l 269 728 l 413 728 l 413 468 q 548 473 479 469 q 681 481 617 476 q 801 490 744 485 q 899 500 857 494 l 899 388 q 785 375 854 381 q 635 365 715 369 q 472 357 556 360 q 317 354 389 354 l 29 353 l 29 465 l 269 465 m 681 560 l 533 560 q 553 649 546 597 q 568 754 561 701 q 575 842 572 800 q 578 914 578 883 l 135 914 l 135 1035 l 732 1035 q 727 924 732 986 q 718 797 722 861 q 701 664 710 726 q 681 560 692 601 m 1108 279 l 965 279 l 965 1071 l 1108 1071 l 1108 279 m 336 100 l 336 217 l 1100 217 l 1100 -225 l 954 -225 l 954 100 l 336 100 z "},"괸":{"ha":1250,"x_min":29,"x_max":1118,"o":"m 272 422 l 272 696 l 415 696 l 415 425 q 550 430 482 426 q 682 438 618 433 q 801 446 746 442 q 899 456 857 450 l 899 343 q 785 331 854 336 q 635 321 715 325 q 472 313 556 315 q 317 310 389 310 l 29 308 l 29 422 l 272 422 m 679 526 l 532 526 q 550 617 542 567 q 565 718 558 667 q 573 821 569 771 q 576 914 576 871 l 133 914 l 133 1035 l 729 1035 q 726 915 729 982 q 717 782 722 849 q 701 640 710 708 q 679 526 692 572 m 1108 135 l 965 135 l 965 1071 l 1108 1071 l 1108 135 m 357 167 l 503 167 l 503 -93 l 1118 -93 l 1118 -211 l 357 -211 l 357 167 z "},"괼":{"ha":1250,"x_min":29,"x_max":1128,"o":"m 274 521 l 274 747 l 417 747 l 417 524 q 551 528 483 525 q 683 536 619 532 q 802 544 747 540 q 899 554 857 549 l 899 442 q 785 429 854 435 q 635 419 715 424 q 472 411 556 414 q 317 408 389 408 l 29 407 l 29 521 l 274 521 m 681 606 l 533 606 q 554 678 546 635 q 569 771 563 722 q 576 847 574 810 q 578 914 578 885 l 135 914 l 135 1035 l 732 1035 q 728 924 732 983 q 717 806 724 864 q 701 698 710 749 q 681 606 693 647 m 1108 363 l 965 363 l 965 1071 l 1108 1071 l 1108 363 m 358 97 l 944 97 l 944 185 l 358 185 l 358 294 l 1100 294 l 1100 -8 l 517 -8 l 517 -100 l 1128 -100 l 1128 -212 l 358 -212 l 358 97 z "},"굄":{"ha":1250,"x_min":29,"x_max":1108,"o":"m 269 465 l 269 728 l 413 728 l 413 468 q 548 473 479 469 q 681 481 617 476 q 801 490 744 485 q 899 500 857 494 l 899 388 q 785 375 854 381 q 635 365 715 369 q 472 357 556 360 q 317 354 389 354 l 29 353 l 29 465 l 269 465 m 1108 279 l 965 279 l 965 1071 l 1108 1071 l 1108 279 m 681 560 l 533 560 q 553 649 546 597 q 568 754 561 701 q 575 842 572 800 q 578 914 578 883 l 135 914 l 135 1035 l 732 1035 q 727 924 732 986 q 718 797 722 861 q 701 664 710 726 q 681 560 692 601 m 361 -211 l 361 221 l 1099 221 l 1099 -211 l 361 -211 m 508 104 l 508 -97 l 953 -97 l 953 104 l 508 104 z "},"굅":{"ha":1250,"x_min":29,"x_max":1108,"o":"m 271 511 l 271 746 l 414 746 l 414 514 q 549 518 481 515 q 681 525 617 521 q 801 534 744 529 q 899 543 857 539 l 899 432 q 785 419 854 425 q 635 408 715 414 q 472 401 556 404 q 317 397 389 397 l 29 396 l 29 511 l 271 511 m 1108 354 l 965 353 l 965 1071 l 1108 1071 l 1108 354 m 678 593 l 531 593 q 540 623 535 604 q 549 663 544 642 q 556 709 553 685 q 564 758 560 733 q 572 849 568 806 q 575 914 575 892 l 132 914 l 132 1035 l 728 1035 q 726 936 731 999 q 715 807 722 874 q 697 682 707 740 q 678 593 688 624 m 367 286 l 513 286 l 513 151 l 957 151 l 957 286 l 1103 286 l 1103 -211 l 367 -211 l 367 286 m 957 39 l 513 39 l 513 -97 l 957 -97 l 957 39 z "},"굇":{"ha":1250,"x_min":29,"x_max":1108,"o":"m 269 460 l 269 728 l 413 728 l 413 463 q 548 467 479 464 q 681 474 617 469 q 801 483 744 478 q 899 493 857 488 l 899 382 q 785 369 854 375 q 635 358 715 364 q 472 351 556 354 q 317 347 389 347 l 29 344 l 29 460 l 269 460 m 681 560 l 533 560 q 552 629 544 585 q 567 724 560 674 q 574 829 571 778 q 578 914 578 881 l 135 914 l 135 1035 l 732 1035 q 727 908 732 981 q 715 763 722 835 q 700 651 708 704 q 681 560 692 597 m 1108 194 l 965 194 l 965 1071 l 1108 1071 l 1108 194 m 606 254 l 767 254 l 767 164 q 798 60 767 110 q 878 -31 829 10 q 989 -108 928 -76 q 1108 -154 1050 -139 l 1029 -246 q 930 -208 982 -233 q 831 -150 878 -183 q 747 -81 785 -118 q 689 -8 708 -44 q 635 -76 671 -42 q 556 -142 600 -111 q 449 -204 506 -176 q 343 -246 393 -232 l 264 -154 q 386 -103 322 -137 q 503 -22 450 -69 q 577 65 549 17 q 606 164 606 113 l 606 254 z "},"굉":{"ha":1250,"x_min":29,"x_max":1108,"o":"m 271 465 l 271 728 l 414 728 l 414 468 q 549 473 481 469 q 681 481 617 476 q 801 490 744 485 q 899 500 857 494 l 899 388 q 785 375 854 381 q 635 365 715 369 q 472 357 556 360 q 317 354 389 354 l 29 353 l 29 465 l 271 465 m 681 560 l 533 560 q 552 629 544 585 q 567 724 560 674 q 574 829 571 778 q 578 914 578 881 l 135 914 l 135 1035 l 732 1035 q 727 908 732 981 q 715 763 722 835 q 700 651 708 704 q 681 560 692 597 m 1108 279 l 965 279 l 965 1071 l 1108 1071 l 1108 279 m 1046 1 q 1020 -106 1046 -56 q 950 -193 994 -156 q 846 -252 906 -231 q 719 -274 786 -274 q 592 -252 651 -274 q 489 -193 533 -231 q 419 -106 444 -156 q 394 1 394 -56 q 419 109 394 58 q 489 197 444 160 q 592 257 533 235 q 719 279 651 279 q 846 257 786 279 q 950 197 906 235 q 1020 109 994 160 q 1046 1 1046 58 m 899 1 q 847 117 899 69 q 719 165 796 165 q 590 117 644 165 q 536 1 536 69 q 588 -113 536 -67 q 715 -160 640 -160 q 844 -113 790 -160 q 899 1 899 -67 z "},"교":{"ha":1250,"x_min":35,"x_max":1214,"o":"m 344 78 l 344 554 l 478 554 l 478 78 l 639 78 l 639 554 l 772 554 l 772 78 l 1214 78 l 1214 -43 l 35 -43 l 35 78 l 344 78 m 1017 296 l 878 296 q 888 431 883 358 q 896 582 893 504 q 901 735 899 658 q 904 885 903 813 l 238 885 l 238 1004 l 1050 1004 q 1048 814 1050 910 q 1042 626 1046 718 q 1031 451 1038 535 q 1017 296 1025 367 z "},"굔":{"ha":1250,"x_min":31,"x_max":1221,"o":"m 338 404 l 338 690 l 472 690 l 472 404 l 618 404 l 618 690 l 751 690 l 751 404 l 1221 404 l 1221 288 l 31 288 l 31 404 l 338 404 m 982 538 l 835 538 q 853 617 843 568 q 871 721 864 667 q 883 825 879 775 q 885 908 886 875 l 233 908 l 233 1029 l 1036 1029 q 1035 910 1039 978 q 1024 774 1031 842 q 1006 648 1017 711 q 982 538 994 585 m 242 186 l 393 186 l 393 -92 l 1035 -92 l 1035 -208 l 242 -208 l 242 186 z "},"굘":{"ha":1250,"x_min":29,"x_max":1219,"o":"m 338 514 l 338 746 l 472 746 l 472 514 l 618 514 l 618 746 l 751 746 l 751 514 l 1219 514 l 1219 401 l 29 401 l 29 514 l 338 514 m 978 583 l 831 583 q 849 657 839 614 q 865 744 858 700 q 877 833 874 790 q 879 910 881 876 l 232 910 l 232 1031 l 1032 1031 q 1031 922 1033 981 q 1024 803 1029 863 q 1005 685 1017 742 q 978 583 993 629 m 238 96 l 856 96 l 856 189 l 238 189 l 238 299 l 1010 299 l 1010 -7 l 393 -7 l 393 -103 l 1036 -103 l 1036 -212 l 238 -212 l 238 96 z "},"굡":{"ha":1250,"x_min":29,"x_max":1219,"o":"m 338 471 l 338 726 l 472 726 l 472 471 l 618 471 l 618 726 l 751 726 l 751 471 l 1219 471 l 1219 360 l 29 360 l 29 471 l 338 471 m 978 583 l 831 583 q 849 657 839 614 q 865 744 858 700 q 877 833 874 790 q 879 910 881 876 l 232 910 l 232 1031 l 1032 1031 q 1031 922 1033 981 q 1024 803 1029 863 q 1005 685 1017 742 q 978 583 993 629 m 238 286 l 383 286 l 383 151 l 868 151 l 868 286 l 1014 286 l 1014 -211 l 238 -211 l 238 286 m 868 39 l 383 39 l 383 -97 l 868 -97 l 868 39 z "},"굣":{"ha":1250,"x_min":31,"x_max":1221,"o":"m 336 439 l 336 725 l 471 725 l 471 439 l 618 439 l 618 725 l 751 725 l 751 439 l 1221 439 l 1221 324 l 31 324 l 31 439 l 336 439 m 982 538 l 835 538 q 853 617 843 568 q 871 721 864 667 q 883 825 879 775 q 885 908 886 875 l 233 908 l 233 1029 l 1036 1029 q 1035 910 1039 978 q 1024 774 1031 842 q 1006 648 1017 711 q 982 538 994 585 m 543 247 l 708 247 l 708 156 q 744 51 708 99 q 833 -36 779 3 q 950 -101 886 -74 q 1078 -144 1014 -128 l 992 -242 q 888 -208 942 -229 q 783 -157 833 -186 q 692 -94 733 -129 q 628 -19 650 -58 q 566 -89 606 -56 q 478 -150 526 -122 q 369 -203 426 -179 q 260 -239 311 -226 l 174 -144 q 305 -99 239 -128 q 425 -28 371 -69 q 509 55 475 8 q 543 156 543 101 l 543 247 z "},"구":{"ha":1250,"x_min":33,"x_max":1215,"o":"m 551 315 l 33 315 l 33 432 l 801 432 q 838 661 822 538 q 857 889 853 785 l 233 889 l 233 1010 l 1010 1010 q 990 706 1008 858 q 947 432 972 554 l 1215 432 l 1215 315 l 706 315 l 706 -187 l 551 -187 l 551 315 z "},"국":{"ha":1250,"x_min":31,"x_max":1221,"o":"m 807 540 q 826 622 817 575 q 842 718 835 668 q 852 817 849 768 q 857 908 856 867 l 235 908 l 235 1029 l 1010 1029 q 1005 903 1008 968 q 994 774 1001 838 q 976 649 986 710 q 954 540 967 589 l 1221 540 l 1221 425 l 706 425 l 706 208 l 1011 208 l 1011 -235 l 865 -235 l 865 93 l 224 93 l 224 208 l 551 208 l 551 425 l 31 425 l 31 540 l 807 540 z "},"군":{"ha":1250,"x_min":29,"x_max":1221,"o":"m 806 501 q 827 609 817 551 q 846 724 838 667 q 856 828 853 779 q 857 908 858 876 l 232 908 l 232 1029 l 1010 1029 q 1008 969 1010 1004 q 1004 896 1007 935 q 999 819 1003 858 q 992 749 996 781 q 974 623 985 690 q 951 501 964 556 l 1221 501 l 1221 383 l 721 383 l 721 64 l 569 64 l 569 383 l 29 383 l 29 501 l 806 501 m 238 196 l 389 196 l 389 -90 l 1035 -90 l 1035 -208 l 238 -208 l 238 196 z "},"굳":{"ha":1250,"x_min":31,"x_max":1221,"o":"m 807 540 q 826 624 817 575 q 844 725 836 674 q 856 825 851 776 q 857 908 860 874 l 235 908 l 235 1029 l 1010 1029 q 1007 916 1010 979 q 997 790 1004 853 q 978 653 990 717 q 954 540 967 590 l 1221 540 l 1221 425 l 706 425 l 706 214 l 1011 214 l 1011 97 l 379 97 l 379 -99 l 1022 -99 l 1022 -210 l 238 -210 l 238 214 l 551 214 l 551 425 l 31 425 l 31 540 l 807 540 z "},"굴":{"ha":1250,"x_min":31,"x_max":1221,"o":"m 810 593 q 828 669 818 628 q 846 753 838 710 q 856 835 853 794 q 857 908 860 875 l 235 908 l 235 1029 l 1010 1029 q 1008 915 1011 975 q 996 797 1004 856 q 978 685 989 739 q 957 593 967 632 l 1221 593 l 1221 481 l 706 481 l 706 335 l 1011 335 l 1011 15 l 393 15 l 393 -103 l 1038 -103 l 1038 -212 l 238 -212 l 238 118 l 857 118 l 857 226 l 238 226 l 238 335 l 551 335 l 551 481 l 31 481 l 31 593 l 810 593 z "},"굵":{"ha":1250,"x_min":31,"x_max":1221,"o":"m 810 593 q 828 669 818 628 q 846 753 838 710 q 856 835 853 794 q 857 908 860 875 l 235 908 l 235 1029 l 1010 1029 q 1008 915 1011 975 q 996 797 1004 856 q 978 685 989 739 q 957 593 967 632 l 1221 593 l 1221 481 l 706 481 l 706 332 l 1031 332 l 1031 -226 l 896 -226 l 896 218 l 679 218 l 679 278 l 608 278 l 608 8 l 354 8 l 354 -101 l 433 -101 q 550 -97 482 -101 q 678 -85 618 -92 l 678 -193 q 517 -208 606 -203 q 354 -214 429 -214 l 215 -214 l 215 115 l 472 115 l 472 224 l 215 224 l 215 332 l 551 332 l 551 481 l 31 481 l 31 593 l 810 593 z "},"굶":{"ha":1250,"x_min":31,"x_max":1221,"o":"m 810 593 q 828 669 818 628 q 846 753 838 710 q 856 835 853 794 q 857 908 860 875 l 235 908 l 235 1029 l 1010 1029 q 1008 915 1011 975 q 996 797 1004 856 q 978 685 989 739 q 957 593 967 632 l 1221 593 l 1221 481 l 706 481 l 706 326 l 1036 326 l 1036 -212 l 675 -212 l 675 278 l 590 278 l 590 4 l 349 4 l 349 -101 l 415 -101 q 510 -99 453 -101 q 619 -89 567 -96 l 619 -199 q 482 -210 557 -206 q 347 -214 407 -214 l 215 -214 l 215 110 l 456 110 l 456 217 l 215 217 l 215 325 l 551 325 l 551 481 l 31 481 l 31 593 l 810 593 m 804 225 l 804 -108 l 907 -108 l 907 225 l 804 225 z "},"굻":{"ha":1250,"x_min":31,"x_max":1221,"o":"m 810 593 q 828 669 818 628 q 846 753 838 710 q 856 835 853 794 q 857 908 860 875 l 235 908 l 235 1029 l 1010 1029 q 1008 915 1011 975 q 996 797 1004 856 q 978 685 989 739 q 957 593 967 632 l 1221 593 l 1221 481 l 706 481 l 706 278 l 600 278 l 600 11 l 354 11 l 354 -103 l 424 -103 q 518 -100 461 -103 q 628 -90 575 -97 l 628 -199 q 491 -210 565 -206 q 356 -214 417 -214 l 218 -214 l 218 115 l 467 115 l 467 231 l 218 231 l 218 338 l 551 338 l 551 481 l 31 481 l 31 593 l 810 593 m 1049 124 q 1091 60 1074 100 q 1108 -21 1108 19 q 1049 -179 1108 -117 q 890 -242 989 -242 q 804 -225 844 -242 q 735 -178 764 -208 q 689 -108 706 -149 q 672 -21 672 -68 q 689 60 672 21 q 731 124 706 100 l 653 124 l 653 231 l 821 231 l 821 379 l 960 379 l 960 231 l 1128 231 l 1128 124 l 1049 124 m 890 118 q 823 79 849 118 q 797 -11 797 40 q 823 -100 797 -64 q 890 -136 849 -136 q 958 -100 932 -136 q 985 -11 985 -64 q 958 79 985 40 q 890 118 932 118 z "},"굼":{"ha":1250,"x_min":31,"x_max":1221,"o":"m 807 540 q 826 624 817 575 q 844 725 836 674 q 856 825 851 776 q 857 908 860 874 l 235 908 l 235 1029 l 1010 1029 q 1007 916 1010 979 q 997 790 1004 853 q 978 653 990 717 q 954 540 967 590 l 1221 540 l 1221 425 l 706 425 l 706 215 l 1015 215 l 1015 -214 l 238 -214 l 238 215 l 551 215 l 551 425 l 31 425 l 31 540 l 807 540 m 383 100 l 383 -100 l 865 -100 l 865 100 l 383 100 z "},"굽":{"ha":1250,"x_min":31,"x_max":1221,"o":"m 811 557 q 829 640 819 593 q 846 736 839 688 q 856 830 853 785 q 857 908 860 875 l 235 908 l 235 1029 l 1010 1029 q 1007 916 1010 979 q 997 790 1004 853 q 981 665 992 724 q 958 557 971 606 l 1221 557 l 1221 443 l 706 443 l 706 238 l 551 238 l 551 443 l 31 443 l 31 557 l 811 557 m 238 286 l 383 286 l 383 151 l 868 151 l 868 286 l 1014 286 l 1014 -211 l 238 -211 l 238 286 m 868 39 l 383 39 l 383 -97 l 868 -97 l 868 39 z "},"굿":{"ha":1250,"x_min":31,"x_max":1219,"o":"m 814 567 q 831 649 822 603 q 846 743 840 696 q 856 833 853 789 q 857 908 858 876 l 235 908 l 235 1029 l 1010 1029 q 1007 916 1010 979 q 997 790 1004 853 q 982 670 992 726 q 961 567 972 614 l 1219 567 l 1219 454 l 706 454 l 706 268 l 551 268 l 551 454 l 31 454 l 31 567 l 814 567 m 544 201 l 707 201 l 707 129 q 740 33 707 75 q 825 -42 774 -8 q 941 -104 876 -79 q 1072 -146 1006 -129 l 997 -242 q 895 -210 947 -231 q 794 -165 843 -190 q 697 -103 740 -137 q 629 -31 654 -68 q 566 -98 607 -67 q 475 -156 525 -129 q 366 -206 422 -185 q 260 -239 310 -226 l 182 -146 q 315 -102 249 -129 q 436 -37 382 -75 q 513 38 482 -4 q 544 129 544 79 l 544 201 z "},"궁":{"ha":1250,"x_min":31,"x_max":1221,"o":"m 811 557 q 829 640 819 593 q 846 736 839 688 q 856 830 853 785 q 857 908 860 875 l 235 908 l 235 1029 l 1010 1029 q 1007 916 1010 979 q 997 790 1004 853 q 981 665 992 724 q 958 557 971 606 l 1221 557 l 1221 443 l 706 443 l 706 263 q 806 226 760 251 q 886 165 853 201 q 939 86 919 131 q 958 -7 958 42 q 933 -115 958 -64 q 863 -203 907 -165 q 759 -262 818 -240 q 632 -283 700 -283 q 505 -262 564 -283 q 401 -203 446 -240 q 332 -115 357 -165 q 307 -7 307 -64 q 325 84 307 40 q 376 164 343 128 q 453 224 408 199 q 551 260 499 249 l 551 443 l 31 443 l 31 557 l 811 557 m 811 -7 q 760 108 811 61 q 632 156 708 156 q 503 108 557 156 q 450 -7 450 61 q 501 -122 450 -75 q 628 -168 553 -168 q 757 -122 703 -168 q 811 -7 811 -75 z "},"궂":{"ha":1250,"x_min":31,"x_max":1221,"o":"m 817 581 q 833 661 825 617 q 847 750 842 706 q 856 837 854 796 q 857 908 858 878 l 235 908 l 235 1029 l 1010 1029 q 1007 916 1010 979 q 997 790 1004 853 q 983 679 992 732 q 964 581 975 626 l 1221 581 l 1221 468 l 704 468 l 704 313 l 550 313 l 550 468 l 31 468 l 31 581 l 817 581 m 551 142 l 239 142 l 239 258 l 1011 258 l 1011 142 l 699 142 q 736 38 700 86 q 825 -49 772 -11 q 942 -117 879 -89 q 1063 -160 1004 -144 l 986 -249 q 883 -212 936 -236 q 781 -160 829 -189 q 692 -96 732 -131 q 626 -24 653 -61 q 561 -94 601 -61 q 475 -156 521 -128 q 368 -210 424 -186 q 261 -249 313 -235 l 181 -160 q 310 -112 242 -143 q 436 -37 379 -82 q 516 43 483 -3 q 551 142 549 89 z "},"궈":{"ha":1250,"x_min":49,"x_max":1108,"o":"m 558 489 q 574 581 567 531 q 586 686 582 632 q 594 790 592 739 q 599 883 597 842 l 158 883 l 158 1004 l 751 1004 q 747 867 750 938 q 738 729 743 797 q 724 603 732 663 q 710 497 717 543 q 813 506 764 501 q 899 514 863 510 l 899 401 q 739 385 840 393 q 529 374 638 378 l 529 -125 l 375 -125 l 375 368 l 317 368 l 49 367 l 49 481 l 264 481 q 417 483 343 481 q 558 489 492 485 m 964 119 l 693 119 l 693 233 l 964 233 l 964 1071 l 1108 1071 l 1108 -171 l 964 -171 l 964 119 z "},"궉":{"ha":1250,"x_min":28,"x_max":1108,"o":"m 965 344 l 682 344 l 682 457 l 965 457 l 965 1071 l 1108 1071 l 1108 250 l 965 250 l 965 344 m 336 71 l 336 185 l 1100 185 l 1100 -225 l 954 -225 l 954 71 l 336 71 m 536 643 q 550 711 544 676 q 560 781 556 746 q 567 852 564 818 q 569 914 569 886 l 131 914 l 131 1035 l 722 1035 q 719 924 722 982 q 707 807 715 865 q 696 724 703 763 q 682 651 689 685 q 801 660 746 656 q 899 669 857 665 l 899 558 q 724 540 835 549 q 496 528 613 532 l 496 258 l 347 258 l 347 524 l 317 524 l 28 522 l 28 636 l 264 636 q 395 638 325 636 q 536 643 465 639 z "},"권":{"ha":1250,"x_min":28,"x_max":1118,"o":"m 965 304 l 682 304 l 682 415 l 965 415 l 965 1071 l 1108 1071 l 1108 122 l 965 122 l 965 304 m 357 167 l 503 167 l 503 -93 l 1118 -93 l 1118 -211 l 357 -211 l 357 167 m 532 628 q 549 703 542 664 q 560 781 556 742 q 567 852 564 818 q 569 914 569 886 l 131 914 l 131 1035 l 722 1035 q 719 924 722 982 q 707 807 715 865 q 694 715 701 758 q 679 636 688 671 q 800 645 743 640 q 899 656 857 650 l 899 543 q 724 526 835 535 q 496 514 613 518 l 496 242 l 347 242 l 347 510 l 317 510 l 28 508 l 28 621 l 264 621 q 392 622 324 621 q 532 628 461 624 z "},"궐":{"ha":1250,"x_min":28,"x_max":1131,"o":"m 965 390 l 682 390 l 682 503 l 965 503 l 965 1071 l 1108 1071 l 1108 326 l 965 326 l 965 390 m 361 81 l 947 81 l 947 151 l 361 151 l 361 263 l 1103 263 l 1103 -25 l 519 -25 l 519 -100 l 1131 -100 l 1131 -212 l 361 -212 l 361 81 m 540 668 q 551 724 547 696 q 560 781 556 751 q 567 852 564 818 q 569 914 569 886 l 131 914 l 131 1035 l 722 1035 q 719 924 722 982 q 707 807 715 865 q 698 738 703 771 q 688 676 693 706 q 804 685 750 681 q 899 694 858 689 l 899 582 q 724 565 835 574 q 496 553 613 557 l 496 333 l 347 333 l 347 549 l 317 549 l 28 547 l 28 661 l 264 661 q 398 663 326 661 q 540 668 469 664 z "},"궜":{"ha":1250,"x_min":28,"x_max":1197,"o":"m 965 344 l 682 344 l 682 457 l 965 457 l 965 1071 l 1108 1071 l 1108 250 l 965 250 l 965 344 m 697 -242 q 623 -199 657 -221 q 561 -153 589 -178 q 519 -110 538 -132 q 490 -65 500 -87 q 456 -110 476 -89 q 414 -151 436 -131 q 348 -200 383 -176 q 271 -242 313 -224 l 194 -153 q 297 -90 253 -124 q 368 -15 340 -56 q 404 62 392 19 q 417 154 417 104 l 417 192 l 560 192 l 560 157 q 572 60 560 107 q 614 -24 585 14 q 649 -66 629 -46 q 694 -103 669 -86 q 747 -60 724 -83 q 786 -10 769 -36 q 821 69 810 26 q 832 157 832 111 l 832 192 l 976 192 l 976 154 q 989 56 976 101 q 1031 -26 1001 11 q 1098 -96 1057 -64 q 1197 -153 1139 -128 l 1126 -242 q 1049 -203 1085 -226 q 983 -156 1013 -181 q 937 -108 957 -132 q 906 -64 917 -85 q 875 -110 894 -87 q 831 -153 856 -132 q 767 -201 801 -178 q 697 -242 733 -225 m 536 643 q 550 711 544 676 q 560 781 556 746 q 567 852 564 818 q 569 914 569 886 l 131 914 l 131 1035 l 722 1035 q 719 924 722 982 q 707 807 715 865 q 696 724 703 763 q 682 651 689 685 q 801 660 746 656 q 899 669 857 665 l 899 558 q 724 540 835 549 q 496 528 613 532 l 496 258 l 347 258 l 347 524 l 317 524 l 28 522 l 28 636 l 264 636 q 395 638 325 636 q 536 643 465 639 z "},"궝":{"ha":1250,"x_min":28,"x_max":1108,"o":"m 965 367 l 682 367 l 682 476 l 965 476 l 965 1071 l 1108 1071 l 1108 265 l 965 265 l 965 367 m 1046 1 q 1020 -106 1046 -56 q 950 -193 994 -156 q 846 -252 906 -231 q 719 -274 786 -274 q 592 -252 651 -274 q 489 -193 533 -231 q 419 -106 444 -156 q 394 1 394 -56 q 419 109 394 58 q 489 197 444 160 q 592 257 533 235 q 719 279 651 279 q 846 257 786 279 q 950 197 906 235 q 1020 109 994 160 q 1046 1 1046 58 m 899 1 q 847 117 899 69 q 719 165 796 165 q 590 117 644 165 q 536 1 536 69 q 588 -113 536 -67 q 715 -160 640 -160 q 844 -113 790 -160 q 899 1 899 -67 m 539 658 q 551 719 546 688 q 560 781 556 750 q 567 852 564 818 q 569 914 569 886 l 131 914 l 131 1035 l 722 1035 q 719 924 722 982 q 707 807 715 865 q 697 732 703 768 q 686 665 692 696 q 803 674 749 669 q 899 683 857 679 l 899 572 q 724 555 835 564 q 496 542 613 546 l 496 285 l 347 285 l 347 538 l 317 538 l 28 536 l 28 651 l 264 651 q 397 653 326 651 q 539 658 468 654 z "},"궤":{"ha":1250,"x_min":49,"x_max":1157,"o":"m 428 494 q 458 680 446 575 q 471 883 469 785 l 100 883 l 100 1004 l 618 1004 q 604 742 617 878 q 572 504 592 607 q 613 508 593 506 q 650 511 632 510 q 684 514 668 513 q 715 518 700 515 l 715 406 q 583 392 665 399 q 410 381 501 385 l 410 -125 l 271 -125 l 271 375 q 206 372 233 372 q 146 371 178 371 l 49 369 l 49 485 l 121 485 q 267 487 182 483 q 428 494 353 490 m 1019 -171 l 1019 1069 l 1157 1069 l 1157 -171 l 1019 -171 m 772 143 l 515 143 l 515 253 l 772 253 l 772 1050 l 903 1050 l 903 -124 l 772 -124 l 772 143 z "},"궷":{"ha":1250,"x_min":19,"x_max":1168,"o":"m 443 619 q 469 759 458 678 q 481 906 479 840 l 97 906 l 97 1022 l 629 1022 q 624 919 628 974 q 617 811 621 864 q 603 710 611 758 q 588 629 596 663 q 628 632 608 631 q 667 636 649 633 q 701 639 685 638 q 733 643 718 640 l 733 531 q 590 517 671 524 q 421 506 508 510 l 421 229 l 282 229 l 282 499 q 249 498 265 499 q 215 497 232 497 q 183 497 199 497 q 151 497 167 497 l 19 496 l 19 608 l 99 608 q 265 611 174 608 q 443 619 356 614 m 1031 189 l 1031 1069 l 1168 1069 l 1168 189 l 1031 189 m 618 163 l 778 163 l 778 115 q 811 14 778 57 q 896 -62 844 -29 q 1006 -118 946 -96 q 1122 -153 1065 -140 l 1050 -246 q 947 -216 1000 -236 q 849 -171 894 -196 q 763 -115 801 -146 q 701 -49 725 -85 q 642 -112 679 -82 q 558 -165 604 -142 q 456 -214 510 -193 q 353 -246 403 -235 l 282 -153 q 399 -116 338 -140 q 513 -56 461 -92 q 588 18 558 -24 q 618 115 618 60 l 618 163 m 789 317 l 526 317 l 526 426 l 789 426 l 789 1056 l 919 1056 l 919 217 l 789 217 l 789 317 z "},"귀":{"ha":1250,"x_min":51,"x_max":1108,"o":"m 556 464 q 573 557 565 506 q 586 665 581 608 q 594 777 592 721 q 599 883 597 833 l 158 883 l 158 1004 l 751 1004 q 737 708 750 846 q 703 471 724 571 q 810 479 758 475 q 899 488 861 483 l 899 376 q 739 360 840 368 q 529 347 638 353 l 529 -124 l 375 -124 l 375 342 l 317 342 l 51 340 l 51 456 l 264 456 q 405 458 331 456 q 556 464 479 460 m 1108 -171 l 964 -171 l 964 1071 l 1108 1071 l 1108 -171 z "},"귁":{"ha":1250,"x_min":28,"x_max":1108,"o":"m 531 619 q 548 698 540 657 q 560 781 556 739 q 567 852 564 818 q 569 914 569 886 l 131 914 l 131 1035 l 722 1035 q 719 924 722 982 q 707 807 715 865 q 694 710 701 756 q 678 628 686 665 q 800 637 743 632 q 899 647 857 642 l 899 535 q 724 518 835 526 q 496 506 613 510 l 496 258 l 347 258 l 347 501 l 317 501 l 28 500 l 28 613 l 264 613 q 392 614 324 613 q 531 619 460 615 m 1108 250 l 965 250 l 965 1071 l 1108 1071 l 1108 250 m 336 71 l 336 185 l 1100 185 l 1100 -225 l 954 -225 l 954 71 l 336 71 z "},"귄":{"ha":1250,"x_min":28,"x_max":1118,"o":"m 525 590 q 545 677 536 629 q 560 767 554 725 q 567 845 564 804 q 569 914 569 886 l 131 914 l 131 1035 l 722 1035 q 719 917 722 982 q 707 793 715 851 q 691 689 701 740 q 672 599 681 638 q 797 608 739 603 q 899 618 856 613 l 899 507 q 724 490 835 499 q 496 475 613 481 l 496 249 l 347 249 l 347 471 l 317 471 l 28 469 l 28 585 l 264 585 q 390 586 322 585 q 525 590 457 588 m 1108 122 l 965 122 l 965 1071 l 1108 1071 l 1108 122 m 357 167 l 503 167 l 503 -93 l 1118 -93 l 1118 -211 l 357 -211 l 357 167 z "},"귈":{"ha":1250,"x_min":28,"x_max":1131,"o":"m 539 661 q 551 720 546 690 q 560 781 556 750 q 567 852 564 818 q 569 914 569 886 l 131 914 l 131 1035 l 722 1035 q 719 924 722 982 q 707 807 715 865 q 697 734 703 769 q 686 668 692 699 q 746 672 717 669 q 803 676 775 675 q 853 681 829 679 q 899 686 878 683 l 899 575 q 724 558 835 567 q 496 544 613 549 l 496 333 l 347 333 l 347 540 l 317 540 l 28 539 l 28 654 l 264 654 q 397 656 326 654 q 539 661 468 657 m 1108 326 l 965 326 l 965 1071 l 1108 1071 l 1108 326 m 361 81 l 947 81 l 947 151 l 361 151 l 361 263 l 1103 263 l 1103 -25 l 519 -25 l 519 -100 l 1131 -100 l 1131 -212 l 361 -212 l 361 81 z "},"귐":{"ha":1250,"x_min":28,"x_max":1108,"o":"m 531 619 q 548 698 540 657 q 560 781 556 739 q 567 852 564 818 q 569 914 569 886 l 131 914 l 131 1035 l 722 1035 q 719 924 722 982 q 707 807 715 865 q 694 710 701 756 q 678 628 686 665 q 800 637 743 632 q 899 647 857 642 l 899 535 q 724 518 835 526 q 496 506 613 510 l 496 258 l 347 258 l 347 501 l 317 501 l 28 500 l 28 613 l 264 613 q 392 614 324 613 q 531 619 460 615 m 1108 250 l 965 250 l 965 1071 l 1108 1071 l 1108 250 m 368 -211 l 368 189 l 1106 189 l 1106 -211 l 368 -211 m 514 75 l 514 -97 l 960 -97 l 960 75 l 514 75 z "},"귑":{"ha":1250,"x_min":28,"x_max":1108,"o":"m 536 644 q 550 711 544 676 q 560 781 556 746 q 567 852 564 818 q 569 914 569 886 l 131 914 l 131 1035 l 722 1035 q 719 924 722 982 q 707 807 715 865 q 696 725 703 764 q 682 653 689 686 q 801 662 746 657 q 899 671 857 667 l 899 560 q 724 542 835 550 q 496 529 613 533 l 496 321 l 347 321 l 347 525 l 317 525 l 28 524 l 28 638 l 264 638 q 395 639 325 638 q 536 644 465 640 m 1108 314 l 965 314 l 965 1071 l 1108 1071 l 1108 314 m 367 265 l 513 265 l 513 136 l 957 136 l 957 265 l 1103 265 l 1103 -211 l 367 -211 l 367 265 m 957 24 l 513 24 l 513 -97 l 957 -97 l 957 24 z "},"귓":{"ha":1250,"x_min":28,"x_max":1108,"o":"m 525 603 q 546 689 538 643 q 560 781 554 735 q 567 852 564 818 q 569 914 569 886 l 131 914 l 131 1035 l 722 1035 q 719 924 722 982 q 707 807 715 865 q 692 700 700 750 q 675 611 683 650 q 799 620 740 615 q 899 631 857 625 l 899 519 q 724 502 835 511 q 496 488 613 493 l 496 228 l 347 228 l 347 483 l 317 483 l 28 482 l 28 597 l 264 597 q 390 599 322 597 q 525 603 457 600 m 1108 193 l 965 193 l 965 1071 l 1108 1071 l 1108 193 m 606 254 l 767 254 l 767 164 q 798 60 767 110 q 878 -31 829 10 q 989 -108 928 -76 q 1108 -154 1050 -139 l 1029 -246 q 930 -208 982 -233 q 831 -150 878 -183 q 747 -81 785 -118 q 689 -8 708 -44 q 635 -76 671 -42 q 556 -142 600 -111 q 449 -204 506 -176 q 343 -246 393 -232 l 264 -154 q 386 -103 322 -137 q 503 -22 450 -69 q 577 65 549 17 q 606 164 606 113 l 606 254 z "},"규":{"ha":1250,"x_min":32,"x_max":1218,"o":"m 340 315 l 32 315 l 32 432 l 803 432 q 838 653 822 529 q 857 889 853 776 l 233 889 l 233 1010 l 1010 1010 q 990 699 1008 851 q 947 432 972 546 l 1218 432 l 1218 315 l 893 315 l 893 -185 l 744 -185 l 744 315 l 489 315 l 489 -182 l 340 -182 l 340 315 z "},"균":{"ha":1250,"x_min":31,"x_max":1221,"o":"m 808 511 q 829 618 819 561 q 846 729 839 675 q 856 831 853 783 q 857 908 858 878 l 232 908 l 232 1029 l 1010 1029 q 1008 969 1010 1004 q 1004 896 1007 935 q 999 819 1003 858 q 992 749 996 781 q 975 628 985 692 q 953 511 965 564 l 1221 511 l 1221 394 l 913 394 l 913 71 l 769 71 l 769 394 l 621 394 l 621 71 l 479 71 l 479 394 l 31 394 l 31 511 l 808 511 m 238 196 l 389 196 l 389 -90 l 1035 -90 l 1035 -208 l 238 -208 l 238 196 z "},"귤":{"ha":1250,"x_min":29,"x_max":1219,"o":"m 811 597 q 829 672 819 632 q 846 754 839 713 q 856 835 853 796 q 857 908 860 875 l 235 908 l 235 1029 l 1010 1029 q 1008 917 1011 976 q 997 800 1004 858 q 978 689 989 742 q 958 597 968 636 l 1219 597 l 1219 485 l 888 485 l 888 335 l 1011 335 l 1011 15 l 393 15 l 393 -103 l 1038 -103 l 1038 -212 l 238 -212 l 238 118 l 857 118 l 857 226 l 238 226 l 238 335 l 388 335 l 388 485 l 29 485 l 29 597 l 811 597 m 533 485 l 533 335 l 742 335 l 742 485 l 533 485 z "},"그":{"ha":1250,"x_min":38,"x_max":1211,"o":"m 754 104 q 789 292 772 193 q 818 490 806 390 q 837 688 829 590 q 844 875 844 786 l 239 875 l 239 996 l 999 996 q 968 519 997 750 q 897 104 939 289 l 1211 104 l 1211 -17 l 38 -17 l 38 104 l 754 104 z "},"극":{"ha":1250,"x_min":31,"x_max":1221,"o":"m 810 535 q 828 620 818 569 q 846 724 838 671 q 856 826 853 776 q 857 908 860 875 l 232 908 l 232 1029 l 1010 1029 q 1007 913 1010 979 q 997 783 1004 847 q 980 649 990 714 q 957 535 969 585 l 1221 535 l 1221 419 l 31 419 l 31 535 l 810 535 m 224 114 l 224 231 l 1013 231 l 1013 -235 l 867 -235 l 867 114 l 224 114 z "},"근":{"ha":1250,"x_min":31,"x_max":1219,"o":"m 796 460 q 821 572 808 508 q 843 699 833 635 q 856 817 851 761 q 857 908 860 874 l 232 908 l 232 1029 l 1010 1029 q 1008 969 1010 1004 q 1004 896 1007 935 q 999 819 1003 858 q 992 749 996 781 q 970 595 983 678 q 942 460 957 513 l 1219 460 l 1219 343 l 31 343 l 31 460 l 796 460 m 239 213 l 390 213 l 390 -92 l 1033 -92 l 1033 -208 l 239 -208 l 239 213 z "},"귿":{"ha":1250,"x_min":31,"x_max":1221,"o":"m 810 535 q 828 620 818 569 q 846 724 838 671 q 856 826 853 776 q 857 908 860 875 l 232 908 l 232 1029 l 1010 1029 q 1007 913 1010 979 q 997 783 1004 847 q 980 649 990 714 q 957 535 969 585 l 1221 535 l 1221 419 l 31 419 l 31 535 l 810 535 m 238 236 l 1011 236 l 1011 121 l 379 121 l 379 -99 l 1022 -99 l 1022 -210 l 238 -210 l 238 236 z "},"글":{"ha":1250,"x_min":31,"x_max":1221,"o":"m 819 581 q 835 663 828 618 q 849 753 843 708 q 856 839 854 799 q 857 908 858 879 l 232 908 l 232 1029 l 1010 1029 q 1007 913 1010 979 q 997 783 1004 847 q 985 677 993 729 q 968 581 976 625 l 1221 581 l 1221 468 l 31 468 l 31 581 l 819 581 m 238 118 l 857 118 l 857 226 l 238 226 l 238 335 l 1011 335 l 1011 15 l 393 15 l 393 -103 l 1038 -103 l 1038 -212 l 238 -212 l 238 118 z "},"긁":{"ha":1250,"x_min":31,"x_max":1221,"o":"m 819 581 q 835 663 828 618 q 849 753 843 708 q 856 839 854 799 q 857 908 858 879 l 232 908 l 232 1029 l 1010 1029 q 1007 913 1010 979 q 997 783 1004 847 q 985 677 993 729 q 968 581 976 625 l 1221 581 l 1221 468 l 31 468 l 31 581 l 819 581 m 215 115 l 472 115 l 472 224 l 215 224 l 215 332 l 608 332 l 608 8 l 354 8 l 354 -101 l 433 -101 q 550 -97 482 -101 q 678 -85 618 -92 l 678 -193 q 517 -208 606 -203 q 354 -214 429 -214 l 215 -214 l 215 115 m 679 218 l 679 332 l 1031 332 l 1031 -226 l 896 -226 l 896 218 l 679 218 z "},"금":{"ha":1250,"x_min":31,"x_max":1221,"o":"m 810 535 q 828 620 818 569 q 846 724 838 671 q 856 826 853 776 q 857 908 860 875 l 232 908 l 232 1029 l 1010 1029 q 1007 913 1010 979 q 997 783 1004 847 q 980 649 990 714 q 957 535 969 585 l 1221 535 l 1221 419 l 31 419 l 31 535 l 810 535 m 238 246 l 1013 246 l 1013 -214 l 238 -214 l 238 246 m 383 132 l 383 -100 l 863 -100 l 863 132 l 383 132 z "},"급":{"ha":1250,"x_min":31,"x_max":1221,"o":"m 813 549 q 830 634 821 585 q 846 733 839 683 q 856 830 853 783 q 857 908 858 876 l 232 908 l 232 1029 l 1010 1029 q 1007 913 1010 979 q 997 783 1004 847 q 982 658 992 718 q 960 549 972 597 l 1221 549 l 1221 432 l 31 432 l 31 549 l 813 549 m 238 318 l 383 318 l 383 161 l 868 161 l 868 318 l 1014 318 l 1014 -211 l 238 -211 l 238 318 m 868 47 l 383 47 l 383 -97 l 868 -97 l 868 47 z "},"긋":{"ha":1250,"x_min":31,"x_max":1219,"o":"m 796 460 q 821 572 808 508 q 843 699 833 635 q 856 817 851 761 q 857 908 860 874 l 232 908 l 232 1029 l 1010 1029 q 1008 969 1010 1004 q 1004 896 1007 935 q 999 819 1003 858 q 992 749 996 781 q 970 595 983 678 q 942 460 957 513 l 1219 460 l 1219 343 l 31 343 l 31 460 l 796 460 m 542 260 l 707 260 l 707 167 q 740 61 707 110 q 826 -26 774 13 q 943 -101 878 -71 q 1074 -147 1008 -131 l 1001 -242 q 897 -207 951 -229 q 793 -154 843 -185 q 694 -86 739 -124 q 626 -10 650 -49 q 566 -81 606 -46 q 478 -144 526 -115 q 369 -201 426 -176 q 260 -239 311 -226 l 181 -147 q 317 -95 249 -129 q 440 -15 386 -61 q 513 68 483 22 q 542 167 542 114 l 542 260 z "},"긍":{"ha":1250,"x_min":31,"x_max":1221,"o":"m 810 535 q 828 620 818 569 q 846 724 838 671 q 856 826 853 776 q 857 908 860 875 l 232 908 l 232 1029 l 1010 1029 q 1007 913 1010 979 q 997 783 1004 847 q 980 649 990 714 q 957 535 969 585 l 1221 535 l 1221 419 l 31 419 l 31 535 l 810 535 m 951 17 q 926 -99 951 -44 q 856 -193 900 -153 q 751 -258 811 -235 q 625 -281 692 -281 q 497 -258 557 -281 q 393 -193 438 -235 q 324 -99 349 -153 q 299 17 299 -44 q 324 131 299 76 q 393 225 349 185 q 497 290 438 267 q 625 314 557 314 q 751 290 692 314 q 856 225 811 267 q 926 131 900 185 q 951 17 951 76 m 804 17 q 752 140 804 89 q 625 190 700 190 q 496 140 550 190 q 442 17 442 89 q 494 -106 442 -56 q 621 -157 546 -157 q 692 -144 658 -157 q 750 -107 725 -131 q 790 -51 775 -83 q 804 17 804 -19 z "},"긔":{"ha":1250,"x_min":50,"x_max":1108,"o":"m 533 271 q 558 417 546 339 q 579 574 569 494 q 593 732 588 653 q 600 882 599 811 l 158 882 l 158 1003 l 751 1003 q 744 810 750 908 q 729 618 739 713 q 706 437 719 524 q 679 279 693 350 q 798 288 742 283 q 899 299 854 293 l 899 188 q 772 172 844 179 q 617 161 699 165 q 450 153 535 156 q 289 151 365 150 l 50 151 l 50 264 l 264 264 q 393 265 324 264 q 533 271 463 267 m 1108 -171 l 964 -171 l 964 1071 l 1108 1071 l 1108 -171 z "},"기":{"ha":1250,"x_min":81,"x_max":1108,"o":"m 964 -171 l 964 1071 l 1108 1071 l 1108 -171 l 964 -171 m 172 107 l 81 203 q 269 319 182 249 q 421 478 356 390 q 526 668 486 567 q 572 876 565 769 l 165 876 l 165 997 l 736 997 q 695 711 735 846 q 583 463 656 576 q 406 258 510 349 q 172 107 301 168 z "},"긱":{"ha":1250,"x_min":60,"x_max":1107,"o":"m 150 339 l 60 435 q 224 507 136 460 q 385 618 313 554 q 492 744 450 675 q 539 892 535 813 l 129 892 l 129 1008 l 704 1008 q 664 781 704 883 q 553 597 624 679 q 377 451 479 514 q 150 339 275 388 m 964 306 l 964 1072 l 1107 1072 l 1107 306 l 964 306 m 353 122 l 353 238 l 1100 238 l 1100 -225 l 954 -225 l 954 122 l 353 122 z "},"긴":{"ha":1250,"x_min":64,"x_max":1139,"o":"m 157 306 l 64 401 q 223 474 139 426 q 381 585 307 521 q 496 727 450 647 q 544 885 542 807 l 139 885 l 139 1001 l 714 1001 q 683 799 714 894 q 594 619 653 703 q 414 444 524 524 q 157 306 304 364 m 964 129 l 964 1072 l 1107 1072 l 1107 129 l 964 129 m 378 199 l 524 199 l 524 -93 l 1139 -93 l 1139 -211 l 378 -211 l 378 199 z "},"긷":{"ha":1250,"x_min":60,"x_max":1122,"o":"m 150 339 l 60 435 q 224 507 136 460 q 385 618 313 554 q 492 744 450 675 q 539 892 535 813 l 129 892 l 129 1008 l 704 1008 q 664 781 704 883 q 553 597 624 679 q 377 451 479 514 q 150 339 275 388 m 964 306 l 964 1072 l 1107 1072 l 1107 306 l 964 306 m 376 247 l 1101 247 l 1101 128 l 518 128 l 518 -97 l 1122 -97 l 1122 -210 l 376 -210 l 376 247 z "},"길":{"ha":1250,"x_min":68,"x_max":1119,"o":"m 157 411 l 68 508 q 224 568 143 529 q 374 664 306 607 q 476 769 433 710 q 535 899 519 829 l 131 899 l 131 1018 l 703 1018 q 662 816 703 908 q 553 651 621 724 q 371 506 475 567 q 157 411 267 446 m 964 403 l 964 1072 l 1107 1072 l 1107 403 l 964 403 m 365 121 l 933 121 l 933 226 l 365 226 l 365 335 l 1092 335 l 1092 15 l 522 15 l 522 -100 l 1119 -100 l 1119 -212 l 365 -212 l 365 121 z "},"긺":{"ha":1250,"x_min":68,"x_max":1107,"o":"m 157 411 l 68 508 q 224 568 143 529 q 374 664 306 607 q 476 769 433 710 q 535 899 519 829 l 131 899 l 131 1018 l 703 1018 q 662 816 703 908 q 553 651 621 724 q 371 506 475 567 q 157 411 267 446 m 964 403 l 964 1072 l 1107 1072 l 1107 403 l 964 403 m 279 117 l 521 117 l 521 219 l 279 219 l 279 328 l 653 328 l 653 10 l 414 10 l 414 -101 l 479 -101 q 574 -99 517 -101 q 683 -89 632 -96 l 683 -199 q 547 -210 621 -206 q 411 -214 472 -214 l 279 -214 l 279 117 m 868 226 l 868 -108 l 972 -108 l 972 226 l 868 226 m 740 -212 l 740 328 l 1101 328 l 1101 -212 l 740 -212 z "},"김":{"ha":1250,"x_min":60,"x_max":1107,"o":"m 150 339 l 60 435 q 224 507 136 460 q 385 618 313 554 q 492 744 450 675 q 539 892 535 813 l 129 892 l 129 1008 l 704 1008 q 664 781 704 883 q 553 597 624 679 q 377 451 479 514 q 150 339 275 388 m 964 306 l 964 1072 l 1107 1072 l 1107 306 l 964 306 m 526 124 l 526 -97 l 957 -97 l 957 124 l 526 124 m 381 -211 l 381 239 l 1103 239 l 1103 -211 l 381 -211 z "},"깁":{"ha":1250,"x_min":67,"x_max":1107,"o":"m 157 383 l 67 482 q 221 548 142 506 q 367 649 300 590 q 474 764 429 700 q 533 899 518 828 l 129 899 l 129 1018 l 701 1018 q 660 815 701 908 q 551 644 619 721 q 372 490 475 556 q 157 383 269 424 m 964 369 l 964 1072 l 1107 1072 l 1107 369 l 964 369 m 949 51 l 515 51 l 515 -97 l 949 -97 l 949 51 m 369 304 l 515 304 l 515 165 l 949 165 l 949 304 l 1094 304 l 1094 -211 l 369 -211 l 369 304 z "},"깃":{"ha":1250,"x_min":64,"x_max":1140,"o":"m 157 306 l 64 401 q 223 474 139 426 q 381 585 307 521 q 496 727 450 647 q 544 885 542 807 l 139 885 l 139 1001 l 714 1001 q 683 799 714 894 q 594 619 653 703 q 414 444 524 524 q 157 306 304 364 m 964 236 l 964 1072 l 1107 1072 l 1107 236 l 964 236 m 636 268 l 797 268 l 797 181 q 831 68 797 122 q 918 -29 864 14 q 1026 -107 967 -75 q 1140 -154 1085 -139 l 1061 -249 q 961 -209 1014 -236 q 860 -147 908 -182 q 777 -76 814 -114 q 719 0 740 -37 q 663 -74 700 -36 q 578 -144 625 -111 q 474 -208 528 -181 q 372 -249 421 -236 l 293 -154 q 419 -99 353 -136 q 536 -11 485 -61 q 609 80 582 31 q 636 181 636 129 l 636 268 z "},"깅":{"ha":1250,"x_min":64,"x_max":1107,"o":"m 157 306 l 64 401 q 223 474 139 426 q 381 585 307 521 q 496 727 450 647 q 544 885 542 807 l 139 885 l 139 1001 l 714 1001 q 683 799 714 894 q 594 619 653 703 q 414 444 524 524 q 157 306 304 364 m 964 283 l 964 1072 l 1107 1072 l 1107 283 l 964 283 m 757 -283 q 632 -261 690 -283 q 531 -199 574 -239 q 463 -107 488 -160 q 438 7 438 -54 q 463 120 438 67 q 531 213 488 174 q 632 276 574 253 q 757 299 690 299 q 881 276 822 299 q 982 213 939 253 q 1051 120 1025 174 q 1076 7 1076 67 q 1051 -107 1076 -54 q 982 -199 1025 -160 q 881 -261 939 -239 q 757 -283 822 -283 m 932 7 q 881 128 932 78 q 757 179 831 179 q 630 128 682 179 q 578 7 578 78 q 628 -113 578 -64 q 753 -162 678 -162 q 879 -113 826 -162 q 932 7 932 -64 z "},"깆":{"ha":1250,"x_min":60,"x_max":1150,"o":"m 644 161 l 342 161 l 342 276 l 1100 276 l 1100 161 l 796 161 q 831 53 799 103 q 910 -35 863 4 q 1027 -109 963 -79 q 1150 -156 1092 -139 l 1075 -246 q 978 -211 1026 -233 q 883 -160 929 -189 q 791 -90 833 -129 q 722 -10 749 -51 q 655 -86 694 -50 q 569 -151 615 -122 q 467 -206 519 -182 q 364 -246 414 -231 l 283 -156 q 410 -108 343 -139 q 532 -31 476 -76 q 610 55 579 7 q 644 161 642 103 m 150 339 l 60 435 q 224 507 136 460 q 385 618 313 554 q 492 744 450 675 q 539 892 535 813 l 129 892 l 129 1008 l 704 1008 q 664 781 704 883 q 553 597 624 679 q 377 451 479 514 q 150 339 275 388 m 964 344 l 964 1072 l 1107 1072 l 1107 344 l 964 344 z "},"깊":{"ha":1250,"x_min":60,"x_max":1117,"o":"m 960 140 l 958 -97 l 1117 -97 l 1117 -211 l 315 -211 l 315 -97 l 474 -97 l 469 140 l 331 140 l 331 257 l 1099 257 l 1099 140 l 960 140 m 828 140 l 604 140 l 607 -97 l 826 -97 l 828 140 m 150 339 l 60 435 q 224 507 136 460 q 385 618 313 554 q 492 744 450 675 q 539 892 535 813 l 129 892 l 129 1008 l 704 1008 q 664 781 704 883 q 553 597 624 679 q 377 451 479 514 q 150 339 275 388 m 964 306 l 964 1072 l 1107 1072 l 1107 306 l 964 306 z "},"까":{"ha":1250,"x_min":44,"x_max":1254,"o":"m 1064 640 l 1254 640 l 1254 522 l 1064 522 l 1064 -171 l 921 -171 l 921 1069 l 1064 1069 l 1064 640 m 792 997 q 715 477 792 718 q 507 64 639 236 l 383 129 q 488 287 442 199 q 565 474 533 375 q 616 676 597 572 q 639 882 635 779 l 464 882 q 433 684 457 785 q 368 489 408 583 q 276 308 329 393 q 161 158 224 224 l 44 219 q 150 359 103 281 q 233 525 197 438 q 289 703 268 611 q 315 882 310 794 l 107 882 l 107 997 l 792 997 z "},"깍":{"ha":1250,"x_min":22,"x_max":1253,"o":"m 1064 776 l 1253 776 l 1253 656 l 1064 656 l 1064 311 l 919 311 l 919 1071 l 1064 1071 l 1064 776 m 317 122 l 317 238 l 1064 238 l 1064 -225 l 918 -225 l 918 122 l 317 122 m 772 1015 q 752 814 772 913 q 694 625 732 715 q 601 456 657 535 q 474 315 546 376 l 358 378 q 463 490 417 428 q 542 619 510 551 q 592 759 574 688 q 617 900 611 831 l 446 900 q 406 761 435 832 q 336 624 378 690 q 242 498 294 557 q 132 396 189 439 l 22 460 q 122 551 75 500 q 206 660 169 603 q 265 778 242 717 q 296 900 289 839 l 71 900 l 71 1015 l 772 1015 z "},"깎":{"ha":1250,"x_min":22,"x_max":1253,"o":"m 1064 776 l 1253 776 l 1253 656 l 1064 656 l 1064 311 l 919 311 l 919 1071 l 1064 1071 l 1064 776 m 703 139 l 703 249 l 1065 249 l 1065 -225 l 922 -225 l 922 139 l 703 139 m 243 139 l 243 249 l 640 249 l 640 -225 l 497 -225 l 497 139 l 243 139 m 772 1015 q 752 814 772 913 q 694 625 732 715 q 601 456 657 535 q 474 315 546 376 l 358 378 q 463 490 417 428 q 542 619 510 551 q 592 759 574 688 q 617 900 611 831 l 446 900 q 406 761 435 832 q 336 624 378 690 q 242 498 294 557 q 132 396 189 439 l 22 460 q 122 551 75 500 q 206 660 169 603 q 265 778 242 717 q 296 900 289 839 l 71 900 l 71 1015 l 772 1015 z "},"깐":{"ha":1250,"x_min":26,"x_max":1253,"o":"m 1061 711 l 1253 711 l 1253 589 l 1061 589 l 1061 129 l 918 129 l 918 1072 l 1061 1072 l 1061 711 m 336 185 l 482 185 l 482 -93 l 1082 -93 l 1082 -211 l 336 -211 l 336 185 m 772 1015 q 752 809 772 911 q 694 614 732 707 q 601 439 657 521 q 475 294 546 357 l 361 357 q 464 472 418 408 q 543 607 510 536 q 594 752 575 678 q 615 900 613 826 l 446 900 q 410 756 438 831 q 340 613 382 682 q 246 480 299 542 q 136 375 193 418 l 26 442 q 122 533 76 481 q 204 646 168 585 q 265 770 242 706 q 296 900 289 835 l 71 900 l 71 1015 l 772 1015 z "},"깔":{"ha":1250,"x_min":19,"x_max":1253,"o":"m 1064 808 l 1253 808 l 1253 686 l 1064 686 l 1064 397 l 919 397 l 919 1071 l 1064 1071 l 1064 808 m 335 121 l 904 121 l 904 226 l 335 226 l 335 335 l 1060 335 l 1060 15 l 492 15 l 492 -100 l 1090 -100 l 1090 -212 l 335 -212 l 335 121 m 772 1019 q 749 817 772 911 q 686 643 726 722 q 591 501 646 564 q 474 392 536 438 l 365 460 q 542 660 476 540 q 617 907 607 781 l 446 907 q 406 777 435 842 q 333 651 376 713 q 237 540 290 592 q 125 450 183 488 l 19 519 q 119 597 72 553 q 204 692 167 642 q 267 797 242 743 q 300 907 292 851 l 71 907 l 71 1019 l 772 1019 z "},"깖":{"ha":1250,"x_min":19,"x_max":1253,"o":"m 1064 808 l 1253 808 l 1253 686 l 1064 686 l 1064 397 l 919 397 l 919 1071 l 1064 1071 l 1064 808 m 246 117 l 485 117 l 485 219 l 246 219 l 246 328 l 619 328 l 619 10 l 379 10 l 379 -100 l 444 -100 q 539 -97 482 -100 q 649 -87 596 -94 l 649 -197 q 512 -208 586 -204 q 378 -212 438 -212 l 246 -212 l 246 117 m 704 -212 l 704 328 l 1067 328 l 1067 -212 l 704 -212 m 833 226 l 833 -108 l 936 -108 l 936 226 l 833 226 m 772 1019 q 749 817 772 911 q 686 643 726 722 q 591 501 646 564 q 474 392 536 438 l 365 460 q 542 660 476 540 q 617 907 607 781 l 446 907 q 406 777 435 842 q 333 651 376 713 q 237 540 290 592 q 125 450 183 488 l 19 519 q 119 597 72 553 q 204 692 167 642 q 267 797 242 743 q 300 907 292 851 l 71 907 l 71 1019 l 772 1019 z "},"깜":{"ha":1250,"x_min":22,"x_max":1253,"o":"m 1064 776 l 1253 776 l 1253 656 l 1064 656 l 1064 311 l 919 311 l 919 1071 l 1064 1071 l 1064 776 m 338 -211 l 338 240 l 1060 240 l 1060 -211 l 338 -211 m 483 125 l 483 -97 l 915 -97 l 915 125 l 483 125 m 772 1015 q 752 814 772 913 q 694 625 732 715 q 601 456 657 535 q 474 315 546 376 l 358 378 q 463 490 417 428 q 542 619 510 551 q 592 759 574 688 q 617 900 611 831 l 446 900 q 406 761 435 832 q 336 624 378 690 q 242 498 294 557 q 132 396 189 439 l 22 460 q 122 551 75 500 q 206 660 169 603 q 265 778 242 717 q 296 900 289 839 l 71 900 l 71 1015 l 772 1015 z "},"깝":{"ha":1250,"x_min":19,"x_max":1253,"o":"m 1064 797 l 1253 797 l 1253 675 l 1064 675 l 1064 371 l 919 371 l 919 1071 l 1064 1071 l 1064 797 m 335 304 l 481 304 l 481 165 l 914 165 l 914 304 l 1058 304 l 1058 -211 l 335 -211 l 335 304 m 914 51 l 481 51 l 481 -97 l 914 -97 l 914 51 m 772 1019 q 749 815 772 911 q 685 638 725 718 q 589 490 643 556 q 474 375 535 424 l 365 444 q 540 655 474 529 q 615 907 606 781 l 446 907 q 406 774 435 842 q 335 644 378 707 q 239 526 293 581 q 125 435 185 472 l 19 506 q 121 585 74 539 q 204 683 168 631 q 266 793 242 736 q 299 907 290 850 l 71 907 l 71 1019 l 772 1019 z "},"깟":{"ha":1250,"x_min":22,"x_max":1253,"o":"m 1061 738 l 1253 738 l 1253 615 l 1061 615 l 1061 235 l 918 235 l 918 1072 l 1061 1072 l 1061 738 m 592 268 l 751 268 l 751 190 q 781 73 751 128 q 857 -25 810 18 q 967 -106 906 -74 q 1092 -156 1028 -139 l 1019 -249 q 914 -208 968 -236 q 811 -144 860 -181 q 728 -74 765 -111 q 674 0 692 -37 q 616 -74 653 -36 q 532 -143 579 -111 q 428 -208 482 -179 q 324 -249 374 -236 l 249 -156 q 374 -100 311 -135 q 486 -18 436 -65 q 562 76 532 24 q 592 190 592 129 l 592 268 m 772 1015 q 752 814 772 913 q 694 625 732 715 q 601 456 657 535 q 474 315 546 376 l 358 378 q 463 490 417 428 q 542 619 510 551 q 592 759 574 688 q 617 900 611 831 l 446 900 q 406 761 435 832 q 336 624 378 690 q 242 498 294 557 q 132 396 189 439 l 22 460 q 122 551 75 500 q 206 660 169 603 q 265 778 242 717 q 296 900 289 839 l 71 900 l 71 1015 l 772 1015 z "},"깠":{"ha":1250,"x_min":22,"x_max":1253,"o":"m 1064 776 l 1253 776 l 1253 656 l 1064 656 l 1064 311 l 919 311 l 919 1071 l 1064 1071 l 1064 776 m 696 -240 q 624 -194 657 -219 q 564 -143 590 -168 q 519 -95 539 -119 q 489 -46 500 -71 q 455 -96 475 -71 q 410 -144 435 -121 q 347 -195 381 -171 q 274 -240 314 -219 l 194 -153 q 297 -81 253 -121 q 368 4 340 -42 q 403 91 392 43 q 415 193 415 139 l 415 257 l 558 257 l 558 197 q 572 92 558 143 q 611 -3 585 40 q 647 -52 626 -29 q 693 -96 668 -75 q 744 -48 722 -75 q 783 8 767 -21 q 819 99 807 50 q 831 197 831 147 l 831 257 l 975 257 l 975 193 q 987 90 975 139 q 1024 -1 999 40 q 1092 -84 1049 -46 q 1197 -151 1135 -122 l 1121 -240 q 1047 -197 1081 -219 q 985 -149 1013 -174 q 936 -97 957 -124 q 903 -44 915 -69 q 874 -90 893 -65 q 833 -137 856 -115 q 769 -192 804 -165 q 696 -240 733 -219 m 772 1015 q 752 814 772 913 q 694 625 732 715 q 601 456 657 535 q 474 315 546 376 l 358 378 q 463 490 417 428 q 542 619 510 551 q 592 759 574 688 q 617 900 611 831 l 446 900 q 406 761 435 832 q 336 624 378 690 q 242 498 294 557 q 132 396 189 439 l 22 460 q 122 551 75 500 q 206 660 169 603 q 265 778 242 717 q 296 900 289 839 l 71 900 l 71 1015 l 772 1015 z "},"깡":{"ha":1250,"x_min":22,"x_max":1253,"o":"m 1064 765 l 1253 765 l 1253 646 l 1064 646 l 1064 289 l 919 289 l 919 1071 l 1064 1071 l 1064 765 m 714 -283 q 590 -261 647 -283 q 488 -199 532 -239 q 419 -107 444 -160 q 394 7 394 -54 q 419 120 394 67 q 488 213 444 174 q 590 276 532 253 q 714 299 647 299 q 838 276 781 299 q 940 213 896 253 q 1008 120 983 174 q 1033 7 1033 67 q 1008 -107 1033 -54 q 940 -199 983 -160 q 838 -261 896 -239 q 714 -283 781 -283 m 714 179 q 587 128 639 179 q 535 7 535 78 q 584 -113 535 -64 q 708 -162 633 -162 q 837 -113 783 -162 q 890 7 890 -64 q 840 128 890 78 q 714 179 789 179 m 772 1015 q 752 814 772 913 q 694 625 732 715 q 601 456 657 535 q 474 315 546 376 l 358 378 q 463 490 417 428 q 542 619 510 551 q 592 759 574 688 q 617 900 611 831 l 446 900 q 406 761 435 832 q 336 624 378 690 q 242 498 294 557 q 132 396 189 439 l 22 460 q 122 551 75 500 q 206 660 169 603 q 265 778 242 717 q 296 900 289 839 l 71 900 l 71 1015 l 772 1015 z "},"깥":{"ha":1250,"x_min":19,"x_max":1253,"o":"m 1064 808 l 1253 808 l 1253 686 l 1064 686 l 1064 397 l 919 397 l 919 1071 l 1064 1071 l 1064 808 m 338 335 l 1064 335 l 1064 226 l 493 226 l 493 121 l 1058 121 l 1058 15 l 494 15 l 494 -100 l 1093 -100 l 1093 -212 l 338 -212 l 338 335 m 772 1019 q 749 817 772 911 q 686 643 726 722 q 591 501 646 564 q 474 392 536 438 l 365 460 q 542 660 476 540 q 617 907 607 781 l 446 907 q 406 777 435 842 q 333 651 376 713 q 237 540 290 592 q 125 450 183 488 l 19 519 q 119 597 72 553 q 204 692 167 642 q 267 797 242 743 q 300 907 292 851 l 71 907 l 71 1019 l 772 1019 z "},"깨":{"ha":1250,"x_min":7,"x_max":1168,"o":"m 1031 665 l 1031 1069 l 1168 1069 l 1168 -171 l 1031 -171 l 1031 532 l 904 532 l 904 -124 l 774 -124 l 774 1056 l 904 1056 l 904 665 l 1031 665 m 690 999 q 673 744 690 869 q 622 501 656 618 q 539 280 589 385 q 425 88 489 175 l 304 138 q 406 301 363 211 q 481 488 450 390 q 527 685 511 585 q 546 882 543 785 l 410 882 q 381 694 403 790 q 324 504 360 597 q 237 326 288 411 q 124 175 186 242 l 7 229 q 115 367 67 290 q 196 531 163 444 q 249 705 229 615 q 272 882 268 794 l 96 882 l 96 999 l 690 999 z "},"깩":{"ha":1250,"x_min":22,"x_max":1168,"o":"m 1032 772 l 1032 1071 l 1168 1071 l 1168 308 l 1032 308 l 1032 647 l 896 647 l 896 308 l 767 308 l 767 1057 l 896 1057 l 896 772 l 1032 772 m 390 113 l 390 228 l 1151 228 l 1151 -225 l 1006 -225 l 1006 113 l 390 113 m 668 1014 q 608 638 667 815 q 428 331 550 460 l 324 389 q 408 499 371 438 q 472 626 446 560 q 512 763 497 693 q 529 897 526 832 l 379 897 q 350 764 371 832 q 297 629 329 696 q 220 503 264 564 q 124 393 176 442 l 22 449 q 106 545 67 492 q 175 658 144 599 q 225 778 206 717 q 251 897 244 839 l 74 897 l 74 1014 l 668 1014 z "},"깬":{"ha":1250,"x_min":21,"x_max":1172,"o":"m 1032 715 l 1032 1071 l 1168 1071 l 1168 131 l 1032 131 l 1032 589 l 896 589 l 896 156 l 767 156 l 767 1057 l 896 1057 l 896 715 l 1032 715 m 410 185 l 556 185 l 556 -93 l 1172 -93 l 1172 -211 l 410 -211 l 410 185 m 668 1006 q 606 611 667 797 q 428 294 546 425 l 324 353 q 408 466 371 403 q 471 600 444 529 q 512 744 497 669 q 529 889 526 818 l 379 889 q 349 745 371 818 q 294 601 328 672 q 217 469 261 532 q 122 357 174 406 l 21 413 q 106 513 67 456 q 176 632 146 569 q 226 760 207 694 q 251 889 244 826 l 74 889 l 74 1006 l 668 1006 z "},"깰":{"ha":1250,"x_min":24,"x_max":1186,"o":"m 1032 804 l 1032 1071 l 1168 1071 l 1168 390 l 1032 390 l 1032 678 l 896 678 l 896 390 l 767 390 l 767 1057 l 896 1057 l 896 804 l 1032 804 m 432 115 l 1001 115 l 1001 217 l 432 217 l 432 325 l 1158 325 l 1158 8 l 590 8 l 590 -100 l 1186 -100 l 1186 -212 l 432 -212 l 432 115 m 668 1017 q 610 678 667 838 q 421 399 553 518 l 321 457 q 468 667 415 547 q 529 900 521 788 l 378 900 q 351 783 371 844 q 297 663 331 722 q 219 549 264 603 q 121 457 175 496 l 24 515 q 178 692 118 589 q 250 900 238 796 l 74 900 l 74 1017 l 668 1017 z "},"깸":{"ha":1250,"x_min":22,"x_max":1168,"o":"m 417 -211 l 417 235 l 1154 235 l 1154 -211 l 417 -211 m 563 119 l 563 -97 l 1008 -97 l 1008 119 l 563 119 m 1032 772 l 1032 1071 l 1168 1071 l 1168 308 l 1032 308 l 1032 647 l 896 647 l 896 308 l 767 308 l 767 1057 l 896 1057 l 896 772 l 1032 772 m 668 1014 q 608 638 667 815 q 428 331 550 460 l 324 389 q 408 499 371 438 q 472 626 446 560 q 512 763 497 693 q 529 897 526 832 l 379 897 q 350 764 371 832 q 297 629 329 696 q 220 503 264 564 q 124 393 176 442 l 22 449 q 106 545 67 492 q 175 658 144 599 q 225 778 206 717 q 251 897 244 839 l 74 897 l 74 1014 l 668 1014 z "},"깹":{"ha":1250,"x_min":22,"x_max":1168,"o":"m 1032 794 l 1032 1071 l 1168 1071 l 1168 364 l 1032 364 l 1032 668 l 896 668 l 896 364 l 767 364 l 767 1057 l 896 1057 l 896 794 l 1032 794 m 424 293 l 565 293 l 565 150 l 1019 150 l 1019 293 l 1161 293 l 1161 -211 l 424 -211 l 424 293 m 1019 38 l 565 38 l 565 -97 l 1019 -97 l 1019 38 m 668 1017 q 608 664 667 831 q 429 381 550 497 l 326 442 q 472 653 421 529 q 529 900 524 776 l 378 900 q 347 776 369 840 q 292 650 325 711 q 214 533 258 589 q 119 438 169 478 l 22 496 q 102 576 64 531 q 171 676 140 622 q 222 786 201 729 q 251 900 243 843 l 74 900 l 74 1017 l 668 1017 z "},"깻":{"ha":1250,"x_min":22,"x_max":1168,"o":"m 1032 772 l 1032 1071 l 1168 1071 l 1168 279 l 1032 279 l 1032 647 l 896 647 l 896 310 l 767 310 l 767 1057 l 896 1057 l 896 772 l 1032 772 m 656 244 l 818 244 l 818 168 q 848 61 818 111 q 928 -31 878 11 q 1038 -106 978 -75 q 1157 -154 1099 -137 l 1083 -249 q 985 -211 1038 -236 q 885 -154 932 -186 q 798 -85 836 -122 q 740 -10 760 -47 q 685 -81 721 -44 q 604 -147 650 -117 q 499 -208 554 -181 q 394 -249 444 -236 l 318 -154 q 439 -104 376 -137 q 551 -25 501 -71 q 626 65 597 15 q 656 168 656 114 l 656 244 m 668 1006 q 610 625 667 807 q 428 308 554 443 l 324 367 q 410 481 372 417 q 472 614 447 544 q 513 753 499 682 q 529 889 526 824 l 379 889 q 350 750 371 821 q 297 611 329 679 q 220 481 264 543 q 124 371 176 419 l 22 426 q 106 521 67 467 q 174 636 144 575 q 224 761 204 696 q 250 889 243 826 l 74 889 l 74 1006 l 668 1006 z "},"깼":{"ha":1250,"x_min":22,"x_max":1214,"o":"m 714 -242 q 642 -197 676 -221 q 581 -149 608 -174 q 537 -101 556 -125 q 506 -53 518 -78 q 474 -101 493 -78 q 431 -144 456 -124 q 367 -196 403 -172 q 290 -242 332 -219 l 210 -157 q 316 -83 272 -124 q 389 3 360 -43 q 421 86 410 40 q 432 185 432 132 l 432 249 l 576 249 l 576 188 q 590 85 576 135 q 628 -7 603 35 q 665 -56 644 -33 q 711 -99 686 -79 q 763 -52 740 -78 q 803 3 786 -26 q 837 90 825 43 q 849 188 849 138 l 849 249 l 993 249 l 993 185 q 1006 76 993 126 q 1047 -15 1018 26 q 1115 -92 1072 -57 q 1214 -156 1157 -126 l 1140 -242 q 1063 -198 1099 -221 q 999 -149 1026 -175 q 952 -101 972 -125 q 921 -51 932 -76 q 892 -97 910 -74 q 851 -142 874 -119 q 787 -196 822 -171 q 714 -242 751 -221 m 1032 772 l 1032 1071 l 1168 1071 l 1168 308 l 1032 308 l 1032 647 l 896 647 l 896 308 l 767 308 l 767 1057 l 896 1057 l 896 772 l 1032 772 m 668 1014 q 608 638 667 815 q 428 331 550 460 l 324 389 q 408 499 371 438 q 472 626 446 560 q 512 763 497 693 q 529 897 526 832 l 379 897 q 350 764 371 832 q 297 629 329 696 q 220 503 264 564 q 124 393 176 442 l 22 449 q 106 545 67 492 q 175 658 144 599 q 225 778 206 717 q 251 897 244 839 l 74 897 l 74 1014 l 668 1014 z "},"깽":{"ha":1250,"x_min":22,"x_max":1168,"o":"m 1032 794 l 1032 1071 l 1168 1071 l 1168 310 l 1032 310 l 1032 668 l 896 668 l 896 344 l 767 344 l 767 1057 l 896 1057 l 896 794 l 1032 794 m 774 -283 q 649 -261 707 -283 q 547 -199 592 -239 q 479 -107 504 -160 q 454 7 454 -54 q 479 120 454 67 q 547 213 504 174 q 649 276 592 253 q 774 299 707 299 q 899 276 840 299 q 1000 213 957 253 q 1069 120 1043 174 q 1094 7 1094 67 q 1069 -107 1094 -54 q 1000 -199 1043 -160 q 899 -261 957 -239 q 774 -283 840 -283 m 774 179 q 647 128 699 179 q 596 7 596 78 q 645 -113 596 -64 q 769 -162 694 -162 q 897 -113 843 -162 q 950 7 950 -64 q 899 128 950 78 q 774 179 849 179 m 668 1014 q 608 638 667 815 q 428 331 550 460 l 324 389 q 408 499 371 438 q 472 626 446 560 q 512 763 497 693 q 529 897 526 832 l 379 897 q 350 764 371 832 q 297 629 329 696 q 220 503 264 564 q 124 393 176 442 l 22 449 q 106 545 67 492 q 175 658 144 599 q 225 778 206 717 q 251 897 244 839 l 74 897 l 74 1014 l 668 1014 z "},"꺄":{"ha":1250,"x_min":44,"x_max":1254,"o":"m 1064 829 l 1254 829 l 1254 717 l 1064 717 l 1064 471 l 1254 471 l 1254 358 l 1064 358 l 1064 -171 l 921 -171 l 921 1069 l 1064 1069 l 1064 829 m 792 997 q 715 477 792 718 q 507 64 639 236 l 383 129 q 488 287 442 199 q 565 474 533 375 q 616 676 597 572 q 639 882 635 779 l 464 882 q 433 684 457 785 q 368 489 408 583 q 276 308 329 393 q 161 158 224 224 l 44 219 q 150 359 103 281 q 233 525 197 438 q 289 703 268 611 q 315 882 310 794 l 107 882 l 107 997 l 792 997 z "},"꺅":{"ha":1250,"x_min":22,"x_max":1256,"o":"m 1064 893 l 1253 893 l 1253 781 l 1064 781 l 1064 635 l 1256 635 l 1256 522 l 1064 522 l 1064 310 l 919 310 l 919 1071 l 1064 1071 l 1064 893 m 317 122 l 317 238 l 1064 238 l 1064 -225 l 918 -225 l 918 122 l 317 122 m 772 1015 q 752 814 772 913 q 694 625 732 715 q 601 456 657 535 q 474 315 546 376 l 358 378 q 463 490 417 428 q 542 619 510 551 q 592 759 574 688 q 617 900 611 831 l 446 900 q 406 761 435 832 q 336 624 378 690 q 242 498 294 557 q 132 396 189 439 l 22 460 q 122 551 75 500 q 206 660 169 603 q 265 778 242 717 q 296 900 289 839 l 71 900 l 71 1015 l 772 1015 z "},"꺌":{"ha":1250,"x_min":19,"x_max":1256,"o":"m 1064 928 l 1253 928 l 1253 815 l 1064 815 l 1064 674 l 1256 674 l 1256 561 l 1064 561 l 1064 401 l 919 401 l 919 1071 l 1064 1071 l 1064 928 m 335 121 l 904 121 l 904 226 l 335 226 l 335 335 l 1060 335 l 1060 15 l 492 15 l 492 -100 l 1090 -100 l 1090 -212 l 335 -212 l 335 121 m 772 1019 q 749 817 772 911 q 686 643 726 722 q 591 501 646 564 q 474 392 536 438 l 365 460 q 542 660 476 540 q 617 907 607 781 l 446 907 q 406 777 435 842 q 333 651 376 713 q 237 540 290 592 q 125 450 183 488 l 19 519 q 119 597 72 553 q 204 692 167 642 q 267 797 242 743 q 300 907 292 851 l 71 907 l 71 1019 l 772 1019 z "},"꺼":{"ha":1250,"x_min":51,"x_max":1108,"o":"m 767 651 l 964 651 l 964 1071 l 1108 1071 l 1108 -171 l 964 -171 l 964 535 l 739 535 q 644 278 701 397 q 514 64 588 160 l 390 129 q 494 287 449 199 q 572 474 540 375 q 623 676 604 572 q 646 882 642 779 l 471 882 q 440 684 464 785 q 375 489 415 583 q 283 308 336 393 q 168 158 231 224 l 51 219 q 157 359 110 281 q 240 525 204 438 q 296 703 275 611 q 322 882 317 794 l 114 882 l 114 997 l 799 997 q 790 819 799 906 q 767 651 782 733 z "},"꺽":{"ha":1250,"x_min":36,"x_max":1107,"o":"m 353 122 l 353 238 l 1100 238 l 1100 -225 l 954 -225 l 954 122 l 353 122 m 758 778 l 964 778 l 964 1072 l 1107 1072 l 1107 311 l 964 311 l 964 658 l 747 658 l 747 735 q 645 502 711 610 q 488 315 579 394 l 372 378 q 477 490 431 428 q 556 619 524 551 q 606 759 588 688 q 631 900 625 831 l 460 900 q 420 761 449 832 q 350 624 392 690 q 256 498 308 557 q 146 396 203 439 l 36 460 q 136 551 89 500 q 219 660 183 603 q 279 778 256 717 q 310 900 303 839 l 85 900 l 85 1015 l 786 1015 q 778 894 786 954 q 758 778 771 835 z "},"꺾":{"ha":1250,"x_min":36,"x_max":1107,"o":"m 739 139 l 739 249 l 1101 249 l 1101 -225 l 958 -225 l 958 139 l 739 139 m 278 139 l 278 249 l 675 249 l 675 -225 l 532 -225 l 532 139 l 278 139 m 758 778 l 964 778 l 964 1072 l 1107 1072 l 1107 311 l 964 311 l 964 658 l 751 658 l 751 749 q 649 508 715 619 q 488 315 583 397 l 372 378 q 477 490 431 428 q 556 619 524 551 q 606 759 588 688 q 631 900 625 831 l 460 900 q 420 761 449 832 q 350 624 392 690 q 256 498 308 557 q 146 396 203 439 l 36 460 q 136 551 89 500 q 219 660 183 603 q 279 778 256 717 q 310 900 303 839 l 85 900 l 85 1015 l 786 1015 q 778 894 786 954 q 758 778 771 835 z "},"껀":{"ha":1250,"x_min":40,"x_max":1139,"o":"m 378 185 l 524 185 l 524 -93 l 1139 -93 l 1139 -211 l 378 -211 l 378 185 m 757 768 l 964 768 l 964 1072 l 1107 1072 l 1107 129 l 964 129 l 964 649 l 750 649 l 750 738 q 648 492 714 606 q 489 294 582 378 l 375 357 q 478 472 432 408 q 557 607 524 536 q 608 752 589 678 q 629 900 626 826 l 460 900 q 424 756 451 831 q 354 613 396 682 q 260 480 313 542 q 150 375 207 418 l 40 442 q 136 533 90 481 q 218 646 182 585 q 279 770 256 706 q 310 900 303 835 l 85 900 l 85 1015 l 786 1015 q 778 890 786 953 q 757 768 771 828 z "},"껄":{"ha":1250,"x_min":33,"x_max":1119,"o":"m 365 121 l 933 121 l 933 226 l 365 226 l 365 335 l 1092 335 l 1092 15 l 522 15 l 522 -100 l 1119 -100 l 1119 -212 l 365 -212 l 365 121 m 758 800 l 964 800 l 964 1072 l 1107 1072 l 1107 407 l 964 407 l 964 679 l 749 679 l 749 763 q 641 548 710 642 q 488 392 572 454 l 379 460 q 556 660 490 540 q 631 907 621 781 l 460 907 q 419 777 449 842 q 347 651 390 713 q 251 540 304 592 q 139 450 197 488 l 33 519 q 133 597 86 553 q 218 692 181 642 q 281 797 256 743 q 314 907 306 851 l 85 907 l 85 1019 l 786 1019 q 778 905 786 960 q 758 800 771 850 z "},"껌":{"ha":1250,"x_min":36,"x_max":1107,"o":"m 381 -211 l 381 239 l 1103 239 l 1103 -211 l 381 -211 m 526 124 l 526 -97 l 957 -97 l 957 124 l 526 124 m 758 778 l 964 778 l 964 1072 l 1107 1072 l 1107 311 l 964 311 l 964 658 l 750 658 l 750 744 q 648 507 714 618 q 488 315 582 396 l 372 378 q 477 490 431 428 q 556 619 524 551 q 606 759 588 688 q 631 900 625 831 l 460 900 q 420 761 449 832 q 350 624 392 690 q 256 498 308 557 q 146 396 203 439 l 36 460 q 136 551 89 500 q 219 660 183 603 q 279 778 256 717 q 310 900 303 839 l 85 900 l 85 1015 l 786 1015 q 778 894 786 954 q 758 778 771 835 z "},"껍":{"ha":1250,"x_min":35,"x_max":1107,"o":"m 964 794 l 964 1072 l 1107 1072 l 1107 369 l 964 369 l 964 674 l 749 674 l 749 757 q 641 537 710 633 q 489 375 572 440 l 381 444 q 555 655 489 529 q 631 907 621 781 l 461 907 q 422 774 450 842 q 350 644 393 707 q 254 526 308 581 q 140 435 200 472 l 35 506 q 136 585 89 539 q 219 683 183 631 q 281 793 257 736 q 314 907 306 850 l 86 907 l 86 1019 l 788 1019 q 780 902 788 958 q 760 794 772 846 l 964 794 m 369 304 l 515 304 l 515 165 l 949 165 l 949 304 l 1094 304 l 1094 -211 l 369 -211 l 369 304 m 949 51 l 515 51 l 515 -97 l 949 -97 l 949 51 z "},"껏":{"ha":1250,"x_min":36,"x_max":1140,"o":"m 964 775 l 964 1072 l 1107 1072 l 1107 236 l 964 236 l 964 656 l 749 656 l 749 739 q 647 505 713 614 q 488 315 581 396 l 372 378 q 477 490 431 428 q 556 619 524 551 q 606 759 588 688 q 631 900 625 831 l 460 900 q 420 761 449 832 q 350 624 392 690 q 256 498 308 557 q 146 396 203 439 l 36 460 q 136 551 89 500 q 219 660 183 603 q 279 778 256 717 q 310 900 303 839 l 85 900 l 85 1015 l 786 1015 q 778 893 786 953 q 757 775 771 833 l 964 775 m 636 268 l 797 268 l 797 181 q 831 68 797 122 q 918 -29 864 14 q 1026 -107 967 -75 q 1140 -154 1085 -139 l 1061 -249 q 961 -209 1014 -236 q 860 -147 908 -182 q 777 -76 814 -114 q 719 0 740 -37 q 663 -74 700 -36 q 578 -144 625 -111 q 474 -208 528 -181 q 372 -249 421 -236 l 293 -154 q 419 -99 353 -136 q 536 -11 485 -61 q 609 80 582 31 q 636 181 636 129 l 636 268 z "},"껐":{"ha":1250,"x_min":36,"x_max":1218,"o":"m 717 -240 q 644 -194 678 -219 q 582 -142 610 -168 q 539 -94 557 -118 q 508 -46 521 -69 q 478 -95 496 -71 q 435 -142 460 -119 q 372 -193 407 -168 q 294 -240 336 -218 l 215 -153 q 317 -82 274 -121 q 389 3 360 -43 q 424 91 413 43 q 435 193 435 139 l 435 263 l 579 263 l 579 197 q 592 92 579 143 q 631 -1 606 40 q 669 -51 647 -28 q 717 -96 690 -75 q 769 -47 746 -74 q 808 11 792 -19 q 841 100 831 53 q 851 197 851 147 l 851 263 l 996 263 l 996 193 q 1007 86 996 136 q 1047 -6 1018 36 q 1115 -85 1072 -49 q 1218 -151 1158 -122 l 1142 -240 q 1066 -197 1100 -219 q 1003 -147 1032 -174 q 956 -96 976 -122 q 924 -44 936 -69 q 894 -91 913 -67 q 853 -139 876 -115 q 790 -193 825 -167 q 717 -240 754 -219 m 758 778 l 964 778 l 964 1072 l 1107 1072 l 1107 311 l 964 311 l 964 658 l 749 658 l 749 739 q 647 505 713 614 q 488 315 581 396 l 372 378 q 477 490 431 428 q 556 619 524 551 q 606 759 588 688 q 631 900 625 831 l 460 900 q 420 761 449 832 q 350 624 392 690 q 256 498 308 557 q 146 396 203 439 l 36 460 q 136 551 89 500 q 219 660 183 603 q 279 778 256 717 q 310 900 303 839 l 85 900 l 85 1015 l 786 1015 q 778 894 786 954 q 758 778 771 835 z "},"껑":{"ha":1250,"x_min":33,"x_max":1107,"o":"m 964 781 l 964 1072 l 1107 1072 l 1107 288 l 964 288 l 964 661 l 746 661 l 746 739 q 644 505 710 614 q 485 315 578 396 l 369 378 q 474 490 428 428 q 553 619 521 551 q 603 759 585 688 q 628 900 622 831 l 457 900 q 417 761 446 832 q 347 624 389 690 q 253 498 306 557 q 143 396 200 439 l 33 460 q 133 551 86 500 q 217 660 181 603 q 276 778 253 717 q 307 900 300 839 l 82 900 l 82 1015 l 783 1015 q 776 895 783 954 q 757 781 769 836 l 964 781 m 757 -283 q 632 -261 690 -283 q 531 -199 574 -239 q 463 -107 488 -160 q 438 7 438 -54 q 463 120 438 67 q 531 213 488 174 q 632 276 574 253 q 757 299 690 299 q 881 276 822 299 q 982 213 939 253 q 1051 120 1025 174 q 1076 7 1076 67 q 1051 -107 1076 -54 q 982 -199 1025 -160 q 881 -261 939 -239 q 757 -283 822 -283 m 932 7 q 881 128 932 78 q 757 179 831 179 q 630 128 682 179 q 578 7 578 78 q 628 -113 578 -64 q 753 -162 678 -162 q 879 -113 826 -162 q 932 7 932 -64 z "},"께":{"ha":1250,"x_min":21,"x_max":1168,"o":"m 1031 -172 l 1031 1069 l 1168 1069 l 1168 -172 l 1031 -172 m 661 999 q 653 825 661 911 q 633 656 646 739 l 779 656 l 779 1056 l 910 1056 l 910 -125 l 779 -125 l 779 524 l 607 522 q 535 296 578 404 q 432 94 492 188 l 307 143 q 463 501 411 306 q 519 883 515 696 l 393 883 q 317 503 379 682 q 143 169 256 324 l 21 218 q 190 537 128 360 q 257 883 251 714 l 96 883 l 96 999 l 661 999 z "},"껙":{"ha":1250,"x_min":22,"x_max":1168,"o":"m 1032 308 l 1032 1071 l 1168 1071 l 1168 308 l 1032 308 m 390 113 l 390 228 l 1151 228 l 1151 -225 l 1006 -225 l 1006 113 l 390 113 m 644 774 l 790 774 l 790 1057 l 919 1057 l 919 308 l 790 308 l 790 649 l 613 649 q 537 477 583 557 q 428 331 490 397 l 324 389 q 408 499 371 438 q 472 626 446 560 q 512 763 497 693 q 529 897 526 832 l 379 897 q 350 764 371 832 q 297 629 329 696 q 220 503 264 564 q 124 393 176 442 l 22 449 q 106 545 67 492 q 175 658 144 599 q 225 778 206 717 q 251 897 244 839 l 74 897 l 74 1014 l 668 1014 q 662 892 668 951 q 644 774 656 832 z "},"껜":{"ha":1250,"x_min":21,"x_max":1172,"o":"m 1032 131 l 1032 1071 l 1168 1071 l 1168 131 l 1032 131 m 410 185 l 556 185 l 556 -93 l 1172 -93 l 1172 -211 l 410 -211 l 410 185 m 638 726 l 793 726 l 793 1057 l 922 1057 l 922 156 l 793 156 l 793 600 l 603 600 q 528 435 572 513 q 428 294 485 357 l 324 353 q 408 466 371 403 q 471 600 444 529 q 512 744 497 669 q 529 889 526 818 l 379 889 q 349 745 371 818 q 294 601 328 672 q 217 469 261 532 q 122 357 174 406 l 21 413 q 106 513 67 456 q 176 632 146 569 q 226 760 207 694 q 251 889 244 826 l 74 889 l 74 1006 l 668 1006 q 660 863 668 933 q 638 726 651 793 z "},"껨":{"ha":1250,"x_min":22,"x_max":1168,"o":"m 1032 308 l 1032 1071 l 1168 1071 l 1168 308 l 1032 308 m 417 -211 l 417 235 l 1154 235 l 1154 -211 l 417 -211 m 563 119 l 563 -97 l 1008 -97 l 1008 119 l 563 119 m 644 774 l 790 774 l 790 1057 l 919 1057 l 919 308 l 790 308 l 790 649 l 613 649 q 537 477 583 557 q 428 331 490 397 l 324 389 q 408 499 371 438 q 472 626 446 560 q 512 763 497 693 q 529 897 526 832 l 379 897 q 350 764 371 832 q 297 629 329 696 q 220 503 264 564 q 124 393 176 442 l 22 449 q 106 545 67 492 q 175 658 144 599 q 225 778 206 717 q 251 897 244 839 l 74 897 l 74 1014 l 668 1014 q 662 892 668 951 q 644 774 656 832 z "},"껫":{"ha":1250,"x_min":22,"x_max":1168,"o":"m 1032 279 l 1032 1071 l 1168 1071 l 1168 279 l 1032 279 m 656 244 l 818 244 l 818 168 q 848 61 818 111 q 928 -31 878 11 q 1038 -106 978 -75 q 1157 -154 1099 -137 l 1083 -249 q 985 -211 1038 -236 q 885 -154 932 -186 q 798 -85 836 -122 q 740 -10 760 -47 q 685 -81 721 -44 q 604 -147 650 -117 q 499 -208 554 -181 q 394 -249 444 -236 l 318 -154 q 439 -104 376 -137 q 551 -25 501 -71 q 626 65 597 15 q 656 168 656 114 l 656 244 m 647 771 l 793 771 l 793 1057 l 922 1057 l 922 310 l 793 310 l 793 646 l 617 646 q 541 465 588 550 q 428 308 494 379 l 324 367 q 410 481 372 417 q 472 614 447 544 q 513 753 499 682 q 529 889 526 824 l 379 889 q 350 750 371 821 q 297 611 329 679 q 220 481 264 543 q 124 371 176 419 l 22 426 q 106 521 67 467 q 174 636 144 575 q 224 761 204 696 q 250 889 243 826 l 74 889 l 74 1006 l 668 1006 q 663 886 668 944 q 647 771 657 828 z "},"껭":{"ha":1250,"x_min":22,"x_max":1168,"o":"m 1032 310 l 1032 1071 l 1168 1071 l 1168 310 l 1032 310 m 774 -283 q 649 -261 707 -283 q 547 -199 592 -239 q 479 -107 504 -160 q 454 7 454 -54 q 479 120 454 67 q 547 213 504 174 q 649 276 592 253 q 774 299 707 299 q 899 276 840 299 q 1000 213 957 253 q 1069 120 1043 174 q 1094 7 1094 67 q 1069 -107 1094 -54 q 1000 -199 1043 -160 q 899 -261 957 -239 q 774 -283 840 -283 m 774 179 q 647 128 699 179 q 596 7 596 78 q 645 -113 596 -64 q 769 -162 694 -162 q 897 -113 843 -162 q 950 7 950 -64 q 899 128 950 78 q 774 179 849 179 m 646 782 l 792 782 l 792 1057 l 921 1057 l 921 344 l 792 344 l 792 657 l 615 657 q 539 480 586 563 q 428 331 492 397 l 324 389 q 408 499 371 438 q 472 626 446 560 q 512 763 497 693 q 529 897 526 832 l 379 897 q 350 764 371 832 q 297 629 329 696 q 220 503 264 564 q 124 393 176 442 l 22 449 q 106 545 67 492 q 175 658 144 599 q 225 778 206 717 q 251 897 244 839 l 74 897 l 74 1014 l 668 1014 q 663 896 668 954 q 646 782 657 838 z "},"껴":{"ha":1250,"x_min":51,"x_max":1108,"o":"m 790 818 l 964 818 l 964 1071 l 1108 1071 l 1108 -171 l 964 -171 l 964 382 l 753 382 l 753 494 l 964 494 l 964 704 l 775 704 q 677 352 744 515 q 514 64 610 189 l 390 129 q 494 287 449 199 q 572 474 540 375 q 623 676 604 572 q 646 882 642 779 l 471 882 q 440 684 464 785 q 375 489 415 583 q 283 308 336 393 q 168 158 231 224 l 51 219 q 157 359 110 281 q 240 525 204 438 q 296 703 275 611 q 322 882 317 794 l 114 882 l 114 997 l 799 997 q 797 906 799 951 q 790 818 794 861 z "},"껸":{"ha":1250,"x_min":40,"x_max":1139,"o":"m 378 185 l 524 185 l 524 -93 l 1139 -93 l 1139 -211 l 378 -211 l 378 185 m 779 900 l 964 900 l 964 1072 l 1107 1072 l 1107 129 l 964 129 l 964 483 l 751 483 l 751 604 l 964 604 l 964 781 l 760 781 q 659 510 728 636 q 489 294 590 383 l 375 357 q 478 472 432 408 q 557 607 524 536 q 608 752 589 678 q 629 900 626 826 l 460 900 q 424 756 451 831 q 354 613 396 682 q 260 480 313 542 q 150 375 207 418 l 40 442 q 136 533 90 481 q 218 646 182 585 q 279 770 256 706 q 310 900 303 835 l 85 900 l 85 1015 l 786 1015 q 785 957 786 986 q 779 900 783 928 z "},"껼":{"ha":1250,"x_min":33,"x_max":1119,"o":"m 365 121 l 933 121 l 933 226 l 365 226 l 365 335 l 1092 335 l 1092 15 l 522 15 l 522 -100 l 1119 -100 l 1119 -212 l 365 -212 l 365 121 m 781 917 l 964 917 l 964 1072 l 1107 1072 l 1107 394 l 964 394 l 964 547 l 747 547 l 747 660 l 964 660 l 964 803 l 760 803 q 651 563 724 665 q 488 392 579 460 l 379 460 q 556 660 490 540 q 631 907 621 781 l 460 907 q 419 777 449 842 q 347 651 390 713 q 251 540 304 592 q 139 450 197 488 l 33 519 q 133 597 86 553 q 218 692 181 642 q 281 797 256 743 q 314 907 306 851 l 85 907 l 85 1019 l 786 1019 q 785 967 786 992 q 781 917 783 942 z "},"꼇":{"ha":1250,"x_min":36,"x_max":1140,"o":"m 636 268 l 797 268 l 797 181 q 831 68 797 122 q 918 -29 864 14 q 1026 -107 967 -75 q 1140 -154 1085 -139 l 1061 -249 q 961 -209 1014 -236 q 860 -147 908 -182 q 777 -76 814 -114 q 719 0 740 -37 q 663 -74 700 -36 q 578 -144 625 -111 q 474 -208 528 -181 q 372 -249 421 -236 l 293 -154 q 419 -99 353 -136 q 536 -11 485 -61 q 609 80 582 31 q 636 181 636 129 l 636 268 m 779 901 l 964 901 l 964 1072 l 1107 1072 l 1107 240 l 964 240 l 964 510 l 749 510 l 749 621 l 964 621 l 964 789 l 761 789 q 660 526 729 649 q 488 315 590 403 l 372 378 q 477 490 431 428 q 556 619 524 551 q 606 759 588 688 q 631 900 625 831 l 460 900 q 420 761 449 832 q 350 624 392 690 q 256 498 308 557 q 146 396 203 439 l 36 460 q 136 551 89 500 q 219 660 183 603 q 279 778 256 717 q 310 900 303 839 l 85 900 l 85 1015 l 786 1015 q 785 958 786 986 q 779 901 783 929 z "},"꼈":{"ha":1250,"x_min":36,"x_max":1218,"o":"m 717 -240 q 644 -194 678 -219 q 582 -142 610 -168 q 539 -94 557 -118 q 508 -46 521 -69 q 478 -95 496 -71 q 435 -142 460 -119 q 372 -193 407 -168 q 294 -240 336 -218 l 215 -153 q 317 -82 274 -121 q 389 3 360 -43 q 424 91 413 43 q 435 193 435 139 l 435 263 l 579 263 l 579 197 q 592 92 579 143 q 631 -1 606 40 q 669 -51 647 -28 q 717 -96 690 -75 q 769 -47 746 -74 q 808 11 792 -19 q 841 100 831 53 q 851 197 851 147 l 851 263 l 996 263 l 996 193 q 1007 86 996 136 q 1047 -6 1018 36 q 1115 -85 1072 -49 q 1218 -151 1158 -122 l 1142 -240 q 1066 -197 1100 -219 q 1003 -147 1032 -174 q 956 -96 976 -122 q 924 -44 936 -69 q 894 -91 913 -67 q 853 -139 876 -115 q 790 -193 825 -167 q 717 -240 754 -219 m 779 900 l 964 900 l 964 1072 l 1107 1072 l 1107 313 l 964 313 l 964 517 l 749 517 l 749 631 l 964 631 l 964 786 l 760 786 q 659 525 728 647 q 488 315 590 403 l 372 378 q 477 490 431 428 q 556 619 524 551 q 606 759 588 688 q 631 900 625 831 l 460 900 q 420 761 449 832 q 350 624 392 690 q 256 498 308 557 q 146 396 203 439 l 36 460 q 136 551 89 500 q 219 660 183 603 q 279 778 256 717 q 310 900 303 839 l 85 900 l 85 1015 l 786 1015 q 784 957 786 986 q 779 900 782 928 z "},"꼍":{"ha":1250,"x_min":33,"x_max":1126,"o":"m 372 335 l 1099 335 l 1099 226 l 529 226 l 529 121 l 1094 121 l 1094 15 l 531 15 l 531 -100 l 1126 -100 l 1126 -212 l 372 -212 l 372 335 m 781 917 l 964 917 l 964 1072 l 1107 1072 l 1107 394 l 964 394 l 964 547 l 747 547 l 747 660 l 964 660 l 964 803 l 760 803 q 651 563 724 665 q 488 392 579 460 l 379 460 q 556 660 490 540 q 631 907 621 781 l 460 907 q 419 777 449 842 q 347 651 390 713 q 251 540 304 592 q 139 450 197 488 l 33 519 q 133 597 86 553 q 218 692 181 642 q 281 797 256 743 q 314 907 306 851 l 85 907 l 85 1019 l 786 1019 q 785 967 786 992 q 781 917 783 942 z "},"꼐":{"ha":1250,"x_min":21,"x_max":1168,"o":"m 1031 -182 l 1031 1069 l 1168 1069 l 1168 -182 l 1031 -182 m 607 522 l 786 522 l 786 704 l 640 704 q 625 612 633 657 q 607 522 617 567 m 661 999 q 659 911 661 954 q 654 826 657 868 l 786 826 l 786 1056 l 917 1056 l 917 -149 l 786 -149 l 786 401 l 574 401 q 510 240 546 318 q 432 94 475 163 l 307 143 q 463 501 411 306 q 519 883 515 696 l 393 883 q 317 503 379 682 q 143 169 256 324 l 21 218 q 190 537 128 360 q 257 883 251 714 l 96 883 l 96 999 l 661 999 z "},"꼬":{"ha":1250,"x_min":35,"x_max":1214,"o":"m 568 78 l 568 504 l 706 504 l 706 78 l 1214 78 l 1214 -43 l 35 -43 l 35 78 l 568 78 m 1036 1007 q 1015 648 1038 826 q 956 332 993 469 l 814 332 q 845 464 831 392 q 871 611 860 536 q 886 758 881 686 q 890 888 892 829 l 585 888 q 562 745 576 819 q 528 597 547 671 q 486 456 508 524 q 440 332 464 388 l 289 332 q 340 458 315 389 q 386 601 365 528 q 422 747 407 674 q 443 888 436 821 l 174 888 l 174 1007 l 1036 1007 z "},"꼭":{"ha":1250,"x_min":31,"x_max":1221,"o":"m 557 454 l 557 722 l 699 722 l 699 454 l 1221 454 l 1221 336 l 31 336 l 31 454 l 557 454 m 224 93 l 224 208 l 1011 208 l 1011 -235 l 865 -235 l 865 93 l 224 93 m 1031 1031 q 1024 911 1031 974 q 1008 786 1018 849 q 983 667 997 724 q 954 568 968 611 l 804 568 q 831 647 818 603 q 854 739 843 692 q 872 829 864 785 q 882 911 879 874 l 546 911 q 499 724 529 819 q 433 568 469 629 l 279 568 q 319 642 300 599 q 356 731 339 685 q 382 825 371 778 q 399 911 393 872 l 178 911 l 178 1031 l 1031 1031 z "},"꼰":{"ha":1250,"x_min":31,"x_max":1221,"o":"m 557 404 l 557 722 l 699 722 l 699 404 l 1221 404 l 1221 286 l 31 286 l 31 404 l 557 404 m 242 186 l 393 186 l 393 -92 l 1035 -92 l 1035 -208 l 242 -208 l 242 186 m 1031 1031 q 1025 908 1031 974 q 1008 775 1019 842 q 983 647 997 708 q 954 540 969 586 l 804 540 q 835 634 821 582 q 861 738 850 686 q 876 835 871 789 q 882 911 882 881 l 549 911 q 532 819 543 869 q 506 718 521 768 q 472 622 490 668 q 435 540 453 575 l 282 540 q 323 622 303 575 q 358 721 343 669 q 385 820 375 771 q 400 911 396 869 l 178 911 l 178 1031 l 1031 1031 z "},"꼲":{"ha":1250,"x_min":29,"x_max":1221,"o":"m 557 497 l 557 747 l 699 747 l 699 497 l 1221 497 l 1221 382 l 29 382 l 29 497 l 557 497 m 224 297 l 360 297 l 360 -93 q 410 -94 381 -94 q 472 -92 440 -94 q 535 -87 504 -90 q 590 -78 567 -83 l 590 -190 q 535 -199 569 -194 q 461 -206 500 -203 q 385 -210 422 -208 q 324 -211 349 -211 l 224 -211 l 224 297 m 1031 1031 q 1024 904 1031 968 q 1007 782 1017 840 q 982 672 996 724 q 954 582 968 621 l 807 582 q 834 655 821 613 q 857 742 847 697 q 872 832 865 788 q 882 911 879 876 l 546 911 q 530 828 540 874 q 506 739 519 783 q 472 653 490 694 q 433 582 454 613 l 282 582 q 324 653 304 613 q 358 739 343 694 q 384 828 374 783 q 399 911 394 872 l 178 911 l 178 1031 l 1031 1031 m 1015 101 q 1056 42 1040 79 q 1072 -35 1072 6 q 1009 -188 1072 -129 q 854 -247 946 -247 q 769 -231 808 -247 q 700 -187 729 -215 q 653 -120 669 -160 q 636 -35 636 -81 q 651 42 636 4 q 692 101 665 79 l 582 101 l 582 207 l 783 207 l 783 333 l 922 333 l 922 207 l 1129 207 l 1129 101 l 1015 101 m 854 99 q 789 64 817 99 q 761 -22 761 29 q 789 -109 761 -76 q 854 -142 817 -142 q 921 -109 893 -142 q 949 -22 949 -76 q 920 63 949 28 q 854 99 892 99 z "},"꼴":{"ha":1250,"x_min":29,"x_max":1219,"o":"m 557 519 l 557 750 l 699 750 l 699 519 l 1219 519 l 1219 407 l 29 407 l 29 519 l 557 519 m 238 96 l 856 96 l 856 189 l 238 189 l 238 299 l 1010 299 l 1010 -7 l 393 -7 l 393 -103 l 1036 -103 l 1036 -212 l 238 -212 l 238 96 m 1031 1036 q 1010 810 1031 924 q 953 610 990 697 l 807 610 q 859 758 838 675 q 885 917 881 842 l 544 917 q 529 841 540 882 q 504 758 518 800 q 471 678 489 717 q 435 610 453 639 l 281 610 q 359 759 325 672 q 400 917 393 846 l 178 917 l 178 1036 l 1031 1036 z "},"꼼":{"ha":1250,"x_min":31,"x_max":1221,"o":"m 557 454 l 557 722 l 699 722 l 699 454 l 1221 454 l 1221 336 l 31 336 l 31 454 l 557 454 m 238 215 l 1015 215 l 1015 -214 l 238 -214 l 238 215 m 383 100 l 383 -100 l 865 -100 l 865 100 l 383 100 m 1031 1031 q 1024 911 1031 974 q 1008 786 1018 849 q 983 667 997 724 q 954 568 968 611 l 804 568 q 831 647 818 603 q 854 739 843 692 q 872 829 864 785 q 882 911 879 874 l 546 911 q 499 724 529 819 q 433 568 469 629 l 279 568 q 319 642 300 599 q 356 731 339 685 q 382 825 371 778 q 399 911 393 872 l 178 911 l 178 1031 l 1031 1031 z "},"꼽":{"ha":1250,"x_min":29,"x_max":1221,"o":"m 557 471 l 557 740 l 699 740 l 699 471 l 1221 471 l 1221 356 l 29 356 l 29 471 l 557 471 m 238 286 l 383 286 l 383 151 l 868 151 l 868 286 l 1014 286 l 1014 -211 l 238 -211 l 238 286 m 868 39 l 383 39 l 383 -97 l 868 -97 l 868 39 m 1031 1031 q 1024 904 1031 968 q 1007 782 1017 840 q 982 672 996 724 q 954 582 968 621 l 807 582 q 834 655 821 613 q 857 742 847 697 q 872 832 865 788 q 882 911 879 876 l 546 911 q 530 828 540 874 q 506 739 519 783 q 472 653 490 694 q 433 582 454 613 l 282 582 q 324 653 304 613 q 358 739 343 694 q 384 828 374 783 q 399 911 394 872 l 178 911 l 178 1031 l 1031 1031 z "},"꼿":{"ha":1250,"x_min":31,"x_max":1221,"o":"m 557 454 l 557 722 l 699 722 l 699 454 l 1221 454 l 1221 336 l 31 336 l 31 454 l 557 454 m 543 247 l 708 247 l 708 156 q 744 51 708 99 q 833 -36 779 3 q 950 -101 886 -74 q 1078 -144 1014 -128 l 992 -242 q 888 -208 942 -229 q 783 -157 833 -186 q 692 -94 733 -129 q 628 -19 650 -58 q 566 -89 606 -56 q 478 -150 526 -122 q 369 -203 426 -179 q 260 -239 311 -226 l 174 -144 q 305 -99 239 -128 q 425 -28 371 -69 q 509 55 475 8 q 543 156 543 101 l 543 247 m 1031 1031 q 1024 911 1031 974 q 1008 786 1018 849 q 983 667 997 724 q 954 568 968 611 l 804 568 q 831 647 818 603 q 854 739 843 692 q 872 829 864 785 q 882 911 879 874 l 546 911 q 499 724 529 819 q 433 568 469 629 l 279 568 q 319 642 300 599 q 356 731 339 685 q 382 825 371 778 q 399 911 393 872 l 178 911 l 178 1031 l 1031 1031 z "},"꽁":{"ha":1250,"x_min":31,"x_max":1221,"o":"m 557 454 l 557 722 l 699 722 l 699 454 l 1221 454 l 1221 336 l 31 336 l 31 454 l 557 454 m 958 -7 q 933 -115 958 -64 q 863 -203 907 -165 q 759 -262 818 -240 q 632 -283 700 -283 q 505 -262 564 -283 q 401 -203 446 -240 q 332 -115 357 -165 q 307 -7 307 -64 q 332 101 307 50 q 401 189 357 151 q 505 249 446 226 q 632 271 564 271 q 759 249 700 271 q 863 189 818 226 q 933 101 907 151 q 958 -7 958 50 m 811 -7 q 760 108 811 61 q 632 156 708 156 q 503 108 557 156 q 450 -7 450 61 q 501 -122 450 -75 q 628 -168 553 -168 q 757 -122 703 -168 q 811 -7 811 -75 m 1031 1031 q 1024 911 1031 974 q 1008 786 1018 849 q 983 667 997 724 q 954 568 968 611 l 804 568 q 831 647 818 603 q 854 739 843 692 q 872 829 864 785 q 882 911 879 874 l 546 911 q 499 724 529 819 q 433 568 469 629 l 279 568 q 319 642 300 599 q 356 731 339 685 q 382 825 371 778 q 399 911 393 872 l 178 911 l 178 1031 l 1031 1031 z "},"꽂":{"ha":1250,"x_min":29,"x_max":1221,"o":"m 557 471 l 557 740 l 699 740 l 699 471 l 1221 471 l 1221 356 l 29 356 l 29 471 l 557 471 m 551 128 l 239 128 l 239 244 l 1011 244 l 1011 128 l 699 128 q 740 34 704 82 q 825 -49 775 -14 q 942 -117 879 -89 q 1063 -160 1004 -144 l 986 -249 q 883 -212 936 -236 q 781 -160 829 -189 q 692 -96 732 -131 q 626 -24 653 -61 q 561 -94 601 -61 q 475 -156 521 -128 q 368 -210 424 -186 q 261 -249 313 -235 l 181 -160 q 310 -112 242 -143 q 436 -37 379 -82 q 513 40 482 -4 q 551 128 543 83 m 1031 1031 q 1024 904 1031 968 q 1007 782 1017 840 q 982 672 996 724 q 954 582 968 621 l 807 582 q 834 655 821 613 q 857 742 847 697 q 872 832 865 788 q 882 911 879 876 l 546 911 q 530 828 540 874 q 506 739 519 783 q 472 653 490 694 q 433 582 454 613 l 282 582 q 324 653 304 613 q 358 739 343 694 q 384 828 374 783 q 399 911 394 872 l 178 911 l 178 1031 l 1031 1031 z "},"꽃":{"ha":1250,"x_min":29,"x_max":1219,"o":"m 557 183 l 557 325 l 697 325 l 697 183 l 1028 183 l 1028 69 l 708 69 q 855 -76 757 -18 q 1074 -158 953 -135 l 1013 -253 q 899 -221 956 -242 q 790 -172 842 -200 q 696 -110 739 -144 q 626 -35 653 -75 q 460 -170 567 -112 q 242 -253 354 -228 l 172 -158 q 389 -77 289 -136 q 538 69 489 -18 l 224 69 l 224 183 l 557 183 m 557 499 l 557 740 l 699 740 l 699 499 l 1219 499 l 1219 386 l 29 386 l 29 499 l 557 499 m 1031 1036 q 1010 803 1031 924 q 953 596 990 683 l 807 596 q 859 751 838 661 q 885 917 881 842 l 544 917 q 529 839 540 882 q 504 751 518 796 q 471 666 489 707 q 435 596 453 625 l 281 596 q 323 667 303 626 q 358 751 343 708 q 385 838 375 796 q 400 917 396 881 l 178 917 l 178 1036 l 1031 1036 z "},"꽈":{"ha":1250,"x_min":35,"x_max":1253,"o":"m 1064 586 l 1253 586 l 1253 467 l 1064 467 l 1064 -171 l 921 -171 l 921 1069 l 1064 1069 l 1064 586 m 358 175 l 358 581 l 492 581 l 492 181 q 585 183 536 181 q 682 190 635 186 q 771 197 729 193 q 843 204 813 200 l 843 94 q 733 82 801 88 q 583 71 664 76 q 417 62 503 65 q 260 58 332 58 l 35 57 l 35 172 l 207 172 q 283 172 244 172 q 358 175 321 172 m 783 1004 q 774 837 783 922 q 750 669 765 751 q 719 515 736 589 q 685 385 701 442 l 543 385 q 577 503 561 439 q 606 632 593 567 q 626 762 618 697 q 636 883 633 826 l 393 883 q 369 760 383 826 q 336 628 354 694 q 299 498 319 561 q 260 385 279 435 l 117 385 q 160 503 139 439 q 200 633 182 567 q 231 763 217 699 q 251 883 244 828 l 78 883 l 78 1004 l 783 1004 z "},"꽉":{"ha":1250,"x_min":26,"x_max":1250,"o":"m 350 451 l 350 711 l 483 711 l 483 456 q 689 467 590 460 q 854 482 788 474 l 854 372 q 740 360 810 365 q 592 349 671 354 q 428 340 511 343 q 272 336 344 336 l 26 335 l 26 450 l 219 450 q 282 450 249 450 q 350 451 315 450 m 293 100 l 293 217 l 1056 217 l 1056 -225 l 910 -225 l 910 100 l 293 100 m 1064 596 l 1064 288 l 919 288 l 919 1071 l 1064 1071 l 1064 713 l 1250 713 l 1250 596 l 1064 596 m 756 1033 q 750 909 756 972 q 736 786 744 846 q 713 671 726 725 q 685 574 700 617 l 553 574 q 596 739 578 644 q 618 913 614 833 l 374 913 q 356 829 367 874 q 328 739 344 785 q 291 651 311 694 q 247 574 271 608 l 107 574 q 188 738 153 643 q 238 913 224 832 l 63 913 l 63 1033 l 756 1033 z "},"꽐":{"ha":1250,"x_min":28,"x_max":1250,"o":"m 350 517 l 350 739 l 483 739 l 483 521 q 689 533 590 525 q 854 549 788 540 l 854 436 q 740 424 810 429 q 592 414 671 418 q 428 406 511 408 q 272 403 344 403 l 28 401 l 28 515 l 219 515 q 282 515 249 515 q 350 517 315 515 m 321 97 l 906 97 l 906 185 l 321 185 l 321 294 l 1061 294 l 1061 -8 l 479 -8 l 479 -100 l 1092 -100 l 1092 -212 l 321 -212 l 321 97 m 1064 640 l 1064 367 l 919 367 l 919 1071 l 1064 1071 l 1064 757 l 1250 757 l 1250 640 l 1064 640 m 756 1033 q 743 819 756 933 q 700 618 731 706 l 567 618 q 604 760 592 679 q 621 913 617 840 l 374 913 q 324 756 360 840 q 249 618 289 672 l 110 618 q 194 762 160 679 q 242 913 229 844 l 63 913 l 63 1033 l 756 1033 z "},"꽜":{"ha":1250,"x_min":26,"x_max":1250,"o":"m 350 451 l 350 711 l 483 711 l 483 456 q 689 467 590 460 q 854 482 788 474 l 854 372 q 740 360 810 365 q 592 349 671 354 q 428 340 511 343 q 272 336 344 336 l 26 335 l 26 450 l 219 450 q 282 450 249 450 q 350 451 315 450 m 658 -242 q 588 -199 621 -221 q 529 -151 556 -176 q 484 -105 503 -128 q 453 -57 465 -82 q 418 -106 438 -82 q 374 -150 399 -129 q 310 -198 344 -175 q 236 -242 276 -221 l 158 -154 q 263 -84 221 -121 q 333 -4 306 -47 q 367 77 356 33 q 379 175 379 121 l 379 224 l 524 224 l 524 178 q 535 81 524 128 q 571 -7 546 33 q 608 -57 586 -33 q 656 -100 629 -81 q 710 -54 686 -79 q 750 0 733 -29 q 783 84 771 39 q 794 178 794 129 l 794 224 l 939 224 l 939 175 q 951 73 939 121 q 990 -14 964 25 q 1058 -90 1017 -56 q 1160 -153 1100 -125 l 1086 -242 q 1011 -203 1046 -225 q 951 -156 976 -181 q 900 -107 921 -132 q 867 -56 879 -82 q 838 -101 856 -79 q 797 -144 819 -124 q 732 -197 768 -172 q 658 -242 696 -221 m 1064 596 l 1064 288 l 919 288 l 919 1071 l 1064 1071 l 1064 713 l 1250 713 l 1250 596 l 1064 596 m 756 1033 q 737 784 756 908 q 685 574 718 660 l 551 574 q 597 737 579 644 q 618 913 614 829 l 374 913 q 354 826 367 872 q 325 735 342 781 q 288 648 308 690 q 247 574 268 606 l 107 574 q 192 735 156 640 q 236 913 228 829 l 63 913 l 63 1033 l 756 1033 z "},"꽝":{"ha":1250,"x_min":28,"x_max":1250,"o":"m 350 467 l 350 711 l 483 711 l 483 471 q 689 484 590 476 q 854 500 788 492 l 854 388 q 740 375 810 381 q 592 365 671 369 q 428 357 511 360 q 272 354 344 354 l 28 353 l 28 465 l 219 465 q 282 465 249 465 q 350 467 315 465 m 1026 1 q 1001 -106 1026 -56 q 931 -193 975 -156 q 826 -252 886 -231 q 700 -274 767 -274 q 573 -252 632 -274 q 469 -193 514 -231 q 399 -106 425 -156 q 374 1 374 -56 q 399 109 374 58 q 469 197 425 160 q 573 257 514 235 q 700 279 632 279 q 826 257 767 279 q 931 197 886 235 q 1001 109 975 160 q 1026 1 1026 58 m 879 1 q 828 117 879 69 q 700 165 776 165 q 571 117 625 165 q 517 1 517 69 q 569 -113 517 -67 q 696 -160 621 -160 q 825 -113 771 -160 q 879 1 879 -67 m 1064 596 l 1064 279 l 919 279 l 919 1071 l 1064 1071 l 1064 713 l 1250 713 l 1250 596 l 1064 596 m 756 1033 q 737 784 756 908 q 685 574 718 660 l 551 574 q 597 737 579 644 q 618 913 614 829 l 374 913 q 354 826 367 872 q 325 735 342 781 q 288 648 308 690 q 247 574 268 606 l 107 574 q 192 735 156 640 q 236 913 228 829 l 63 913 l 63 1033 l 756 1033 z "},"꽤":{"ha":1250,"x_min":28,"x_max":1168,"o":"m 326 181 l 326 603 l 451 603 l 451 186 q 592 194 518 188 q 725 208 667 200 l 725 97 q 602 83 671 89 q 458 71 533 76 q 304 64 383 67 q 149 61 225 61 l 28 60 l 28 175 l 97 175 q 212 176 151 175 q 326 181 272 178 m 1031 451 l 911 451 l 911 -124 l 779 -124 l 779 1050 l 911 1050 l 911 571 l 1031 571 l 1031 1069 l 1168 1069 l 1168 -171 l 1031 -171 l 1031 451 m 681 1004 q 665 674 681 836 q 621 388 650 511 l 499 388 q 537 625 524 490 q 551 883 550 760 l 342 883 q 328 753 338 821 q 306 619 318 686 q 276 491 293 553 q 242 382 260 429 l 115 382 q 153 494 135 432 q 183 624 171 557 q 206 758 197 690 q 218 883 215 825 l 68 883 l 68 1004 l 681 1004 z "},"꽥":{"ha":1250,"x_min":21,"x_max":1168,"o":"m 335 432 l 335 690 l 460 690 l 460 438 q 601 447 525 440 q 726 460 676 454 l 726 350 q 606 335 675 342 q 460 325 538 329 q 303 317 383 319 q 151 314 224 314 l 21 313 l 21 426 l 97 426 q 153 426 124 426 q 211 428 182 426 q 272 429 240 428 q 335 432 303 431 m 1031 596 l 913 596 l 913 264 l 781 264 l 781 1050 l 913 1050 l 913 715 l 1031 715 l 1031 1069 l 1168 1069 l 1168 264 l 1031 264 l 1031 596 m 394 90 l 394 204 l 1157 204 l 1157 -225 l 1010 -225 l 1010 90 l 394 90 m 681 1021 q 671 771 681 894 q 638 556 661 647 l 510 556 q 539 728 529 632 q 549 903 549 824 l 354 903 q 322 724 344 821 q 268 556 300 626 l 138 556 q 199 722 174 626 q 229 903 224 817 l 68 903 l 68 1021 l 681 1021 z "},"꽹":{"ha":1250,"x_min":21,"x_max":1168,"o":"m 1031 596 l 913 596 l 913 314 l 781 314 l 781 1050 l 913 1050 l 913 715 l 1031 715 l 1031 1069 l 1168 1069 l 1168 264 l 1031 264 l 1031 596 m 1083 1 q 1058 -106 1083 -56 q 988 -193 1032 -156 q 885 -252 944 -231 q 758 -274 825 -274 q 631 -252 690 -274 q 526 -193 571 -231 q 457 -106 482 -156 q 432 1 432 -56 q 457 109 432 58 q 526 197 482 160 q 631 257 571 235 q 758 279 690 279 q 885 257 825 279 q 988 197 944 235 q 1058 109 1032 160 q 1083 1 1083 58 m 936 1 q 885 117 936 69 q 758 165 833 165 q 628 117 682 165 q 575 1 575 69 q 626 -113 575 -67 q 754 -160 678 -160 q 883 -113 829 -160 q 936 1 936 -67 m 335 446 l 335 704 l 460 704 l 460 451 q 601 461 525 454 q 726 474 676 468 l 726 364 q 606 349 675 356 q 460 339 538 343 q 303 331 383 333 q 151 328 224 328 l 21 326 l 21 440 l 97 440 q 153 440 124 440 q 211 442 182 440 q 272 443 240 442 q 335 446 303 444 m 681 1021 q 671 774 681 894 q 638 563 661 654 l 510 563 q 539 731 529 639 q 549 903 549 824 l 354 903 q 322 727 344 821 q 268 563 300 633 l 138 563 q 199 725 174 633 q 229 903 224 817 l 68 903 l 68 1021 l 681 1021 z "},"꾀":{"ha":1250,"x_min":51,"x_max":1107,"o":"m 965 -172 l 965 1069 l 1107 1069 l 1107 -172 l 965 -172 m 389 175 l 389 581 l 522 581 l 522 181 q 712 188 611 182 q 901 204 813 194 l 901 94 q 772 80 846 86 q 617 68 699 74 q 451 61 535 64 q 290 58 367 58 l 51 57 l 51 172 l 238 172 q 313 172 275 172 q 389 175 351 172 m 814 1004 q 805 837 814 922 q 781 669 796 751 q 749 515 767 589 q 715 385 732 442 l 574 385 q 608 503 592 439 q 636 632 624 567 q 656 762 649 697 q 667 883 664 826 l 424 883 q 399 760 414 826 q 367 628 385 694 q 330 498 350 561 q 290 385 310 435 l 147 385 q 191 503 169 439 q 231 633 213 567 q 261 763 247 699 q 282 883 275 828 l 108 883 l 108 1004 l 814 1004 z "},"꾄":{"ha":1250,"x_min":31,"x_max":1118,"o":"m 376 407 l 376 703 l 510 703 l 510 413 q 726 424 625 417 q 899 440 828 432 l 899 328 q 785 315 854 321 q 635 306 715 310 q 472 297 556 300 q 317 294 389 294 l 31 293 l 31 407 l 376 407 m 1108 136 l 965 136 l 965 1071 l 1108 1071 l 1108 136 m 357 167 l 503 167 l 503 -93 l 1118 -93 l 1118 -211 l 357 -211 l 357 167 m 782 1033 q 763 753 781 892 q 711 524 744 615 l 578 524 q 604 608 592 560 q 625 710 617 657 q 640 814 635 761 q 646 913 644 867 l 400 913 q 382 811 394 864 q 351 707 369 758 q 313 608 335 656 q 269 524 292 560 l 131 524 q 217 708 181 601 q 263 913 254 815 l 75 913 l 75 1033 l 782 1033 z "},"꾈":{"ha":1250,"x_min":31,"x_max":1128,"o":"m 378 515 l 378 739 l 511 739 l 511 521 q 610 524 557 521 q 715 531 663 526 q 816 540 768 535 q 899 549 864 544 l 899 436 q 788 424 854 429 q 644 413 722 418 q 482 406 567 408 q 317 403 397 403 l 31 401 l 31 515 l 378 515 m 1108 367 l 965 367 l 965 1071 l 1108 1071 l 1108 367 m 358 97 l 944 97 l 944 185 l 358 185 l 358 294 l 1100 294 l 1100 -8 l 517 -8 l 517 -100 l 1128 -100 l 1128 -212 l 358 -212 l 358 97 m 782 1033 q 762 802 781 913 q 710 611 743 692 l 575 611 q 626 760 608 678 q 643 913 643 842 l 400 913 q 352 759 388 840 q 271 611 317 678 l 132 611 q 215 756 178 675 q 265 913 251 838 l 75 913 l 75 1033 l 782 1033 z "},"꾐":{"ha":1250,"x_min":29,"x_max":1108,"o":"m 379 453 l 379 711 l 513 711 l 513 457 q 610 459 558 457 q 714 465 663 461 q 813 473 765 468 q 899 483 861 478 l 899 374 q 790 360 854 367 q 649 349 725 354 q 486 340 571 343 q 317 338 401 336 l 29 336 l 29 451 l 264 451 q 320 451 288 451 q 379 453 353 451 m 1108 288 l 965 288 l 965 1071 l 1108 1071 l 1108 288 m 361 -211 l 361 221 l 1099 221 l 1099 -211 l 361 -211 m 508 104 l 508 -97 l 953 -97 l 953 104 l 508 104 m 782 1033 q 764 801 782 925 q 711 574 746 678 l 578 574 q 606 652 592 608 q 628 742 619 696 q 642 831 638 788 q 646 913 647 875 l 400 913 q 380 820 393 868 q 350 726 367 772 q 313 642 333 682 q 272 574 293 601 l 132 574 q 221 736 185 643 q 264 913 257 829 l 75 913 l 75 1033 l 782 1033 z "},"꾑":{"ha":1250,"x_min":29,"x_max":1108,"o":"m 379 489 l 379 722 l 513 722 l 513 493 q 610 497 558 494 q 713 503 661 500 q 811 511 764 507 q 899 521 858 515 l 899 410 q 785 397 854 403 q 635 386 715 390 q 472 378 556 381 q 317 375 389 375 l 29 374 l 29 488 l 264 488 q 320 488 288 488 q 379 489 353 488 m 1108 338 l 965 338 l 965 1071 l 1108 1071 l 1108 338 m 367 286 l 513 286 l 513 151 l 957 151 l 957 286 l 1103 286 l 1103 -211 l 367 -211 l 367 286 m 957 39 l 513 39 l 513 -97 l 957 -97 l 957 39 m 782 1033 q 776 908 781 971 q 763 786 771 844 q 740 674 753 726 q 711 582 728 621 l 578 582 q 626 742 607 653 q 646 913 644 832 l 401 913 q 349 736 385 828 q 274 582 314 644 l 133 582 q 218 736 181 644 q 265 913 256 828 l 75 913 l 75 1033 l 782 1033 z "},"꾕":{"ha":1250,"x_min":29,"x_max":1108,"o":"m 365 463 l 365 708 l 499 708 l 499 467 q 722 479 614 471 q 899 496 829 488 l 899 383 q 785 371 854 376 q 635 361 715 365 q 472 353 556 356 q 317 350 389 350 l 29 349 l 29 461 l 264 461 q 313 461 288 461 q 365 463 339 461 m 1108 279 l 965 279 l 965 1071 l 1108 1071 l 1108 279 m 1046 1 q 1020 -106 1046 -56 q 950 -193 994 -156 q 846 -252 906 -231 q 719 -274 786 -274 q 592 -252 651 -274 q 489 -193 533 -231 q 419 -106 444 -156 q 394 1 394 -56 q 419 109 394 58 q 489 197 444 160 q 592 257 533 235 q 719 279 651 279 q 846 257 786 279 q 950 197 906 235 q 1020 109 994 160 q 1046 1 1046 58 m 899 1 q 847 117 899 69 q 719 165 796 165 q 590 117 644 165 q 536 1 536 69 q 588 -113 536 -67 q 715 -160 640 -160 q 844 -113 790 -160 q 899 1 899 -67 m 782 1033 q 764 801 782 925 q 711 574 746 678 l 578 574 q 606 652 592 608 q 628 742 619 696 q 642 831 638 788 q 646 913 647 875 l 400 913 q 380 820 393 868 q 350 726 367 772 q 313 642 333 682 q 272 574 293 601 l 132 574 q 221 736 185 643 q 264 913 257 829 l 75 913 l 75 1033 l 782 1033 z "},"꾜":{"ha":1250,"x_min":33,"x_max":1214,"o":"m 426 503 l 550 504 l 550 78 l 664 78 l 664 504 l 797 504 l 797 78 l 1214 78 l 1214 -43 l 33 -43 l 33 78 l 415 78 l 414 468 q 399 433 406 450 q 385 399 392 415 q 370 366 378 382 q 356 336 363 350 l 210 336 q 269 460 240 392 q 322 601 299 528 q 363 747 346 674 q 386 888 379 821 l 163 888 l 163 1007 l 1047 1007 q 1027 638 1047 815 q 974 332 1007 461 l 838 332 q 885 606 867 457 q 904 888 904 754 l 526 888 q 486 696 513 796 q 426 503 460 596 z "},"꾸":{"ha":1250,"x_min":33,"x_max":1215,"o":"m 551 301 l 33 301 l 33 418 l 311 418 q 409 644 368 515 q 458 894 450 774 l 176 894 l 176 1014 l 1040 1014 q 1008 694 1039 850 q 926 418 976 539 l 1215 418 l 1215 301 l 706 301 l 706 -187 l 551 -187 l 551 301 m 461 418 l 786 418 q 862 655 833 525 q 894 894 890 785 l 600 894 q 581 771 594 835 q 550 644 568 707 q 509 524 532 582 q 461 418 486 465 z "},"꾹":{"ha":1250,"x_min":31,"x_max":1221,"o":"m 578 906 q 567 817 574 865 q 550 719 560 769 q 526 624 539 671 q 497 540 513 576 l 803 540 q 830 622 817 576 q 854 717 843 668 q 869 814 864 765 q 876 906 875 863 l 578 906 m 1021 1026 q 1000 766 1021 897 q 944 540 979 635 l 1221 540 l 1221 425 l 706 425 l 706 208 l 1011 208 l 1011 -235 l 865 -235 l 865 93 l 224 93 l 224 208 l 551 208 l 551 425 l 31 425 l 31 540 l 350 540 q 378 622 364 575 q 404 718 393 669 q 422 817 415 768 q 431 906 429 865 l 179 906 l 179 1026 l 1021 1026 z "},"꾼":{"ha":1250,"x_min":29,"x_max":1221,"o":"m 238 196 l 389 196 l 389 -90 l 1035 -90 l 1035 -208 l 238 -208 l 238 196 m 576 906 q 565 808 572 861 q 546 701 557 756 q 522 595 535 647 q 496 501 510 543 l 803 501 q 853 699 832 588 q 876 906 875 810 l 576 906 m 1021 1026 q 1013 884 1019 957 q 997 743 1007 811 q 973 611 986 674 q 944 501 960 549 l 1221 501 l 1221 383 l 721 383 l 721 64 l 569 64 l 569 383 l 29 383 l 29 501 l 351 501 q 381 592 367 540 q 406 699 394 643 q 422 807 415 753 q 431 906 429 861 l 179 906 l 179 1026 l 1021 1026 z "},"꿀":{"ha":1250,"x_min":31,"x_max":1221,"o":"m 578 906 q 567 819 574 865 q 551 726 560 772 q 529 638 542 681 q 504 561 517 594 l 810 561 q 857 730 839 633 q 876 906 875 826 l 578 906 m 1021 1026 q 1017 906 1022 969 q 1003 781 1013 843 q 981 663 994 719 q 953 561 968 606 l 1221 561 l 1221 449 l 706 449 l 706 299 l 1010 299 l 1010 -7 l 393 -7 l 393 -103 l 1036 -103 l 1036 -212 l 238 -212 l 238 96 l 856 96 l 856 189 l 238 189 l 238 299 l 551 299 l 551 449 l 31 449 l 31 561 l 358 561 q 385 640 372 596 q 408 731 399 685 q 424 822 418 776 q 431 906 431 868 l 179 906 l 179 1026 l 1021 1026 z "},"꿇":{"ha":1250,"x_min":31,"x_max":1221,"o":"m 358 561 q 385 640 372 596 q 408 731 399 685 q 424 822 418 776 q 431 906 431 868 l 179 906 l 179 1026 l 1021 1026 q 1017 906 1022 969 q 1003 781 1013 843 q 981 663 994 719 q 953 561 968 606 l 1221 561 l 1221 449 l 706 449 l 706 240 l 603 240 l 603 -12 l 357 -12 l 357 -103 l 426 -103 q 521 -100 464 -103 q 631 -90 578 -97 l 631 -199 q 494 -210 568 -206 q 358 -214 419 -214 l 221 -214 l 221 90 l 469 90 l 469 183 l 221 183 l 221 292 l 551 292 l 551 449 l 31 449 l 31 561 l 358 561 m 578 906 q 567 819 574 865 q 551 726 560 772 q 529 638 542 681 q 504 561 517 594 l 810 561 q 857 730 839 633 q 876 906 875 826 l 578 906 m 1050 82 q 1094 24 1076 58 q 1111 -49 1111 -11 q 1048 -195 1111 -137 q 893 -253 985 -253 q 808 -237 847 -253 q 739 -194 768 -222 q 692 -130 708 -167 q 675 -49 675 -93 q 692 24 675 -12 q 735 82 710 61 l 650 82 l 650 190 l 824 190 l 824 332 l 963 332 l 963 190 l 1136 190 l 1136 82 l 1050 82 m 893 71 q 826 38 851 71 q 800 -40 800 4 q 828 -118 800 -86 q 893 -150 856 -150 q 959 -117 931 -150 q 988 -40 988 -85 q 960 37 988 3 q 893 71 933 71 z "},"꿈":{"ha":1250,"x_min":31,"x_max":1221,"o":"m 383 100 l 383 -100 l 865 -100 l 865 100 l 383 100 m 238 215 l 551 215 l 551 425 l 31 425 l 31 540 l 350 540 q 378 622 364 575 q 404 718 393 669 q 422 817 415 768 q 431 906 429 865 l 179 906 l 179 1026 l 1021 1026 q 1000 766 1021 897 q 944 540 979 635 l 1221 540 l 1221 425 l 706 425 l 706 215 l 1015 215 l 1015 -214 l 238 -214 l 238 215 m 578 906 q 567 817 574 865 q 550 719 560 769 q 526 624 539 671 q 497 540 513 576 l 803 540 q 830 622 817 576 q 854 717 843 668 q 869 814 864 765 q 876 906 875 863 l 578 906 z "},"꿉":{"ha":1250,"x_min":31,"x_max":1221,"o":"m 238 286 l 383 286 l 383 151 l 868 151 l 868 286 l 1014 286 l 1014 -211 l 238 -211 l 238 286 m 868 39 l 383 39 l 383 -97 l 868 -97 l 868 39 m 578 906 q 568 820 575 867 q 551 726 561 774 q 529 636 542 681 q 504 557 517 592 l 808 557 q 836 638 824 593 q 857 729 849 682 q 870 821 865 775 q 876 906 875 867 l 578 906 m 1021 1026 q 1017 899 1022 964 q 1001 772 1011 833 q 978 656 992 711 q 951 557 965 600 l 1221 557 l 1221 443 l 706 443 l 706 238 l 551 238 l 551 443 l 31 443 l 31 557 l 357 557 q 408 728 389 631 q 431 906 428 826 l 179 906 l 179 1026 l 1021 1026 z "},"꿋":{"ha":1250,"x_min":31,"x_max":1221,"o":"m 544 201 l 707 201 l 707 129 q 740 33 707 75 q 825 -42 774 -8 q 941 -104 876 -79 q 1072 -146 1006 -129 l 997 -242 q 895 -210 947 -231 q 794 -165 843 -190 q 697 -103 740 -137 q 629 -31 654 -68 q 566 -98 607 -67 q 475 -156 525 -129 q 366 -206 422 -185 q 260 -239 310 -226 l 182 -146 q 315 -102 249 -129 q 436 -37 382 -75 q 513 38 482 -4 q 544 129 544 79 l 544 201 m 578 906 q 568 820 575 867 q 551 726 561 774 q 529 636 542 681 q 504 557 517 592 l 808 557 q 836 638 824 593 q 857 729 849 682 q 870 821 865 775 q 876 906 875 867 l 578 906 m 1021 1026 q 1017 899 1022 964 q 1001 772 1011 833 q 978 656 992 711 q 951 557 965 600 l 1221 557 l 1221 443 l 706 443 l 706 251 l 551 251 l 551 443 l 31 443 l 31 557 l 357 557 q 408 728 389 631 q 431 906 428 826 l 179 906 l 179 1026 l 1021 1026 z "},"꿍":{"ha":1250,"x_min":31,"x_max":1221,"o":"m 811 -7 q 760 108 811 61 q 632 156 708 156 q 503 108 557 156 q 450 -7 450 61 q 501 -122 450 -75 q 628 -168 553 -168 q 757 -122 703 -168 q 811 -7 811 -75 m 551 443 l 31 443 l 31 557 l 357 557 q 408 728 389 631 q 431 906 428 826 l 179 906 l 179 1026 l 1021 1026 q 1017 899 1022 964 q 1001 772 1011 833 q 978 656 992 711 q 951 557 965 600 l 1221 557 l 1221 443 l 706 443 l 706 263 q 806 226 760 251 q 886 165 853 201 q 939 86 919 131 q 958 -7 958 42 q 933 -115 958 -64 q 863 -203 907 -165 q 759 -262 818 -240 q 632 -283 700 -283 q 505 -262 564 -283 q 401 -203 446 -240 q 332 -115 357 -165 q 307 -7 307 -64 q 325 84 307 40 q 376 164 343 128 q 453 224 408 199 q 551 260 499 249 l 551 443 m 578 906 q 568 820 575 867 q 551 726 561 774 q 529 636 542 681 q 504 557 517 592 l 808 557 q 836 638 824 593 q 857 729 849 682 q 870 821 865 775 q 876 906 875 867 l 578 906 z "},"꿎":{"ha":1250,"x_min":31,"x_max":1221,"o":"m 578 906 q 568 820 575 867 q 551 726 561 774 q 529 636 542 681 q 504 557 517 592 l 808 557 q 836 638 824 593 q 857 729 849 682 q 870 821 865 775 q 876 906 875 867 l 578 906 m 1021 1026 q 1017 899 1022 964 q 1001 772 1011 833 q 978 656 992 711 q 951 557 965 600 l 1221 557 l 1221 443 l 706 443 l 706 297 l 551 297 l 551 443 l 31 443 l 31 557 l 357 557 q 408 728 389 631 q 431 906 428 826 l 179 906 l 179 1026 l 1021 1026 m 551 128 l 239 128 l 239 244 l 1011 244 l 1011 128 l 699 128 q 740 34 704 82 q 825 -49 775 -14 q 942 -117 879 -89 q 1063 -160 1004 -144 l 986 -249 q 883 -212 936 -236 q 781 -160 829 -189 q 692 -96 732 -131 q 626 -24 653 -61 q 561 -94 601 -61 q 475 -156 521 -128 q 368 -210 424 -186 q 261 -249 313 -235 l 181 -160 q 310 -112 242 -143 q 436 -37 379 -82 q 513 40 482 -4 q 551 128 543 83 z "},"꿔":{"ha":1250,"x_min":35,"x_max":1108,"o":"m 964 124 l 693 124 l 693 238 l 964 238 l 964 1071 l 1108 1071 l 1108 -171 l 964 -171 l 964 124 m 426 883 q 407 676 422 785 q 367 478 392 567 q 483 480 425 478 q 601 486 540 482 q 633 679 621 574 q 647 883 644 785 l 426 883 m 796 1004 q 779 731 794 865 q 743 496 764 596 q 828 502 786 499 q 899 510 869 506 l 899 397 q 737 381 839 389 q 525 369 635 374 l 525 -125 l 371 -125 l 371 364 l 317 364 l 35 361 l 35 476 l 225 476 q 265 676 250 564 q 282 883 281 789 l 92 883 l 92 1004 l 796 1004 z "},"꿜":{"ha":1250,"x_min":26,"x_max":1132,"o":"m 965 378 l 682 378 l 682 489 l 965 489 l 965 1071 l 1108 1071 l 1108 308 l 965 308 l 965 378 m 364 75 l 949 75 l 949 150 l 364 150 l 364 254 l 1104 254 l 1104 -25 l 521 -25 l 521 -106 l 1132 -106 l 1132 -212 l 364 -212 l 364 75 m 418 908 q 399 776 413 847 q 369 650 386 704 q 426 651 399 650 q 482 653 454 651 q 540 656 511 654 q 599 660 568 657 q 628 778 615 706 q 643 908 640 851 l 418 908 m 793 1029 q 778 843 792 940 q 743 668 764 746 q 787 672 765 669 q 828 675 808 674 q 865 678 847 676 q 899 682 882 679 l 899 571 q 728 554 836 563 q 506 540 619 546 l 506 310 l 357 310 l 357 536 l 317 536 l 26 535 l 26 650 l 229 650 q 262 778 249 706 q 278 908 275 850 l 88 908 l 88 1029 l 793 1029 z "},"꿨":{"ha":1250,"x_min":28,"x_max":1197,"o":"m 965 340 l 682 340 l 682 453 l 965 453 l 965 1071 l 1108 1071 l 1108 254 l 965 254 l 965 340 m 697 -242 q 623 -199 657 -221 q 561 -153 589 -178 q 519 -110 538 -132 q 490 -65 500 -87 q 456 -110 476 -89 q 414 -151 436 -131 q 348 -200 383 -176 q 271 -242 313 -224 l 194 -153 q 297 -90 253 -124 q 368 -15 340 -56 q 404 62 392 19 q 417 154 417 104 l 417 192 l 560 192 l 560 157 q 572 60 560 107 q 614 -24 585 14 q 649 -66 629 -46 q 694 -103 669 -86 q 747 -60 724 -83 q 786 -10 769 -36 q 821 69 810 26 q 832 157 832 111 l 832 192 l 976 192 l 976 154 q 989 56 976 101 q 1031 -26 1001 11 q 1098 -96 1057 -64 q 1197 -153 1139 -128 l 1126 -242 q 1049 -203 1085 -226 q 983 -156 1013 -181 q 937 -108 957 -132 q 906 -64 917 -85 q 875 -110 894 -87 q 831 -153 856 -132 q 767 -201 801 -178 q 697 -242 733 -225 m 418 908 q 397 765 413 843 q 365 635 382 688 q 418 634 390 633 q 475 638 446 635 q 534 640 504 639 q 594 644 564 642 q 628 773 615 699 q 644 908 642 847 l 418 908 m 793 1029 q 778 833 792 936 q 739 654 764 729 q 826 660 785 657 q 899 668 867 664 l 899 557 q 728 540 836 549 q 506 526 619 531 l 506 267 l 357 267 l 357 522 l 317 522 l 28 521 l 28 635 l 225 635 q 260 768 246 693 q 278 908 274 843 l 88 908 l 88 1029 l 793 1029 z "}}}
